<svg xmlns="http://www.w3.org/2000/svg" xmlns:xlink="http://www.w3.org/1999/xlink" width="424.699" height="308.778" viewBox="0 0 424.699 308.778"><defs><linearGradient id="a" x1="0.5" y1="1" x2="0.5" gradientUnits="objectBoundingBox"><stop offset="0" stop-color="gray" stop-opacity="0.251"/><stop offset="0.54" stop-color="gray" stop-opacity="0.122"/><stop offset="1" stop-color="gray" stop-opacity="0.102"/></linearGradient><linearGradient id="d" x1="0.5" y1="1.001" x2="0.5" y2="0" xlink:href="#a"/><linearGradient id="e" x1="0" y1="0.5" x2="1" y2="0.5" xlink:href="#a"/><linearGradient id="f" x1="1.414" y1="1" x2="1.414" y2="0" xlink:href="#a"/><linearGradient id="h" x1="0.501" y1="1.001" x2="0.501" y2="0" xlink:href="#a"/></defs><g transform="translate(-0.012 0.008)"><path d="M117.749,98.7a29.186,29.186,0,0,0-9.334.907A15.545,15.545,0,0,0,97.8,117.143c1.239,6.985,6.336,13.071,11.625,18.633s11.019,11.062,13.919,17.71c1.446,3.318,2.122,7.036.653,10.35-2.267,5.109-9.1,7.962-15.666,8.556s-13.153-.563-19.739-.95a24.812,24.812,0,0,0-8.208.567,21.722,21.722,0,0,0-7.427,4.206C64.4,183,57.555,192.268,58.673,201.989c1.251,11.034,12.406,19.755,24.625,24.433,4.046,1.563,8.326,2.806,11.886,5.019,9.381,5.836,11.488,16.78,10.554,26.439s-4.116,19.329-2.345,28.9c2.083,11.136,11.3,21.2,23.742,25.9,11.081,4.186,24.949,3.909,34.788-2A42.1,42.1,0,0,0,173.5,299.644a89.018,89.018,0,0,0,11.511-19.934c1.372-3.318,2.662-6.887,5.863-9.193a20.147,20.147,0,0,1,6.993-2.83c7.552-1.861,15.506-2.369,23.128-4.026s15.271-4.749,19.415-10.272c5.863-7.817,3.127-17.832,3.154-27.025.047-20.974,15.287-39.748,20.912-60.194,1.837-6.68,2.521-14.071-1.583-20.032-2.787-4.046-7.489-6.965-12.43-9.221-10.87-4.96-23.226-7.169-35.378-9.318-16.89-2.986-37.4-3.373-50.489-13.036C152.052,105.307,134.866,98.7,117.749,98.7Z" transform="translate(-57.779 -81.398)" fill="#607d8b" opacity="0.2"/><g transform="translate(9.698 125.851)" opacity="0.5"><path d="M82.379,387.406a4.746,4.746,0,0,0-.43,5.12c2.15,4.1,7.466,3.26,10.049,7.188a7.184,7.184,0,0,1,1.114,3.631c.1,2.224-.59,3.975-.946,5.933a10.03,10.03,0,0,0,1.024,6.778,11.968,11.968,0,0,0,5.472,4.882,29.111,29.111,0,0,0,5.824,1.54,35.845,35.845,0,0,1,6.907,2.345,13.038,13.038,0,0,1,2.947,1.72,21.465,21.465,0,0,1,2.982,3.213l8.314,10.264a29.382,29.382,0,0,0,3.518,3.846,21.192,21.192,0,0,0,4.581,2.818c3.318,1.653,6.789,3.346,9.67,3.154s4.882-2.971,3.518-6.856c-1.29-3.7-4.925-6.813-6.574-10.5-2.6-5.816.805-10.163-1.372-15.987-2.087-5.6-7.939-9.35-11.675-14.462-2.681-3.635-4.175-7.864-6.59-11.683a31.979,31.979,0,0,0-13.68-11.777,26.552,26.552,0,0,0-13.743-1.9,8.805,8.805,0,0,0-4.8,1.595c-1.345,1.134-1.173,3.252-2.048,4.757C85.431,384.752,83.516,385.733,82.379,387.406Z" transform="translate(-81.383 -376.455)" fill="#607d8b"/><path d="M97.28,384.33s41.62,38.911,58.4,69.208" transform="translate(-91.066 -381.252)" fill="none" stroke="#535461" stroke-miterlimit="10" stroke-width="2"/><path d="M83.24,417.622s16.632-3.233,28.143,9.733" transform="translate(-82.514 -401.313)" fill="none" stroke="#535461" stroke-miterlimit="10" stroke-width="2"/><path d="M113.48,468.674s18.371-12.848,24.727-5.374" transform="translate(-100.934 -427.932)" fill="none" stroke="#535461" stroke-miterlimit="10" stroke-width="2"/><path d="M146.415,381.63s-1.935,9.834,5.027,25.9" transform="translate(-120.846 -379.607)" fill="none" stroke="#535461" stroke-miterlimit="10" stroke-width="2"/><path d="M205.777,479.28s-1.626,6.449-14.7,1.708" transform="translate(-148.203 -439.089)" fill="none" stroke="#535461" stroke-miterlimit="10" stroke-width="2"/><path d="M194.73,515.577s7.978-9.221,4.35-13.747" transform="translate(-150.426 -452.825)" fill="none" stroke="#535461" stroke-miterlimit="10" stroke-width="2"/></g><path d="M59.462,252.679c-1.954,2.31-3.784,5.507-2.345,8.662,2.767,6.191,13.012,3.162,16.667,8.927a8.514,8.514,0,0,1,.989,5.711c-.492,3.678-2.314,6.8-3.573,10.163s-1.911,7.427-.137,10.976c1.708,3.436,5.308,5.605,8.795,6.469s6.981.668,10.464.782a57.928,57.928,0,0,1,12.254,1.806,16.927,16.927,0,0,1,5,2.009,22.218,22.218,0,0,1,4.624,4.448L124.7,327.206a29.809,29.809,0,0,0,5.417,5.343,26.751,26.751,0,0,0,7.743,3.3c5.726,1.751,11.726,3.518,17.2,2.318s10.065-6.43,8.7-12.484c-1.3-5.765-7.172-9.854-9.15-15.5-3.127-8.9,4.593-17.155,2.275-26.212-2.22-8.685-12.062-13.165-17.534-20.517-3.909-5.269-5.449-11.859-8.865-17.464-4.933-8.091-13.532-13.45-22.092-15.486s-17.171-1.087-25.2.95c-3.4.864-6.8,1.954-9.5,4.112-2.865,2.294-3.193,5.777-5.281,8.544C65.994,247.328,62.1,249.552,59.462,252.679Z" transform="translate(-56.59 -161.012)" fill="#607d8b"/><path d="M95.07,251.4s66.319,52.181,88.634,97.561" transform="translate(-80.022 -174.43)" fill="none" stroke="#535461" stroke-miterlimit="10" stroke-width="2"/><path d="M58.46,307.352s32.2-10.417,49.852,7.685" transform="translate(-57.722 -206.695)" fill="none" stroke="#535461" stroke-miterlimit="10" stroke-width="2"/><path d="M96.26,377.568s38.348-26.97,48.042-16.452" transform="translate(-80.747 -239.778)" fill="none" stroke="#535461" stroke-miterlimit="10" stroke-width="2"/><path d="M184.917,231.88s-6.61,16.96,1.563,41.612" transform="translate(-133.213 -162.54)" fill="none" stroke="#535461" stroke-miterlimit="10" stroke-width="2"/><path d="M269.1,369.69s-5.007,11.23-28.1,7.3" transform="translate(-168.912 -246.484)" fill="none" stroke="#535461" stroke-miterlimit="10" stroke-width="2"/><path d="M231.69,438.334s17.773-17.777,12.34-24.234" transform="translate(-163.241 -273.535)" fill="none" stroke="#535461" stroke-miterlimit="10" stroke-width="2"/><ellipse cx="181.755" cy="48.671" rx="181.755" ry="48.671" transform="translate(59.799 204.535)" fill="#607d8b" opacity="0.1"/><path d="M1006.113,55.53a33.441,33.441,0,0,0-6.1,34.788c7.907,20.783-13.555,55.343-13.555,55.343s.231-.035.657-.109c28.764-5.081,43.058-37.977,27.064-62.418C1008.235,74.049,1003.353,63.394,1006.113,55.53Z" transform="translate(-622.993 -55.12)" fill="#607d8b"/><path d="M1006.113,55.53s-7.907,17.167,0,31.172,1.356,53.311-19.653,58.959" transform="translate(-622.993 -55.12)" fill="none" stroke="#535461" stroke-miterlimit="10" stroke-width="2"/><path d="M1025.5,200.187s-15.983-2.545-17.437,11.777-30.73,16.307-30.73,16.307l.547.364c24.171,15.865,47.3,10.108,43.778-10.944C1020.377,209.842,1020.482,201.962,1025.5,200.187Z" transform="translate(-617.432 -143.128)" fill="#607d8b"/><path d="M1025.5,200.187s-15.983-2.545-17.437,11.777-30.73,16.307-30.73,16.307l.547.364c24.171,15.865,47.3,10.108,43.778-10.944C1020.377,209.842,1020.482,201.962,1025.5,200.187Z" transform="translate(-617.432 -143.128)" fill="#f5f5f5" opacity="0.2"/><path d="M1025.5,200.46s-12.406,2.736-11.386,14-18.422,24.8-36.781,14.071" transform="translate(-617.432 -143.401)" fill="none" stroke="#535461" stroke-miterlimit="10" stroke-width="2"/><path d="M300.111,247.406s-5.183-17.589.973-30.543a27.787,27.787,0,0,0,2.248-17.433,46.734,46.734,0,0,0-2.466-8.181" transform="translate(-203.676 -137.791)" fill="none" stroke="#535461" stroke-miterlimit="10" stroke-width="2"/><path d="M302.817,164.209c0,2.158-3.909,8.408-3.909,8.408S295,166.362,295,164.209a3.909,3.909,0,1,1,7.817,0Z" transform="translate(-201.805 -118.938)" fill="#607d8b"/><path d="M319.289,191.229c-1.173,1.81-7.849,4.937-7.849,4.937s.121-7.372,1.294-9.182a3.909,3.909,0,1,1,6.555,4.245Z" transform="translate(-211.819 -134.013)" fill="#607d8b"/><path d="M316.358,241.444c-1.927.969-9.268.3-9.268.3s3.827-6.3,5.75-7.27a3.909,3.909,0,1,1,3.518,6.973Z" transform="translate(-209.17 -163.817)" fill="#607d8b"/><path d="M307.2,281.3c-1.735,1.282-9.084,1.861-9.084,1.861s2.7-6.856,4.44-8.138A3.909,3.909,0,1,1,307.2,281.3Z" transform="translate(-203.706 -188.282)" fill="#607d8b"/><path d="M288.413,203.911c1.563,1.5,8.752,3.061,8.752,3.061s-1.763-7.157-3.311-8.658a3.909,3.909,0,1,0-5.441,5.6Z" transform="translate(-196.988 -141.34)" fill="#607d8b"/><path d="M276.882,249.358c1.927.969,9.268.3,9.268.3s-3.827-6.3-5.75-7.27a3.909,3.909,0,0,0-3.518,6.973Z" transform="translate(-189.55 -168.729)" fill="#607d8b"/><path d="M273.764,296.253c1.735,1.282,9.084,1.861,9.084,1.861s-2.7-6.856-4.44-8.138a3.909,3.909,0,0,0-4.644,6.277Z" transform="translate(-187.996 -197.527)" fill="#607d8b"/><path d="M586.65,335.535H553.391a11.085,11.085,0,0,0,1.173-4.952V179.128A11.136,11.136,0,0,0,543.427,168H285.972a11.136,11.136,0,0,0-11.136,11.136V330.583a11.085,11.085,0,0,0,1.173,4.952H241.573a2.943,2.943,0,0,0-2.943,2.943v2.373A16.471,16.471,0,0,0,255.1,357.322H573.145a16.471,16.471,0,0,0,16.471-16.471v-2.373a2.943,2.943,0,0,0-2.967-2.943Zm-204.93,9.42-2.853-3.24h70.791l-3.158,3.24Z" transform="translate(-167.469 -123.629)" fill="url(#a)"/><rect width="273.391" height="169.791" rx="23.26" transform="translate(110.522 46.509)" fill="#535461"/><rect width="261.305" height="138.708" transform="translate(116.28 71.259)" fill="#f1f1f4"/><circle cx="2.302" cy="2.302" r="2.302" transform="translate(244.63 56.867)" fill="#fff"/><path d="M460.923,592.39l-8.99,9.209H388.612L380.5,592.39H251.647a2.877,2.877,0,0,0-2.877,2.877v2.322a16.1,16.1,0,0,0,16.116,16.1H575.706a16.1,16.1,0,0,0,16.1-16.1v-2.322a2.877,2.877,0,0,0-2.877-2.877Z" transform="translate(-173.645 -382.137)" fill="#535461"/><rect width="71.44" height="53.839" transform="translate(132.239 81.828)" fill="#fff"/><rect width="23.812" height="13.458" transform="translate(139.228 86.488)" fill="#607d8b" opacity="0.2"/><rect width="27.955" height="3.107" transform="translate(168.735 86.488)" fill="#e6e8ec"/><rect width="19.673" height="3.107" transform="translate(168.735 91.663)" fill="#e6e8ec"/><rect width="27.955" height="3.107" transform="translate(168.735 96.838)" fill="#e6e8ec"/><rect width="57.462" height="3.107" transform="translate(139.228 102.017)" fill="#e6e8ec"/><rect width="57.462" height="3.107" transform="translate(139.228 107.192)" fill="#e6e8ec"/><rect width="57.462" height="3.107" transform="translate(139.228 112.371)" fill="#e6e8ec"/><rect width="52.803" height="3.107" transform="translate(139.228 117.546)" fill="#e6e8ec"/><rect width="57.462" height="3.107" transform="translate(139.228 122.721)" fill="#e6e8ec"/><rect width="57.462" height="3.107" transform="translate(139.228 127.9)" fill="#e6e8ec"/><rect width="71.44" height="53.839" transform="translate(210.925 81.828)" fill="#fff"/><rect width="23.812" height="13.458" transform="translate(217.91 86.488)" fill="#607d8b" opacity="0.2"/><rect width="27.955" height="3.107" transform="translate(247.421 86.488)" fill="#e6e8ec"/><rect width="19.673" height="3.107" transform="translate(247.421 91.663)" fill="#e6e8ec"/><rect width="27.955" height="3.107" transform="translate(247.421 96.838)" fill="#e6e8ec"/><rect width="57.462" height="3.107" transform="translate(217.91 102.017)" fill="#e6e8ec"/><rect width="57.462" height="3.107" transform="translate(217.91 107.192)" fill="#e6e8ec"/><rect width="57.462" height="3.107" transform="translate(217.91 112.371)" fill="#e6e8ec"/><rect width="52.803" height="3.107" transform="translate(217.91 117.546)" fill="#e6e8ec"/><rect width="57.462" height="3.107" transform="translate(217.91 122.721)" fill="#e6e8ec"/><rect width="57.462" height="3.107" transform="translate(217.91 127.9)" fill="#e6e8ec"/><rect width="71.44" height="53.839" transform="translate(289.608 81.828)" fill="#fff"/><rect width="23.812" height="13.458" transform="translate(296.596 86.488)" fill="#607d8b" opacity="0.2"/><rect width="27.955" height="3.107" transform="translate(326.103 86.488)" fill="#e6e8ec"/><rect width="19.673" height="3.107" transform="translate(326.103 91.663)" fill="#e6e8ec"/><rect width="27.955" height="3.107" transform="translate(326.103 96.838)" fill="#e6e8ec"/><rect width="57.462" height="3.107" transform="translate(296.596 102.017)" fill="#e6e8ec"/><rect width="57.462" height="3.107" transform="translate(296.596 107.192)" fill="#e6e8ec"/><rect width="57.462" height="3.107" transform="translate(296.596 112.371)" fill="#e6e8ec"/><rect width="52.803" height="3.107" transform="translate(296.596 117.546)" fill="#e6e8ec"/><rect width="57.462" height="3.107" transform="translate(296.596 122.721)" fill="#e6e8ec"/><rect width="57.462" height="3.107" transform="translate(296.596 127.9)" fill="#e6e8ec"/><rect width="71.44" height="53.839" transform="translate(132.239 142.394)" fill="#fff"/><rect width="23.812" height="13.458" transform="translate(139.228 147.053)" fill="#607d8b" opacity="0.2"/><rect width="27.955" height="3.107" transform="translate(168.735 147.053)" fill="#e6e8ec"/><rect width="19.673" height="3.107" transform="translate(168.735 152.232)" fill="#e6e8ec"/><rect width="27.955" height="3.107" transform="translate(168.735 157.407)" fill="#e6e8ec"/><rect width="57.462" height="3.107" transform="translate(139.228 162.582)" fill="#e6e8ec"/><rect width="57.462" height="3.107" transform="translate(139.228 167.762)" fill="#e6e8ec"/><rect width="57.462" height="3.107" transform="translate(139.228 172.937)" fill="#e6e8ec"/><rect width="52.803" height="3.107" transform="translate(139.228 178.116)" fill="#e6e8ec"/><rect width="57.462" height="3.107" transform="translate(139.228 183.291)" fill="#e6e8ec"/><rect width="57.462" height="3.107" transform="translate(139.228 188.466)" fill="#e6e8ec"/><rect width="71.44" height="53.839" transform="translate(210.925 142.394)" fill="#fff"/><rect width="23.812" height="13.458" transform="translate(217.91 147.053)" fill="#607d8b" opacity="0.2"/><rect width="27.955" height="3.107" transform="translate(247.421 147.053)" fill="#e6e8ec"/><rect width="19.673" height="3.107" transform="translate(247.421 152.232)" fill="#e6e8ec"/><rect width="27.955" height="3.107" transform="translate(247.421 157.407)" fill="#e6e8ec"/><rect width="57.462" height="3.107" transform="translate(217.91 162.582)" fill="#e6e8ec"/><rect width="57.462" height="3.107" transform="translate(217.91 167.762)" fill="#e6e8ec"/><rect width="57.462" height="3.107" transform="translate(217.91 172.937)" fill="#e6e8ec"/><rect width="52.803" height="3.107" transform="translate(217.91 178.116)" fill="#e6e8ec"/><rect width="57.462" height="3.107" transform="translate(217.91 183.291)" fill="#e6e8ec"/><rect width="57.462" height="3.107" transform="translate(217.91 188.466)" fill="#e6e8ec"/><rect width="71.44" height="53.839" transform="translate(289.608 142.394)" opacity="0.1"/><path d="M311.121,310.18H200.9a10.1,10.1,0,0,0-10.116,10.092V473a10.1,10.1,0,0,0,10.112,10.084H311.117A10.1,10.1,0,0,0,321.229,473V320.272a10.1,10.1,0,0,0-10.108-10.092Z" transform="translate(-138.322 -210.235)" fill="url(#a)"/><rect width="127.346" height="169.278" rx="20" transform="translate(54.014 102.017)" fill="#535461"/><rect width="114.404" height="137.254" transform="translate(60.483 118.031)" fill="#f1f1f4"/><circle cx="1.552" cy="1.552" r="1.552" transform="translate(115.615 108.232)" fill="#fff"/><circle cx="4.659" cy="4.659" r="4.659" transform="translate(112.508 258.354)" fill="#fff"/><rect width="32.63" height="24.594" transform="translate(65.427 132.055)" fill="#fff"/><rect width="10.878" height="6.148" transform="translate(68.621 134.186)" fill="#607d8b" opacity="0.2"/><rect width="12.77" height="1.419" transform="translate(82.098 134.186)" fill="#e6e8ec"/><rect width="8.986" height="1.419" transform="translate(82.098 136.55)" fill="#e6e8ec"/><rect width="12.77" height="1.419" transform="translate(82.098 138.915)" fill="#e6e8ec"/><rect width="26.247" height="1.419" transform="translate(68.621 141.28)" fill="#e6e8ec"/><rect width="26.247" height="1.419" transform="translate(68.621 143.645)" fill="#e6e8ec"/><rect width="26.247" height="1.419" transform="translate(68.621 146.01)" fill="#e6e8ec"/><rect width="24.121" height="1.419" transform="translate(68.621 148.374)" fill="#e6e8ec"/><rect width="26.247" height="1.419" transform="translate(68.621 150.739)" fill="#e6e8ec"/><rect width="26.247" height="1.419" transform="translate(68.621 153.104)" fill="#e6e8ec"/><rect width="32.63" height="24.594" transform="translate(101.372 132.055)" fill="#fff"/><rect width="10.878" height="6.148" transform="translate(104.561 134.186)" fill="#607d8b" opacity="0.2"/><rect width="12.77" height="1.419" transform="translate(118.043 134.186)" fill="#e6e8ec"/><rect width="8.986" height="1.419" transform="translate(118.043 136.55)" fill="#e6e8ec"/><rect width="12.77" height="1.419" transform="translate(118.043 138.915)" fill="#e6e8ec"/><rect width="26.247" height="1.419" transform="translate(104.561 141.28)" fill="#e6e8ec"/><rect width="26.247" height="1.419" transform="translate(104.561 143.645)" fill="#e6e8ec"/><rect width="26.247" height="1.419" transform="translate(104.561 146.01)" fill="#e6e8ec"/><rect width="24.121" height="1.419" transform="translate(104.561 148.374)" fill="#e6e8ec"/><rect width="26.247" height="1.419" transform="translate(104.561 150.739)" fill="#e6e8ec"/><rect width="26.247" height="1.419" transform="translate(104.561 153.104)" fill="#e6e8ec"/><rect width="32.63" height="24.594" transform="translate(137.312 132.055)" fill="#fff"/><rect width="10.878" height="6.148" transform="translate(140.506 134.186)" fill="#607d8b" opacity="0.2"/><rect width="12.77" height="1.419" transform="translate(153.983 134.186)" fill="#e6e8ec"/><rect width="8.986" height="1.419" transform="translate(153.983 136.55)" fill="#e6e8ec"/><rect width="12.77" height="1.419" transform="translate(153.983 138.915)" fill="#e6e8ec"/><rect width="26.247" height="1.419" transform="translate(140.506 141.28)" fill="#e6e8ec"/><rect width="26.247" height="1.419" transform="translate(140.506 143.645)" fill="#e6e8ec"/><rect width="26.247" height="1.419" transform="translate(140.506 146.01)" fill="#e6e8ec"/><rect width="24.121" height="1.419" transform="translate(140.506 148.374)" fill="#e6e8ec"/><rect width="26.247" height="1.419" transform="translate(140.506 150.739)" fill="#e6e8ec"/><rect width="26.247" height="1.419" transform="translate(140.506 153.104)" fill="#e6e8ec"/><rect width="32.63" height="24.594" transform="translate(65.427 159.721)" fill="#fff"/><rect width="10.878" height="6.148" transform="translate(68.621 161.852)" fill="#607d8b" opacity="0.2"/><rect width="12.77" height="1.419" transform="translate(82.098 161.852)" fill="#e6e8ec"/><rect width="8.986" height="1.419" transform="translate(82.098 164.216)" fill="#e6e8ec"/><rect width="12.77" height="1.419" transform="translate(82.098 166.581)" fill="#e6e8ec"/><rect width="26.247" height="1.419" transform="translate(68.621 168.946)" fill="#e6e8ec"/><rect width="26.247" height="1.419" transform="translate(68.621 171.311)" fill="#e6e8ec"/><rect width="26.247" height="1.419" transform="translate(68.621 173.675)" fill="#e6e8ec"/><rect width="24.121" height="1.419" transform="translate(68.621 176.04)" fill="#e6e8ec"/><rect width="26.247" height="1.419" transform="translate(68.621 178.405)" fill="#e6e8ec"/><rect width="26.247" height="1.419" transform="translate(68.621 180.77)" fill="#e6e8ec"/><rect width="32.63" height="24.594" transform="translate(101.372 159.721)" fill="#fff"/><rect width="10.878" height="6.148" transform="translate(104.561 161.852)" fill="#607d8b" opacity="0.2"/><rect width="12.77" height="1.419" transform="translate(118.043 161.852)" fill="#e6e8ec"/><rect width="8.986" height="1.419" transform="translate(118.043 164.216)" fill="#e6e8ec"/><rect width="12.77" height="1.419" transform="translate(118.043 166.581)" fill="#e6e8ec"/><rect width="26.247" height="1.419" transform="translate(104.561 168.946)" fill="#e6e8ec"/><rect width="26.247" height="1.419" transform="translate(104.561 171.311)" fill="#e6e8ec"/><rect width="26.247" height="1.419" transform="translate(104.561 173.675)" fill="#e6e8ec"/><rect width="24.121" height="1.419" transform="translate(104.561 176.04)" fill="#e6e8ec"/><rect width="26.247" height="1.419" transform="translate(104.561 178.405)" fill="#e6e8ec"/><rect width="26.247" height="1.419" transform="translate(104.561 180.77)" fill="#e6e8ec"/><rect width="32.63" height="24.594" transform="translate(137.312 159.721)" fill="#fff"/><rect width="10.878" height="6.148" transform="translate(140.506 161.852)" fill="#607d8b" opacity="0.2"/><rect width="12.77" height="1.419" transform="translate(153.983 161.852)" fill="#e6e8ec"/><rect width="8.986" height="1.419" transform="translate(153.983 164.216)" fill="#e6e8ec"/><rect width="12.77" height="1.419" transform="translate(153.983 166.581)" fill="#e6e8ec"/><rect width="26.247" height="1.419" transform="translate(140.506 168.946)" fill="#e6e8ec"/><rect width="26.247" height="1.419" transform="translate(140.506 171.311)" fill="#e6e8ec"/><rect width="26.247" height="1.419" transform="translate(140.506 173.675)" fill="#e6e8ec"/><rect width="24.121" height="1.419" transform="translate(140.506 176.04)" fill="#e6e8ec"/><rect width="26.247" height="1.419" transform="translate(140.506 178.405)" fill="#e6e8ec"/><rect width="26.247" height="1.419" transform="translate(140.506 180.77)" fill="#e6e8ec"/><rect width="32.63" height="24.594" transform="translate(65.427 188.482)" fill="#fff"/><rect width="10.878" height="6.148" transform="translate(68.621 190.612)" fill="#607d8b" opacity="0.2"/><rect width="12.77" height="1.419" transform="translate(82.098 190.612)" fill="#e6e8ec"/><rect width="8.986" height="1.419" transform="translate(82.098 192.977)" fill="#e6e8ec"/><rect width="12.77" height="1.419" transform="translate(82.098 195.341)" fill="#e6e8ec"/><rect width="26.247" height="1.419" transform="translate(68.621 197.706)" fill="#e6e8ec"/><rect width="26.247" height="1.419" transform="translate(68.621 200.071)" fill="#e6e8ec"/><rect width="26.247" height="1.419" transform="translate(68.621 202.436)" fill="#e6e8ec"/><rect width="24.121" height="1.419" transform="translate(68.621 204.8)" fill="#e6e8ec"/><rect width="26.247" height="1.419" transform="translate(68.621 207.165)" fill="#e6e8ec"/><rect width="26.247" height="1.419" transform="translate(68.621 209.53)" fill="#e6e8ec"/><rect width="32.63" height="24.594" transform="translate(101.372 188.482)" fill="#fff"/><rect width="10.878" height="6.148" transform="translate(104.561 190.612)" fill="#607d8b" opacity="0.2"/><rect width="12.77" height="1.419" transform="translate(118.043 190.612)" fill="#e6e8ec"/><rect width="8.986" height="1.419" transform="translate(118.043 192.977)" fill="#e6e8ec"/><rect width="12.77" height="1.419" transform="translate(118.043 195.341)" fill="#e6e8ec"/><rect width="26.247" height="1.419" transform="translate(104.561 197.706)" fill="#e6e8ec"/><rect width="26.247" height="1.419" transform="translate(104.561 200.071)" fill="#e6e8ec"/><rect width="26.247" height="1.419" transform="translate(104.561 202.436)" fill="#e6e8ec"/><rect width="24.121" height="1.419" transform="translate(104.561 204.8)" fill="#e6e8ec"/><rect width="26.247" height="1.419" transform="translate(104.561 207.165)" fill="#e6e8ec"/><rect width="26.247" height="1.419" transform="translate(104.561 209.53)" fill="#e6e8ec"/><rect width="32.63" height="24.594" transform="translate(137.312 188.482)" fill="#fff"/><rect width="10.878" height="6.148" transform="translate(140.506 190.612)" fill="#607d8b" opacity="0.2"/><rect width="12.77" height="1.419" transform="translate(153.983 190.612)" fill="#e6e8ec"/><rect width="8.986" height="1.419" transform="translate(153.983 192.977)" fill="#e6e8ec"/><rect width="12.77" height="1.419" transform="translate(153.983 195.341)" fill="#e6e8ec"/><rect width="26.247" height="1.419" transform="translate(140.506 197.706)" fill="#e6e8ec"/><rect width="26.247" height="1.419" transform="translate(140.506 200.071)" fill="#e6e8ec"/><rect width="26.247" height="1.419" transform="translate(140.506 202.436)" fill="#e6e8ec"/><rect width="24.121" height="1.419" transform="translate(140.506 204.8)" fill="#e6e8ec"/><rect width="26.247" height="1.419" transform="translate(140.506 207.165)" fill="#e6e8ec"/><rect width="26.247" height="1.419" transform="translate(140.506 209.53)" fill="#e6e8ec"/><rect width="32.63" height="24.594" transform="translate(65.427 216.147)" fill="#fff"/><rect width="10.878" height="6.148" transform="translate(68.621 218.278)" fill="#607d8b" opacity="0.2"/><rect width="12.77" height="1.419" transform="translate(82.098 218.278)" fill="#e6e8ec"/><rect width="8.986" height="1.419" transform="translate(82.098 220.642)" fill="#e6e8ec"/><rect width="12.77" height="1.419" transform="translate(82.098 223.007)" fill="#e6e8ec"/><rect width="26.247" height="1.419" transform="translate(68.621 225.372)" fill="#e6e8ec"/><rect width="26.247" height="1.419" transform="translate(68.621 227.737)" fill="#e6e8ec"/><rect width="26.247" height="1.419" transform="translate(68.621 230.102)" fill="#e6e8ec"/><rect width="24.121" height="1.419" transform="translate(68.621 232.466)" fill="#e6e8ec"/><rect width="26.247" height="1.419" transform="translate(68.621 234.831)" fill="#e6e8ec"/><rect width="26.247" height="1.419" transform="translate(68.621 237.196)" fill="#e6e8ec"/><rect width="32.63" height="24.594" transform="translate(101.372 216.147)" fill="#fff"/><rect width="10.878" height="6.148" transform="translate(104.561 218.278)" fill="#607d8b" opacity="0.2"/><rect width="12.77" height="1.419" transform="translate(118.043 218.278)" fill="#e6e8ec"/><rect width="8.986" height="1.419" transform="translate(118.043 220.642)" fill="#e6e8ec"/><rect width="12.77" height="1.419" transform="translate(118.043 223.007)" fill="#e6e8ec"/><rect width="26.247" height="1.419" transform="translate(104.561 225.372)" fill="#e6e8ec"/><rect width="26.247" height="1.419" transform="translate(104.561 227.737)" fill="#e6e8ec"/><rect width="26.247" height="1.419" transform="translate(104.561 230.102)" fill="#e6e8ec"/><rect width="24.121" height="1.419" transform="translate(104.561 232.466)" fill="#e6e8ec"/><rect width="26.247" height="1.419" transform="translate(104.561 234.831)" fill="#e6e8ec"/><rect width="26.247" height="1.419" transform="translate(104.561 237.196)" fill="#e6e8ec"/><rect width="32.63" height="24.594" transform="translate(137.312 216.147)" opacity="0.1"/><path d="M186.767,442.62h-56.6a5.6,5.6,0,0,0-5.609,5.586V572.147a5.6,5.6,0,0,0,5.609,5.586h56.6a5.6,5.6,0,0,0,5.609-5.586V448.209A5.6,5.6,0,0,0,186.767,442.62Z" transform="translate(-97.985 -290.908)" fill="url(#a)"/><rect width="66.78" height="133.561" rx="11" transform="translate(27.095 152.752)" fill="#535461"/><rect width="56.942" height="108.709" transform="translate(32.012 165.174)" fill="#f1f1f4"/><circle cx="0.516" cy="0.516" r="0.516" transform="translate(53.236 158.447)" fill="#fff"/><rect width="11.39" height="1.036" rx="0.518" transform="translate(56.343 158.443)" fill="#fff"/><circle cx="3.623" cy="3.623" r="3.623" transform="translate(56.601 275.439)" fill="#fff"/><rect width="38.829" height="29.265" transform="translate(41.068 171.682)" opacity="0.1"/><rect width="38.829" height="29.265" transform="translate(41.068 204.605)" fill="#fff"/><rect width="12.942" height="7.317" transform="translate(44.868 207.138)" fill="#607d8b" opacity="0.2"/><rect width="15.193" height="1.689" transform="translate(60.905 207.138)" fill="#e6e8ec"/><rect width="10.694" height="1.689" transform="translate(60.905 209.952)" fill="#e6e8ec"/><rect width="15.193" height="1.689" transform="translate(60.905 212.762)" fill="#e6e8ec"/><rect width="31.235" height="1.689" transform="translate(44.868 215.577)" fill="#e6e8ec"/><rect width="31.235" height="1.689" transform="translate(44.868 218.391)" fill="#e6e8ec"/><rect width="31.235" height="1.689" transform="translate(44.868 221.205)" fill="#e6e8ec"/><rect width="28.702" height="1.689" transform="translate(44.868 224.02)" fill="#e6e8ec"/><rect width="31.235" height="1.689" transform="translate(44.868 226.834)" fill="#e6e8ec"/><rect width="31.235" height="1.689" transform="translate(44.868 229.648)" fill="#e6e8ec"/><rect width="38.829" height="29.265" transform="translate(41.068 237.595)" fill="#fff"/><rect width="12.942" height="7.317" transform="translate(44.868 240.127)" fill="#607d8b" opacity="0.2"/><rect width="15.193" height="1.689" transform="translate(60.905 240.127)" fill="#e6e8ec"/><rect width="10.694" height="1.689" transform="translate(60.905 242.942)" fill="#e6e8ec"/><rect width="15.193" height="1.689" transform="translate(60.905 245.756)" fill="#e6e8ec"/><rect width="31.235" height="1.689" transform="translate(44.868 248.57)" fill="#e6e8ec"/><rect width="31.235" height="1.689" transform="translate(44.868 251.384)" fill="#e6e8ec"/><rect width="31.235" height="1.689" transform="translate(44.868 254.199)" fill="#e6e8ec"/><rect width="28.702" height="1.689" transform="translate(44.868 257.013)" fill="#e6e8ec"/><rect width="31.235" height="1.689" transform="translate(44.868 259.823)" fill="#e6e8ec"/><rect width="31.235" height="1.689" transform="translate(44.868 262.638)" fill="#e6e8ec"/><path d="M432.137,641.648c-2.627-3.186-5.808-6.848-5.363-11.089.36-3.436-.5-6.61-.332-10.053.242-4.894-.747-8.728-4.272-11.867-2.06-1.833-5.5-3.276-6.528-2.908-2.033.727-4.249.449-6.34.938a6.419,6.419,0,0,0-3.3,1.657c-1.317,1.173-1.341,2.838-.739,4.616a7.794,7.794,0,0,0,3.862,10.944c-1.466.61-2.736,2.021-3.225,4.882a33.389,33.389,0,0,1-1.563,5.769,9.392,9.392,0,0,1-.954.391c.07.027.145.047.219.074-.152.059-.309.117-.461.172a5.033,5.033,0,0,0,.868.25,33.154,33.154,0,0,1-4.26,7.767s-4.425.977-6.145-.731c0,0,.281.328.661.821-1.685-.7-4.444-1.837-6.805-2.775-1.712-.68-2.154,0-2.13.946a3.163,3.163,0,0,0-1.2.391,11.541,11.541,0,0,0-1.587-.852c-.985-.242-4.178-1.954-7.376,3.909-1.861,3.412-6.645,9.635-10.3,14.243-7.133,3.279-16.417,7.427-19.864,8.478h-2.2c-.289-.473-.493-.782-.493-.782l-.172.113-.074-.113s-4.343,3.006-8.752,3.029a8.3,8.3,0,0,1-1.861-.242,18.247,18.247,0,0,0-4.475-.719,2.64,2.64,0,0,0-2.318.805h0a2.126,2.126,0,0,0-.152.223h0a2.623,2.623,0,0,0-.129.246h0c-.039.086-.074.176-.109.27a.551.551,0,0,0,.137.461,2.476,2.476,0,0,0,.192.242l.121.133a19.542,19.542,0,0,0,2.826,2.185c.363.246.747.5,1.149.754l.762.485.68.426.274.168.3.188.543.332.324.2.61.364.492.293c1.29.782,2.58,1.5,3.737,2.154l.813.457.078.043.52.289.9.5.621.34.289.16.313.168.063.035.539.293a.782.782,0,0,0,.629-.172c.156-.664.539-2.087.946-2.2s2.181-3.221,2.685-5.292h4.8a21.159,21.159,0,0,0,2.8-.426c-1.239.883-2.466,1.438-3.42,1.2-2.017-.5-3.928.727-4.12,1.954l-.023.074v.563a.163.163,0,0,0,.023.1c.023.031,0,.043,0,.063a1.188,1.188,0,0,0,.051.125v.031a1.285,1.285,0,0,0,.09.149l.039.051.078.1.055.055.09.086.066.055.106.078.078.051.129.074.086.047.16.074.082.035c.086.035.176.07.274.1s.336.1.543.152l.207.051.3.07.16.035.657.133.321.059.262.047.6.106,1.173.192,1.036.156,1.349.192.3.039.485.066.7.094.477.063h0l1.231.156.391.047.782.094c1.02.121,2.009.238,2.916.34l1.051.117.532.059.227.023.637.07.356.039.434.047.614.063h.066l.391.039h0a.356.356,0,0,0,.391-.348h0v-.039a.348.348,0,0,0,.059-.188,8.072,8.072,0,0,1,.219-1.735c.027-.1.059-.2.09-.3l.039-.113c.043-.121.086-.242.137-.367a2.635,2.635,0,0,0,.09-.27l.023-.086a.737.737,0,0,1,.035-.148c.5-1.689-.1-4.835-.274-6.07a6.6,6.6,0,0,0-.27-1.173.472.472,0,0,0,.094,0,2.8,2.8,0,0,0,.711-.391c3.623-1.294,6.684-2.771,7.649-4.253a6.621,6.621,0,0,1,4.69.489c1.876.934,16.077,5.566,22.69,7.708,1.173,1.024,2.118,1.622,2.631,1.563,0,0,8.415,1.36,11.8-1.3.3.207.489.32.489.32s4.917-2.443,5.656-5.617c.238-1.028.453-2.549.672-4.229a6.149,6.149,0,0,0,1.786-4.323c.152-5.335,2.22-11.429,3.752-16.858a6.751,6.751,0,0,0,4.3-1.047l-.074-.1Zm-28.19,7.989-.938-.317a7.817,7.817,0,0,0,.817-1.36Zm-5.292,2.244,5.7,3.42.051.7a4.992,4.992,0,0,0,.047,1.591c-2.509-2.232-5.449-4.941-5.793-5.707Zm-2.326-4.98c-.621-.258-1.137-.489-1.489-.68l1.321.082a2.952,2.952,0,0,1,.172.6Zm-15.244,5.57s.985-2.2,3.2,1.466c.344.571.977,1.474,1.814,2.6l-6.434-.864a9.381,9.381,0,0,0,1.415-3.2Z" transform="translate(-219.629 -390.228)" fill="url(#d)"/><path d="M490.071,697.218s-4.511-1.9-8.068-3.322-1.423,3.322-1.423,3.322,5.933,1.661,5.933,1.9,4.984.473,4.984.473Z" transform="translate(-314.461 -443.805)" fill="#f7c4a7"/><path d="M490.071,697.218s-4.511-1.9-8.068-3.322-1.423,3.322-1.423,3.322,5.933,1.661,5.933,1.9,4.984.473,4.984.473Z" transform="translate(-314.461 -443.805)" opacity="0.05"/><path d="M521.729,653.138s-8.068-4.272-9.494,4.034a33.908,33.908,0,0,1-5.922,14s-4.272.95-5.933-.711c0,0,4.034,4.745,2.134,5.222,0,0,4.272,3.084,6.172,2.134s3.322-7.356,4.034-9.017S516.042,652.661,521.729,653.138Z" transform="translate(-326.908 -418.471)" fill="#575988"/><path d="M521.729,653.138s-8.068-4.272-9.494,4.034a33.908,33.908,0,0,1-5.922,14s-4.272.95-5.933-.711c0,0,4.034,4.745,2.134,5.222,0,0,4.272,3.084,6.172,2.134s3.322-7.356,4.034-9.017S516.042,652.661,521.729,653.138Z" transform="translate(-326.908 -418.471)" opacity="0.1"/><path d="M543.49,637.9s4.984,5.7,5.222,10.44,5.7-4.984,6.172-5.222-4.749-8.3-5.226-10.909S543.49,637.9,543.49,637.9Z" transform="translate(-353.168 -406.084)" fill="#f7c4a7"/><path d="M490.8,598.67l-3.143,2.846,1.481,5.992,4.034-3.8-.473-3.8Z" transform="translate(-297.041 -364.417)" fill="#f7c4a7"/><path d="M319.327,706.59H313.87L316,711.808l5.222-1.423Z" transform="translate(-191.18 -430.155)" fill="#f7c4a7"/><path d="M346.881,759.78s-5.644,3.936-10.479,2.709-6.141-.782-6.7.817c-.52,1.454,13.489,9.15,15.721,10.366a.254.254,0,0,0,.391-.168c.152-.645.52-2.029.911-2.134.512-.137,2.853-4.5,2.736-6.227S346.881,759.78,346.881,759.78Z" transform="translate(-222.932 -484.099)" opacity="0.1"/><path d="M346.281,759.78s-5.644,3.936-10.479,2.709-6.141-.782-6.7.817c-.52,1.454,13.489,9.15,15.721,10.366a.254.254,0,0,0,.391-.168c.152-.645.52-2.029.911-2.134.512-.137,2.853-4.5,2.736-6.227S346.281,759.78,346.281,759.78Z" transform="translate(-222.567 -484.099)" fill="#f3b5b7"/><path d="M422.592,732.274l-15.9-2.134s-25.868,12.34-28.952,12.578l.711,5.472H383.2c1.9,0,20.407-4.034,23.018-8.068a6.355,6.355,0,0,1,4.511.473c2.373,1.173,25.156,8.544,25.156,8.544Z" transform="translate(-252.204 -466.044)" fill="#575988"/><path d="M422.592,732.274l-15.9-2.134s-25.868,12.34-28.952,12.578l.711,5.472H383.2c1.9,0,20.407-4.034,23.018-8.068a6.355,6.355,0,0,1,4.511.473c2.373,1.173,25.156,8.544,25.156,8.544Z" transform="translate(-252.204 -466.044)" opacity="0.1"/><path d="M359.581,699.3l-2.611,3.322,2.611,1.423,3.8-2.846Z" transform="translate(-217.434 -425.714)" fill="#f7c4a7"/><path d="M464.11,714.114s-8.537-7.309-9.135-8.638-14.6-10.342-15.545-10.581-4.034-1.9-7.118,3.8-14.462,19.458-14.462,19.458,3.561,4.984,4.745,4.745,14.462-11.39,15.424-16.85c0,0,.95-2.134,3.084,1.423s15.9,20.646,18.512,20.407c0,0,10.206,1.661,12.34-2.373S464.11,714.114,464.11,714.114Z" transform="translate(-276.637 -444.327)" fill="#575988"/><rect width="35.534" height="26.779" transform="translate(149.543 231.473)" fill="url(#e)"/><rect width="32.63" height="24.594" transform="translate(150.993 232.564)" fill="#fff"/><rect width="10.878" height="6.148" transform="translate(154.186 234.694)" fill="#607d8b" opacity="0.2"/><rect width="12.77" height="1.419" transform="translate(167.664 234.694)" fill="#e6e8ec"/><rect width="8.986" height="1.419" transform="translate(167.664 237.059)" fill="#e6e8ec"/><rect width="12.77" height="1.419" transform="translate(167.664 239.424)" fill="#e6e8ec"/><rect width="26.247" height="1.419" transform="translate(154.186 241.789)" fill="#e6e8ec"/><rect width="26.247" height="1.419" transform="translate(154.186 244.153)" fill="#e6e8ec"/><rect width="26.247" height="1.419" transform="translate(154.186 246.518)" fill="#e6e8ec"/><rect width="24.121" height="1.419" transform="translate(154.186 248.883)" fill="#e6e8ec"/><rect width="26.247" height="1.419" transform="translate(154.186 251.248)" fill="#e6e8ec"/><rect width="26.247" height="1.419" transform="translate(154.186 253.612)" fill="#e6e8ec"/><path d="M535.127,655.181s-2.967,1.306-3.205,6.762-5.472,14.712-5.472,14.712l.473,10.917s5.7,5.695,6.172,9.256,4.515,5.933,4.515,5.933,4.745-2.373,5.472-5.472,1.173-10.679,2.373-13.528.473-20.646.473-20.646l-3.561-6.172-1.9-2.134-4.984,5.7S532.755,656.839,535.127,655.181Z" transform="translate(-342.788 -420.159)" fill="#f3b5b7"/><path d="M527.408,684.517s-.711-8.544,1.423-10.44L533.1,661.96s1.544-5.812,1.306-6.289-5.578,4.628-5.578,4.628l-3.561,12.578.95,13.29Z" transform="translate(-342.069 -420.664)" opacity="0.1"/><path d="M526.8,684.336s-.711-8.544,1.423-10.44l4.272-12.117s1.661-5.933,1.423-6.406-5.7,4.745-5.7,4.745L524.66,672.7l.95,13.29Z" transform="translate(-341.698 -420.483)" fill="#575988"/><path d="M497.2,705.654s-11.875-3.8-12.578-4.745-8.306-7.118-10.917-2.849,9.729,5.472,9.729,5.472l12.578,7.595Z" transform="translate(-310.438 -445.596)" fill="#f7c4a7"/><path d="M396.212,761.873l-3.518-.633s-5.754,7.368-8.748,6.621-5.754,2.478-2.588,3.518c2.861.934,15.209,2.244,17.57,2.486a.344.344,0,0,0,.391-.336,7.557,7.557,0,0,1,.524-2.674c.633-1.563,0-4.894-.176-6.16a6.129,6.129,0,0,0-.692-2.13Z" transform="translate(-253.553 -484.988)" opacity="0.1"/><path d="M396.048,762.463l-3.518-.633s-5.746,7.372-8.759,6.621-5.754,2.478-2.588,3.518c2.861.934,15.209,2.244,17.57,2.486a.344.344,0,0,0,.391-.336,7.556,7.556,0,0,1,.524-2.674c.633-1.563,0-4.894-.176-6.16a6.13,6.13,0,0,0-.692-2.13Z" transform="translate(-253.443 -485.348)" fill="#f3b5b7"/><circle cx="7.595" cy="7.595" r="7.595" transform="translate(184.506 219.36)" opacity="0.1"/><circle cx="7.595" cy="7.595" r="7.595" transform="translate(183.795 219.36)" fill="#f7c4a7"/><path d="M549.229,654.24s9.017,3.084,9.017,9.494-4.984,16.612-5.222,24.918-13.29,7.118-13.29,7.118-1.9-28,0-30.14S550.178,655.19,549.229,654.24Z" transform="translate(-350.366 -419.811)" fill="#575988"/><path d="M540.28,678.537s-3.322,14.712-11.155,12.117c0,0-4.034,5.933-1.173,8.544,0,0,6.883,1.661,11.39-2.849s7.821-6.18,8.533-11.652,1.173-13.051-1.173-12.34S540.28,678.537,540.28,678.537Z" transform="translate(-343.078 -430.819)" opacity="0.1"/><path d="M540.89,677.964s-3.322,14.712-11.155,12.117c0,0-4.034,5.933-1.173,8.544,0,0,6.883,1.661,11.39-2.849s7.817-6.172,8.544-11.628,1.173-13.051-1.173-12.34S540.89,677.964,540.89,677.964Z" transform="translate(-343.45 -430.484)" fill="#575988"/><path d="M430.544,784.48a.075.075,0,0,1-.023.066,6.95,6.95,0,0,0-.391,1.255,4.633,4.633,0,0,1,.2-.567,3.443,3.443,0,0,0,.215-.754Z" transform="translate(-284.117 -499.144)" fill="#dddbe2"/><path d="M381.421,783.813c-.977-.321-1.388-.848-1.4-1.4-.391.782-.149,1.642,1.231,2.1,2.861.934,15.213,2.244,17.57,2.486a.344.344,0,0,0,.391-.34h0a.348.348,0,0,0-.309-.352C396.3,786.018,384.243,784.732,381.421,783.813Z" transform="translate(-253.489 -497.884)" fill="#dddbe2"/><path d="M329.416,766.944a2.926,2.926,0,0,1,.231-.5,2.314,2.314,0,0,0-.559.922c-.52,1.454,13.489,9.146,15.721,10.366a.258.258,0,0,0,.391-.168h0a.258.258,0,0,0-.125-.285C342.6,775.923,328.9,768.383,329.416,766.944Z" transform="translate(-222.561 -488.156)" fill="#dddbe2"/><path d="M372.893,788.183c-.125.035-.25.2-.363.434h.039c.1-.027.281-.231.5-.547a.461.461,0,0,1-.176.113Z" transform="translate(-249.031 -501.331)" fill="#dddbe2"/><path d="M531.593,625.5a40.86,40.86,0,0,0-1.3,4.69,10.307,10.307,0,0,1-6.352,6.59c2.466.985,5.374-.219,7.282-2.212s3.021-4.647,4.092-7.227c2.767,1.86,2.431,6.137,3.358,9.467a10.5,10.5,0,0,0,5.589,6.68,10.006,10.006,0,0,0,8.56-.172c-2.537-3.1-6.148-7.341-5.718-11.46.348-3.338-2.048-5.887-1.88-9.232.234-4.753-1.564-7.157-4.984-10.206-1.99-1.782,1.141-4.3-1.423-3.561-1.008.289-2.072-.782-3.06-.434-1.954.7-4.1.438-6.117.911C519.152,611.786,532.563,623.344,531.593,625.5Z" transform="translate(-341.259 -391.859)" opacity="0.1"/><path d="M532.2,624.775a40.844,40.844,0,0,0-1.3,4.69,10.307,10.307,0,0,1-6.352,6.59c2.466.985,5.375-.219,7.282-2.212s3.021-4.647,4.092-7.227c2.767,1.861,2.431,6.137,3.358,9.467a10.5,10.5,0,0,0,5.589,6.68,10.006,10.006,0,0,0,8.56-.172c-2.537-3.1-5.91-6.645-5.472-10.749.348-3.338-.172-6.766,0-10.112a15.973,15.973,0,0,0-5.5-12.379,7.467,7.467,0,0,0-6.086-1.653c-1.954.7-4.1.438-6.117.911C519.762,611.067,533.18,622.622,532.2,624.775Z" transform="translate(-341.631 -391.375)" fill="#b96b6b"/><path d="M209.64,580c13.68-4.21,21.756-3.862,21.756-3.862l-1.122-6.359a4.81,4.81,0,0,0,.946-.833s-1.4-7.72,0-9.651,5.265-19.473,5.265-19.473v-5.969c7.036-2.455,15.264-16.667,15.264-16.667L262.1,543.848s10.35,20.529,11.754,21.228c1.122.559,1.681,5.152,1.864,6.977l-.086.027c.043.442.063.715.063.715l.082-.055v.055a4.028,4.028,0,0,1,.547-.32,90.437,90.437,0,0,1-7.563,7.864c-1.388,1.216,1.1,2.154,2.267,2.134a5.714,5.714,0,0,1,1.954.278c5.9,2.036,15.6-5.4,15.6-5.4l-2.427-6.77c.633-.051,1.024-.074,1.024-.074s-7.9-27.721-11.582-30.355a16.81,16.81,0,0,1-3.127-2.963,10.944,10.944,0,0,1-2.474-7.6l1.294-22.745c2.079-.3,3.42-.559,3.42-.559s.485-6.215.469-10.983a19.382,19.382,0,0,0-.469-5.511,15.765,15.765,0,0,1-.578-5.05c0-2.736.227-5.3.227-5.3s2.806-3.686,6.668-12.117a20.215,20.215,0,0,0,2.1-8.748,11.933,11.933,0,0,0-.281-2.916,3.655,3.655,0,0,0-1.653-2.294c-2.22-1.36-7.274-4.718-8.763-7.97-1.892-4.128-4.624-4.714-4.733-4.737l-.168-.727a6.821,6.821,0,0,0,2.2-3.33c.571-1.759.688-3.635,1.173-5.421.235-.86.559-1.692.782-2.552a10.08,10.08,0,0,0,.317-2.65,8.208,8.208,0,0,0-.782-3.772,6.328,6.328,0,0,0-4.769-3.573c-1.134-.133-2.388.063-3.318-.6-.641-.457-.977-1.235-1.564-1.778-1.114-1.055-2.9-1-4.346-.508a9.26,9.26,0,0,0-4.753,3.7,19.33,19.33,0,0,1-2.017,3.127,29.6,29.6,0,0,1-2.494,1.888A5.081,5.081,0,0,0,246,428.377v.352a3.478,3.478,0,0,0,2.568,3.315,3.79,3.79,0,0,0,1.173.031,9.475,9.475,0,0,0,7.032,11.71c-.023.125-.051.25-.078.391h.082a13.546,13.546,0,0,1-.633,1.782h-.113l.285-.508-4.026-.278a6.746,6.746,0,0,0-3.408.637,5.14,5.14,0,0,0-3.092,4.378c-.352,4.542-8.951,11.382-8.951,11.382-2.982,4.737-22.459,5.613-22.459,5.613s.086.109.125.168l-.391-.074-1.474-.27s-4.561-13.508-8.947-11.054,7.544,15.791,7.544,15.791l3.447.231.348.023a21.053,21.053,0,0,1-.543,2.591h0c-.047.172-.082.281-.09.309h0a145.355,145.355,0,0,1,16.772-.879h.7l.493-.023c.391,4.233,6.426,12.836,6.426,12.836l3.725.782.281.059a31.146,31.146,0,0,1-4.534,6.875l-1.227,6.844.1-.023-.1.551a1.326,1.326,0,0,0,.567-.3c-2.4,6.379-6.391,16.307-9.162,19.77-4.21,5.265-3.686,13.68-3.686,13.68s-4.21,22.108-4.034,26.141a10.4,10.4,0,0,1-1.52,5.523,18.263,18.263,0,0,0-2.165,3.076c-3.158,5.441-8.247,5.081-8.247,5.081C204.394,577.717,209.64,580,209.64,580Zm27.1-107.017h0l.453-.18.106-.043.434-.188.074-.035.391-.18.086-.039.414-.207.1-.051.391-.207h.031l.391-.227.094-.055.391-.227.063-.039.34-.207.078-.047.364-.231.082-.055.336-.223.031-.02.344-.238.078-.055.328-.235.051-.035.289-.211.063-.047.3-.231.063-.047.274-.215h.023l.278-.223.059-.047.262-.215.023-.02.235-.2.039-.035.231-.2.035-.031.211-.192h0l.2-.184.027-.027.391-.391.571-.047a5.379,5.379,0,0,1,.7,3.021,39.829,39.829,0,0,1-1.048,7.329,22.854,22.854,0,0,1-1.04,5.918,3.486,3.486,0,0,1-1.239-.3s-.023.125-.059.336l-.336-.086-1.708-.426S239.612,475.969,236.739,472.983Z" transform="translate(-145.596 -274.335)" fill="url(#f)"/><path d="M385.765,801.79l3.256,9.072s-8.916,6.84-14.708,5.425a16.185,16.185,0,0,0-2.658-.43c-1.2-.09-3.264-.962-1.99-2.076a109.388,109.388,0,0,0,9.592-10.276Z" transform="translate(-247.041 -509.688)" fill="#4f4d59"/><path d="M238.309,796.351l1.54,8.736s-7.88-.344-21.24,3.768c0,0-5.14-2.228-.856-4.968a9.162,9.162,0,0,0,8.052-4.968c3.084-5.312,4.968-4.624,4.968-4.624Z" transform="translate(-153.713 -505.105)" fill="#4f4d59"/><path d="M295.616,612.037l-1.509,26.579a11,11,0,0,0,2.623,7.774,16.116,16.116,0,0,0,2.83,2.638c3.6,2.568,11.3,29.632,11.3,29.632s-8.736.512-11.132,2.228c0,0-.512-6.852-1.884-7.536s-11.476-20.716-11.476-20.716L276.26,626.6s-8.052,13.876-14.9,16.272v5.824s-3.768,17.128-5.14,19.012,0,9.42,0,9.42-3.94,4.968-13.016-.344c0,0,2.912-3.256,2.736-7.2s3.948-25.516,3.948-25.516-.512-8.208,3.6-13.36,10.944-24.836,10.944-24.836l4.714-10.143Z" transform="translate(-170.252 -384.171)" fill="#787c9c"/><g transform="translate(79.753 211.566)" opacity="0.1"><path d="M349.016,678.681s-7.708-27.064-11.3-29.632a16.32,16.32,0,0,1-2.974-2.81,10.87,10.87,0,0,1-2.474-7.6l1.509-26.579L308.51,596.489l.344-.739,26.458,16.307L333.8,638.636a10.87,10.87,0,0,0,2.474,7.6,16.319,16.319,0,0,0,2.975,2.81c3.6,2.568,11.3,29.632,11.3,29.632s-8.736.512-11.132,2.228c0,0-.02-.266-.063-.7C342.731,679.052,349.016,678.681,349.016,678.681Z" transform="translate(-289.787 -595.75)"/><path d="M265.2,725.258s-1.372-7.536,0-9.42,5.14-19.012,5.14-19.012V691c6.852-2.4,14.9-16.272,14.9-16.272l.6,1.544c-2.322,3.682-8.517,12.824-13.958,14.728v5.824s-3.768,17.128-5.14,19.012,0,9.42,0,9.42-1.911,2.4-6.133,2.079A6.746,6.746,0,0,0,265.2,725.258Z" transform="translate(-260.61 -643.859)"/></g><path d="M213.571,536.692l3.365.223,1.775.117v-4.3l-2.345-.422-1.442-.262s-4.452-13.188-8.736-10.792S213.571,536.692,213.571,536.692Z" transform="translate(-147.131 -338.63)" fill="#714b4f"/><path d="M344.306,470.93s2.228,8.564,2.912,13.876-15.928,1.028-15.928,1.028,6.336-7.708,2.736-11.82Z" transform="translate(-223.91 -308.152)" fill="#714b4f"/><path d="M316.71,516.706l-.344,3.256,5.308-.344,5.308-4.624,5.308-14.9,3.432-5.3,2.568-3.256-1.028-3.94s-.469.391-1.263,1.016c-2.607,2-8.728,6.145-13.2,5a5.324,5.324,0,0,1-.61-.192l-6.68,11.476Z" transform="translate(-214.298 -318.3)" fill="#e6e6f0"/><path d="M286.512,485s2.736.512,4.624,4.624c1.45,3.162,6.34,6.422,8.525,7.763a3.655,3.655,0,0,1,1.657,2.31c.442,1.954.61,5.589-1.79,10.827-3.768,8.208-6.508,11.82-6.508,11.82s-.684,8.208.344,10.62,0,15.588,0,15.588-17.98,3.424-23.98,0-5.14-16.647-5.14-16.647-5.652,12-7.7,12.344l1.173-6.68s6.68-7.2,7.036-16.444c0,0,2.056-8.392.344-10.62,0,0-28.948,2.4-30.66.344,0,0,19.012-.856,21.924-5.472,0,0,8.392-6.68,8.736-11.132a4.925,4.925,0,0,1,2.568-4.034,6.707,6.707,0,0,1,3.838-.856l3.87.266s-6.676,11.8-6.32,13.36-.344,14.044-.344,14.044,7.708-16.616,11.132-18.5,7.352-9.615,7.352-9.615L286.512,485" transform="translate(-164.916 -316.723)" opacity="0.1"/><path d="M316.71,516.706l-.344,3.256,5.308-.344,5.308-4.624,5.308-14.9,3.432-5.3,2.568-3.256-1.028-3.94s-.469.391-1.263,1.016l.235,1.352s-3.94,7.735-7.364,9.619-11.132,18.5-11.132,18.5.684-12.508.344-14.044c-.235-1.048,2.767-6.821,4.718-10.428a5.324,5.324,0,0,1-.61-.192l-6.68,11.476Z" transform="translate(-214.298 -318.3)" opacity="0.1"/><path d="M234.271,554.6l1.775.117v-4.3L233.7,550C234.525,551.094,234.5,552.994,234.271,554.6Z" transform="translate(-164.466 -356.316)" opacity="0.1"/><path d="M286.512,483.64s2.736.512,4.624,4.624c1.45,3.162,6.34,6.422,8.525,7.763a3.655,3.655,0,0,1,1.657,2.31c.442,1.954.61,5.589-1.79,10.827-3.768,8.208-6.508,11.82-6.508,11.82s-.684,8.208.344,10.62,0,15.588,0,15.588-17.98,3.424-23.98,0-5.14-16.616-5.14-16.616-5.652,11.988-7.7,12.328l1.173-6.68s6.68-7.2,7.036-16.444c0,0,2.056-8.392.344-10.62,0,0-6.68,7.2-14.216,7.036a144.716,144.716,0,0,0-16.444.856s1.712-5.472,0-7.536c0,0,19.012-.856,21.924-5.472,0,0,8.392-6.68,8.736-11.132a4.925,4.925,0,0,1,2.572-4.049,6.707,6.707,0,0,1,3.838-.856l3.87.266s-6.68,11.812-6.324,13.352-.344,14.044-.344,14.044,7.708-16.616,11.132-18.5,7.364-9.619,7.364-9.619l-.684-3.909" transform="translate(-164.916 -315.894)" fill="#67647e"/><path d="M333.534,529.65s-4.112,13.876-6.508,15.588-16.956,10.448-21.24,8.392c0,0-1.028,5.14.512,6.336,0,0,15.971-.625,16.1-.684,0,0,10.448-1.372,12.16-6.508s3.768-13.876,3.768-13.876Z" transform="translate(-208.171 -343.92)" opacity="0.1"/><ellipse cx="0.598" cy="0.856" rx="0.598" ry="0.856" transform="translate(102.842 199.692)" fill="#ba7855"/><ellipse cx="0.598" cy="0.856" rx="0.598" ry="0.856" transform="translate(101.13 205.688)" fill="#ba7855"/><g transform="translate(69.524 167.726)" opacity="0.1"><path d="M352.12,546.985s1.028-13.188,0-15.588-.344-10.62-.344-10.62,2.736-3.6,6.508-11.82c2.4-5.238,2.228-8.873,1.79-10.827a3.655,3.655,0,0,0-1.661-2.31c-2.185-1.341-7.075-4.6-8.521-7.763a8.9,8.9,0,0,0-3.361-4.077l-.066-.391s2.736.512,4.624,4.624c1.45,3.162,6.34,6.422,8.521,7.763a3.655,3.655,0,0,1,1.661,2.31c.442,1.954.61,5.589-1.79,10.827-3.768,8.208-6.508,11.82-6.508,11.82s-.684,8.208.344,10.62,0,15.588,0,15.588-12.848,2.447-20.446,1.137C340.547,549.19,352.12,546.985,352.12,546.985Z" transform="translate(-294.397 -483.59)"/><path d="M320.6,508.672c.235,1.055,0,7.262-.192,11.062-.829,1.693-1.349,2.81-1.349,2.81s.684-12.508.344-14.044c-.324-1.466,5.691-12.215,6.289-13.29l1.247.086S320.244,507.132,320.6,508.672Z" transform="translate(-285.984 -490.668)"/><path d="M249.684,555.5c7.536.172,14.216-7.036,14.216-7.036a2.737,2.737,0,0,1,.434.93c-1.954,1.841-7.427,6.4-13.45,6.254a141.713,141.713,0,0,0-16.444.856s.035-.113.09-.309a136.336,136.336,0,0,1,15.154-.7Z" transform="translate(-234.44 -523.104)"/><path d="M297.478,603.27s-.07,1.071-.031,2.677c-1.782,3.518-5.027,9.584-6.477,9.826l.254-1.407C293.718,611.236,297.478,603.27,297.478,603.27Z" transform="translate(-268.874 -556.491)"/></g><rect width="40.944" height="30.855" transform="translate(59.166 171.279)" fill="url(#a)"/><rect width="38.829" height="29.265" transform="translate(60.221 172.073)" fill="#fff"/><rect width="12.942" height="7.317" transform="translate(64.02 174.606)" fill="#607d8b" opacity="0.2"/><rect width="15.193" height="1.689" transform="translate(80.058 174.606)" fill="#e6e8ec"/><rect width="10.694" height="1.689" transform="translate(80.058 177.42)" fill="#e6e8ec"/><rect width="15.193" height="1.689" transform="translate(80.058 180.234)" fill="#e6e8ec"/><rect width="31.235" height="1.689" transform="translate(64.02 183.048)" fill="#e6e8ec"/><rect width="31.235" height="1.689" transform="translate(64.02 185.863)" fill="#e6e8ec"/><rect width="31.235" height="1.689" transform="translate(64.02 188.673)" fill="#e6e8ec"/><rect width="28.702" height="1.689" transform="translate(64.02 191.487)" fill="#e6e8ec"/><rect width="31.235" height="1.689" transform="translate(64.02 194.302)" fill="#e6e8ec"/><rect width="31.235" height="1.689" transform="translate(64.02 197.116)" fill="#e6e8ec"/><path d="M285.548,575.863l3.639.782,2.869.59-1.54-4.3-1.071-.27-1.669-.414s-2.4-11.98-7.192-11.12S285.548,575.863,285.548,575.863Z" transform="translate(-192.217 -363.069)" fill="#714b4f"/><path d="M304.625,594.673l2.869.606-1.54-4.3-1.071-.27A17.107,17.107,0,0,0,304.625,594.673Z" transform="translate(-207.654 -381.114)" opacity="0.1"/><path d="M333.534,528.78s-4.112,13.876-6.508,15.588-16.956,10.448-21.24,8.392c0,0-1.028,5.14.512,6.336,0,0,15.971-.625,16.1-.684,0,0,10.448-1.372,12.16-6.508s3.768-13.876,3.768-13.876Z" transform="translate(-208.171 -343.39)" fill="#67647e"/><path d="M348.13,471.81s.348,1.341.813,3.291a9.244,9.244,0,0,1-10.21,4.69,5.334,5.334,0,0,0-.883-4.913Z" transform="translate(-227.906 -308.688)" opacity="0.1"/><circle cx="9.248" cy="9.248" r="9.248" transform="translate(103.784 152.506)" fill="#714b4f"/><path d="M318.079,437.225a4.952,4.952,0,0,1-2.064.125,3.39,3.39,0,0,1-2.505-3.236,4.972,4.972,0,0,1,1.907-3.819c.782-.653,1.72-1.118,2.435-1.845a17.264,17.264,0,0,0,1.954-3.045,9.041,9.041,0,0,1,4.644-3.612,4.238,4.238,0,0,1,4.245.5c.559.528.887,1.29,1.513,1.735.907.645,2.134.453,3.24.582a6.176,6.176,0,0,1,4.655,3.487,8.724,8.724,0,0,1,.453,5.926c-.215.84-.528,1.657-.758,2.494-.481,1.743-.594,3.573-1.149,5.292a5.671,5.671,0,0,1-3.432,3.909,10.851,10.851,0,0,0-1.1-5.589,1.6,1.6,0,0,0-.782-.868,1.9,1.9,0,0,0-.942,0,9.381,9.381,0,0,1-6.254-1.266c-.657-.391-1.681-1.763-2.384-1.9C320.866,435.931,319.017,437.014,318.079,437.225Z" transform="translate(-213.08 -278.02)" opacity="0.1"/><path d="M318.079,436.345a4.952,4.952,0,0,1-2.064.125,3.39,3.39,0,0,1-2.505-3.236,4.972,4.972,0,0,1,1.907-3.819c.782-.653,1.72-1.118,2.435-1.845a17.264,17.264,0,0,0,1.954-3.045,9.041,9.041,0,0,1,4.644-3.612,4.239,4.239,0,0,1,4.245.5c.559.528.887,1.29,1.513,1.735.907.645,2.134.453,3.24.582a6.176,6.176,0,0,1,4.655,3.487,8.724,8.724,0,0,1,.453,5.926c-.215.84-.528,1.657-.758,2.494-.481,1.743-.594,3.573-1.149,5.292a5.671,5.671,0,0,1-3.432,3.909,10.851,10.851,0,0,0-1.1-5.589,1.6,1.6,0,0,0-.782-.868,1.9,1.9,0,0,0-.942,0,9.381,9.381,0,0,1-6.254-1.266c-.657-.391-1.681-1.763-2.384-1.9C320.866,435.051,319.017,436.138,318.079,436.345Z" transform="translate(-213.08 -277.484)" fill="#503f43"/><path d="M120.1,804.129a4.562,4.562,0,0,0,1.5-2.259,2.005,2.005,0,0,0-1.048-2.3c-.962-.367-1.99.3-2.767.973s-1.673,1.442-2.693,1.3A4.1,4.1,0,0,0,116.353,798a1.6,1.6,0,0,0-.352-.782c-.535-.571-1.5-.324-2.142.125-2.033,1.431-2.6,4.19-2.611,6.676a12.8,12.8,0,0,1-.039-2.736,2.825,2.825,0,0,0-1.032-2.431,3.128,3.128,0,0,0-1.563-.371,3.255,3.255,0,0,0-2.556.727,2.514,2.514,0,0,0,.1,3.127,10.172,10.172,0,0,0,2.646,2.119,5.863,5.863,0,0,1,1.892,1.8,1.786,1.786,0,0,1,.141.32h5.718a15.959,15.959,0,0,0,3.541-2.451Z" transform="translate(-86.409 -506.704)" fill="#607d8b"/><path d="M989.1,665.129a4.562,4.562,0,0,0,1.5-2.259,2.005,2.005,0,0,0-1.048-2.3c-.962-.367-1.99.3-2.767.973s-1.673,1.442-2.693,1.3A4.1,4.1,0,0,0,985.353,659a1.6,1.6,0,0,0-.352-.782c-.535-.571-1.5-.324-2.142.125-2.032,1.431-2.6,4.19-2.611,6.676a12.8,12.8,0,0,1-.039-2.736,2.825,2.825,0,0,0-1.032-2.431,3.128,3.128,0,0,0-1.564-.371,3.255,3.255,0,0,0-2.556.727,2.514,2.514,0,0,0,.1,3.127,10.171,10.171,0,0,0,2.646,2.119,5.863,5.863,0,0,1,1.892,1.8,1.79,1.79,0,0,1,.141.321h5.726A15.96,15.96,0,0,0,989.1,665.129Z" transform="translate(-615.742 -422.035)" fill="#607d8b"/><path d="M1043.468,323.026c-.809-2.369-1.978-5.371-2.9-6.078a.866.866,0,0,0-.184-.113h-.113v-2.928l-2.181.348a20.849,20.849,0,0,1-.782-3.24,1.5,1.5,0,0,0,1.638.328c-.035-.059-.066-.121-.1-.184l.1-.043a4.055,4.055,0,0,1-.528-1.986,7.237,7.237,0,0,1,.3-1.876c.391-1.348,1.051-2.607,1.419-3.963a9.635,9.635,0,0,0,.328-2.677,9.772,9.772,0,0,0-1.016-4.417,2.582,2.582,0,0,0-.782-1.008,9.966,9.966,0,0,0-.946-.461,5.111,5.111,0,0,1-1.376-1.372,12.336,12.336,0,0,0-5.961-3.979,3.491,3.491,0,0,0-1.907-.152c-1.466.391-2,2.208-3.186,3.162-1.047.84-2.486.926-3.8,1.208a6.465,6.465,0,0,0-3.541,1.857,3.843,3.843,0,0,0-.95,2.56,2.576,2.576,0,0,0,1.047,2.291,3.291,3.291,0,0,0,2.779.391,9.451,9.451,0,0,0,7.157,11.882l.254.457h0a19.574,19.574,0,0,1,1.774,4.632c-2.009,1.137-4.2,2.2-5.527,2.306a9.31,9.31,0,0,1-.289,1.532,8.449,8.449,0,0,1-1.739,3.42c-1.8,2.025-9.9,17.331-9.9,17.331s-.254.61-.672,1.649c-5.031.618-13.243,1.509-15.533,1.051l-8.99-8.552s-2.908,2.22-2.654,4.917l-1.622-1.54s-8.552,6.528,4.952,10.8l20.548,2.384c-1.954,5.906-3.784,12.781-3.217,16.522h.168a7.773,7.773,0,0,0,1.173-.09l-.035.664L1004.69,405.5s-.45,6.528,5.629,9.451c0,0,7.427,21.83,4.5,24.308,0,0,.348.184.934.438l-6.109,5.414s-4.5,1.126-6.977.9a1.786,1.786,0,0,0-1.974,1.329.3.3,0,0,1-.023.141v.434a.336.336,0,0,0,.027.145v.055a1.2,1.2,0,0,0,.051.156l.02.047a1.326,1.326,0,0,0,.07.152v.035c.027.051.059.1.09.148l.027.043q.055.078.121.156l.035.039c.047.055.1.106.149.156l.023.02.168.145.035.027c.063.051.133.1.2.145l.047.031c.074.047.152.094.234.137h.035l.254.125h.035l.3.117.063.023.324.106h.055l.356.094h.027l.391.078h.078l.422.063h.082l.477.047c.926.07,2.173.1,3.616.09h0v.231a.274.274,0,0,0,.027.145v.055a1.2,1.2,0,0,0,.051.156l.02.047a1.326,1.326,0,0,0,.07.152v.035c.027.051.059.1.09.148l.027.043q.055.078.121.156l.035.039c.047.055.1.106.149.156l.023.02.168.145.035.027c.063.051.133.1.2.145l.051.031c.074.047.152.094.234.137h.035l.254.125h.035l.3.117.063.023.324.106h.055l.356.094h.027l.391.078h.078l.422.063h.082l.477.047c5.863.45,24.531-.9,24.531-.9v-.051h0V451.8h0c.184-.872,1.083-5.937-2.107-9.682.094-.1.188-.2.274-.313,0,0-2.474-4.276-1.126-5.629s-6.75-24.758-6.75-24.758-4.276-6.75-1.8-14.4-.227-15.979-.227-15.979,5.9-1.755,6.023-9.021v-.676a2.387,2.387,0,0,0,.391.023,1.752,1.752,0,0,0,.25,0s-1.126-4.049.227-6.977,4.276-.227,6.977-12.152c1.954-8.63,3.674-18.559,4.476-23.39A12.317,12.317,0,0,0,1043.468,323.026ZM992.1,348.343l-2.052-1.954c.68.281,1.434.559,2.279.825l7.739.9a39.512,39.512,0,0,1-7.966.235Z" transform="translate(-619.307 -197.428)" fill="url(#h)"/><path d="M1012.595,426.99s-15.92,2.212-19.239,1.563l-8.845-8.4s-8.4,6.414,4.866,10.612l24.766,2.873Z" transform="translate(-620.207 -277.221)" fill="#fdc2cc"/><path d="M1012.595,426.99s-15.92,2.212-19.239,1.563l-8.845-8.4s-8.4,6.414,4.866,10.612l24.766,2.873Z" transform="translate(-620.207 -277.221)" opacity="0.05"/><path d="M1049.333,667.33l-7.739,6.856a28.038,28.038,0,0,1-6.856.883c-2.435-.223-3.537,3.76,2.212,4.2s24.1-.883,24.1-.883,1.771-7.075-3.537-11.058Z" transform="translate(-651.197 -427.785)" fill="#47465a"/><path d="M1049.333,667.33l-7.739,6.856a28.038,28.038,0,0,1-6.856.883c-2.435-.223-3.537,3.76,2.212,4.2s24.1-.883,24.1-.883,1.771-7.075-3.537-11.058Z" transform="translate(-651.197 -427.785)" opacity="0.05"/><path d="M1061.333,687.78a12.2,12.2,0,0,1-.277,2.4s-18.371,1.325-24.1.883c-2.763-.211-3.94-1.243-4.151-2.232-.25,1.134.75,2.635,4.151,2.9,5.75.442,24.1-.883,24.1-.883a12.78,12.78,0,0,0,.277-3.061Z" transform="translate(-651.2 -440.242)" fill="#fff" opacity="0.3"/><path d="M1098.35,336.921s4.866,6.856,3.1,11.5,9.275-4.866,9.275-4.866-3.537-6.191-1.771-12.824Z" transform="translate(-691.149 -222.752)" fill="#fdc2cc"/><path d="M1069.173,674.11l-7.739,6.856a28.038,28.038,0,0,1-6.856.883c-2.435-.223-3.537,3.76,2.212,4.2s24.1-.883,24.1-.883,1.771-7.075-3.537-11.058Z" transform="translate(-663.282 -431.915)" fill="#47465a"/><path d="M1065.468,544.718a5.917,5.917,0,0,1-4.479,2.052c-3.866.184-8.122-2.052-8.122-2.052,2.873-2.431-4.421-23.882-4.421-23.882-5.969-2.873-5.527-9.287-5.527-9.287l1.954-34.815.489-8.744,6.191-3.76,4.882,3.745,4.628,3.553a18.612,18.612,0,0,1,.578,3.451c.536,8.126-5.886,10.038-5.886,10.038s2.654,8.181.223,15.7,1.771,14.15,1.771,14.15,7.962,22.995,6.645,24.324S1065.468,544.718,1065.468,544.718Z" transform="translate(-657.379 -304.071)" fill="#565171"/><path d="M1065.468,544.718a5.917,5.917,0,0,1-4.479,2.052c-3.866.184-8.122-2.052-8.122-2.052,2.873-2.431-4.421-23.882-4.421-23.882-5.969-2.873-5.527-9.287-5.527-9.287l1.954-34.815.489-8.744,6.191-3.76,4.882,3.745,4.628,3.553a18.612,18.612,0,0,1,.578,3.451c.536,8.126-5.886,10.038-5.886,10.038s2.654,8.181.223,15.7,1.771,14.15,1.771,14.15,7.962,22.995,6.645,24.324S1065.468,544.718,1065.468,544.718Z" transform="translate(-657.379 -304.071)" opacity="0.05"/><path d="M1079.755,551.514c-3.76,4.644-12.6,0-12.6,0a1.406,1.406,0,0,0,.391-.6c1.622-4.409-5.472-25.489-5.472-25.489-5.969-2.873-6.645-9.729-6.645-9.729l-1.563-35.432-.2-4.589,9.3-3.553,2.857-1.091,9.51,7.3a17.243,17.243,0,0,1,.61,4.624c-.121,7.141-5.918,8.865-5.918,8.865s2.654,8.181.223,15.7,1.771,14.15,1.771,14.15,7.962,22.995,6.645,24.324S1079.755,551.514,1079.755,551.514Z" transform="translate(-663.927 -308.213)" fill="#565171"/><path d="M1072.419,478.83c-1.911-.274-5.781-2.576-7.771-3.827l-1.243-.782s-1.99-5.527-7.3-1.325a19.865,19.865,0,0,1-5.765,3.26,13.5,13.5,0,0,1-2.463.618l.489-8.744,6.191-3.76,4.882,3.745,2.857-1.091,9.51,7.3a17.253,17.253,0,0,1,.61,4.608Z" transform="translate(-660.406 -304.095)" opacity="0.1"/><path d="M1082.223,369.9c-.782,4.745-2.478,14.5-4.4,22.979-2.654,11.726-5.527,9.064-6.856,11.941s-.223,6.856-.223,6.856c-2.212.223-9.51-4.644-9.51-4.644s-1.99-5.527-7.3-1.325-9.51,3.979-9.51,3.979c-1.106-7.3,7.075-26.755,7.075-26.755s7.962-15.037,9.729-17.026a8.3,8.3,0,0,0,1.708-3.362,9.147,9.147,0,0,0,.281-1.5c2.873-.223,9.951-5.081,9.951-5.081l5.527-.883v2.873a.849.849,0,0,1,.18.109c.911.7,2.056,3.647,2.849,5.973a12.116,12.116,0,0,1,.492,5.871Z" transform="translate(-658.242 -237.578)" fill="#f68080"/><path d="M1091.064,368.715s-5.75-4.644-14.372,10.393-10.612,12.6-10.612,12.6,1.771,6.645.883,7.962c0,0,5.969-.442,8.181,0s15.92-16.8,15.92-16.8S1098.155,373.136,1091.064,368.715Z" transform="translate(-671.492 -245.478)" opacity="0.1"/><path d="M1090.534,366.445s-5.75-4.644-14.372,10.393-10.612,12.6-10.612,12.6,6.856,7.516,9.064,7.962,15.92-16.807,15.92-16.807S1097.609,370.87,1090.534,366.445Z" transform="translate(-671.169 -244.095)" opacity="0.1"/><path d="M1066.473,435.465a26.73,26.73,0,0,0-.883-6.012c1.345-.176,2.193-.293,2.193-.293l1.563,6.645Z" transform="translate(-671.194 -282.709)" opacity="0.1"/><path d="M1109.532,331.87l-10.612,6.191a22.666,22.666,0,0,1,1.235,2.025,9.33,9.33,0,0,0,1.861.188c2.834,0,4.155-2.975,5.863-4.976C1107.758,333.691,1109.059,333.648,1109.532,331.87Z" transform="translate(-691.496 -223.447)" opacity="0.1"/><circle cx="9.287" cy="9.287" r="9.287" transform="translate(401.014 97.807)" fill="#fdc2cc"/><rect width="74.793" height="56.364" transform="translate(321.155 117.679)" fill="url(#a)"/><rect width="71.44" height="53.839" transform="translate(322.832 118.942)" fill="#fff"/><rect width="23.812" height="13.458" transform="translate(329.82 123.601)" fill="#607d8b" opacity="0.2"/><rect width="27.955" height="3.107" transform="translate(359.327 123.601)" fill="#e6e8ec"/><rect width="19.673" height="3.107" transform="translate(359.327 128.78)" fill="#e6e8ec"/><rect width="27.955" height="3.107" transform="translate(359.327 133.955)" fill="#e6e8ec"/><rect width="57.462" height="3.107" transform="translate(329.82 139.13)" fill="#e6e8ec"/><rect width="57.462" height="3.107" transform="translate(329.82 144.309)" fill="#e6e8ec"/><rect width="57.462" height="3.107" transform="translate(329.82 149.484)" fill="#e6e8ec"/><rect width="52.803" height="3.107" transform="translate(329.82 154.663)" fill="#e6e8ec"/><rect width="57.462" height="3.107" transform="translate(329.82 159.839)" fill="#e6e8ec"/><rect width="57.462" height="3.107" transform="translate(329.82 165.014)" fill="#e6e8ec"/><path d="M1074.765,299.637a6.348,6.348,0,0,1,3.479-1.825c1.29-.278,2.7-.364,3.737-1.173,1.173-.934,1.689-2.709,3.127-3.1a3.428,3.428,0,0,1,1.872.149,12.116,12.116,0,0,1,5.863,3.909,5.019,5.019,0,0,0,1.349,1.349,9.772,9.772,0,0,1,.93.453,2.533,2.533,0,0,1,.758.989,9.611,9.611,0,0,1,.672,6.75c-.36,1.333-1.008,2.568-1.391,3.909a5.131,5.131,0,0,0,.223,4.014,1.618,1.618,0,0,1-1.954-.723,8.324,8.324,0,0,1-.782-2.146,8.208,8.208,0,0,0-2.4-3.725c-.7-.618-1.954-1.032-2.427-.235-.188.309-.176.7-.336,1.02a1.34,1.34,0,0,1-1.837.391,2.819,2.819,0,0,1-1.149-1.7c-.911-3.08-2.463-5.019-5.757-3.7-1.227.493-2.674.825-3.854-.02C1073.35,303.1,1073.651,300.9,1074.765,299.637Z" transform="translate(-676.214 -200.055)" opacity="0.1"/><path d="M1074.765,299.067a6.348,6.348,0,0,1,3.479-1.825c1.29-.277,2.7-.363,3.737-1.173,1.173-.934,1.689-2.709,3.127-3.1a3.428,3.428,0,0,1,1.872.149,12.116,12.116,0,0,1,5.863,3.909,5.019,5.019,0,0,0,1.349,1.349,9.772,9.772,0,0,1,.93.453,2.532,2.532,0,0,1,.758.989,9.611,9.611,0,0,1,.672,6.75c-.36,1.333-1.008,2.568-1.391,3.909a5.131,5.131,0,0,0,.223,4.014,1.618,1.618,0,0,1-1.954-.723,8.324,8.324,0,0,1-.782-2.146,8.208,8.208,0,0,0-2.4-3.725c-.7-.618-1.954-1.032-2.427-.235-.188.309-.176.7-.336,1.02a1.34,1.34,0,0,1-1.837.391,2.819,2.819,0,0,1-1.149-1.7c-.911-3.08-2.463-5.019-5.757-3.7-1.227.492-2.674.825-3.854-.02C1073.35,302.53,1073.651,300.329,1074.765,299.067Z" transform="translate(-676.214 -199.708)" fill="#b96b6b"/><path d="M1107.914,358.058h-4.495s-8.845,4.421-9.064,4.2a7.518,7.518,0,0,0-2.384.289,9.134,9.134,0,0,0,.281-1.5c2.873-.223,9.952-5.081,9.952-5.081l5.527-.883v2.873A.848.848,0,0,1,1107.914,358.058Z" transform="translate(-687.263 -237.585)" opacity="0.05"/><path d="M1081.133,694.57a12.207,12.207,0,0,1-.277,2.4s-18.371,1.325-24.1.883c-2.763-.211-3.94-1.243-4.151-2.232-.25,1.134.75,2.634,4.151,2.9,5.75.442,24.1-.883,24.1-.883A12.772,12.772,0,0,0,1081.133,694.57Z" transform="translate(-663.261 -444.378)" fill="#fff" opacity="0.3"/><g transform="translate(386.25 120.372)" opacity="0.05"><path d="M1052.1,481.56a18.778,18.778,0,0,1-7.352,3.717,3.286,3.286,0,0,0,.055.485s4.2.223,9.51-3.979a7.125,7.125,0,0,1,2.842-1.485C1056,479.762,1054.346,479.8,1052.1,481.56Z" transform="translate(-1044.75 -434.046)"/><path d="M1119.086,368.522c-.782-2.345-1.954-5.277-2.849-5.973a.85.85,0,0,0-.18-.109s-1.829.063-1.771.109c.911.7,1.794,3.424,2.588,5.75a12.117,12.117,0,0,1,.481,5.863c-.782,4.745-2.478,14.5-4.4,22.979-2.654,11.726-5.527,9.064-6.856,11.941-1.087,2.345-.543,5.449-.309,6.492a5.592,5.592,0,0,0,2.3.582s-1.106-3.979.223-6.856,4.2-.223,6.856-11.941c1.919-8.478,3.608-18.234,4.4-22.979A12.117,12.117,0,0,0,1119.086,368.522Z" transform="translate(-1081.723 -362.44)"/></g><path d="M1024.925,425.119l-2.857-.332-21.889-2.545c-13.266-4.2-4.866-10.612-4.866-10.612l8.845,8.4c2.552.512,12.559-.68,17.042-1.255,1.345-.176,2.193-.293,2.193-.293Z" transform="translate(-626.789 -272.031)" fill="#fdc2cc"/><path d="M1091.064,367.585s-5.75-4.644-14.372,10.393-10.612,12.6-10.612,12.6,1.771,6.645.883,7.962c0,0,5.969-.442,8.181,0s15.92-16.807,15.92-16.807S1098.155,372.006,1091.064,367.585Z" transform="translate(-671.492 -244.789)" fill="#f68080"/></g></svg>