<svg xmlns="http://www.w3.org/2000/svg" width="312.258" height="371.677" viewBox="0 0 312.258 371.677"><g transform="translate(-374 -149)"><g transform="translate(374 149)"><path d="M521.438,775.029H398.955v-1H521.62Z" transform="translate(-209.362 -406.191)" fill="#3f3d56"/><rect width="6.653" height="14.257" transform="translate(232.78 349.229)" fill="#fbbebe"/><rect width="6.653" height="14.257" transform="translate(284.579 349.704)" fill="#fbbebe"/><path d="M819.376,666.053l-8.079-.95-20.91-96.47-22.811,96.946-8.079-.95c-1.333-43.866,2.563-87.751,5.94-124.271l48.235-4.039C822.761,572.3,823.134,617.093,819.376,666.053Z" transform="translate(-527.431 -309.458)" fill="#2f2e41"/><path d="M867.7,548.327s-11.235,11.723-4.885,14.654,10.258-13.189,10.258-13.189Z" transform="translate(-580.768 -315.761)" fill="#fbbebe"/><path d="M746.7,550.327s-11.235,11.723-4.885,14.654,10.258-13.189,10.258-13.189Z" transform="translate(-517.27 -316.81)" fill="#fbbebe"/><circle cx="13.306" cy="13.306" r="13.306" transform="translate(250.363 122.072)" fill="#fbbebe"/><path d="M832.555,375.029,808.794,377.4c2.2-9.887,2.729-19.124,0-27.088h16.633C824.523,356.953,827.9,365.679,832.555,375.029Z" transform="translate(-553.441 -211.85)" fill="#fbbebe"/><path d="M818.206,461.254c-8.878,10.68-27.536,7.109-48.948-.475,6.076-19.833,5.134-40.757-.326-62.383a5.085,5.085,0,0,1,2.851-5.9l17.434-7.749,6.653,1.426,11.405-2.851,16.19,3.312a5.62,5.62,0,0,1,4.486,5.79C826.6,418.964,824.2,443.529,818.206,461.254Z" transform="translate(-532.438 -229.168)" fill="#e6e6e6"/><path d="M878.071,473.481l-4.277-7.128,8.079-30.414L877.6,390.317h0a13.072,13.072,0,0,1,11.486,10.294l6.489,30.589a21.192,21.192,0,0,1-1.668,13.656Z" transform="translate(-587.551 -232.841)" fill="#e6e6e6"/><path d="M755.036,473.5l-9.742,1.663,6.212-60.812a15.448,15.448,0,0,1,9.708-14.036h0l3.089,40.156Z" transform="translate(-520.118 -238.089)" fill="#e6e6e6"/><path d="M744.99,814.471l-17.932,3.149a4,4,0,0,1-2.4-.323h0a4,4,0,0,1-1.008-6.55l7.682-7.107,2-3.5a7.074,7.074,0,0,1,5.583-3.612c3.425-.237,4.555,2.369,3.839,7.262,2.6,1.913,3.012,1.619,4.763-.956l.795,8.068a4.046,4.046,0,0,1-3.325,3.568Z" transform="translate(-508.086 -446.004)" fill="#2f2e41"/><path d="M853.989,814.471l-17.932,3.149a4,4,0,0,1-2.4-.323h0a4,4,0,0,1-1.008-6.55l7.682-7.107,2-3.5a7.074,7.074,0,0,1,5.583-3.612c3.425-.237,4.555,2.369,3.839,7.262,2.6,1.913,3.012,1.619,4.763-.956l.795,8.068a4.046,4.046,0,0,1-3.325,3.568Z" transform="translate(-565.287 -446.004)" fill="#2f2e41"/><path d="M801.375,318.119c6-3.431,12-1.239,18.02,8.124l1.23,9.974c9.029-8.554,8.573-20.228-1.553-24.976a5.17,5.17,0,0,0-3.044-.81,9.54,9.54,0,0,0-12.628,3.393c-1.871.324-4.553,4.041-4.456,5.937Z" transform="translate(-548.27 -190.323)" fill="#2f2e41"/><ellipse cx="1.663" cy="2.139" rx="1.663" ry="2.139" transform="translate(268.897 133.952)" fill="#fbbebe"/><path d="M151.4,500h27.69a10.93,10.93,0,0,1-10.93,10.93h-5.829A10.93,10.93,0,0,1,151.4,500Z" transform="translate(-79.454 -262.388)" fill="#3f3d56"/><path d="M405.016,342.755V332.6c0-12.273,13.348-23.882,22.008-32.165,12.206-11.668,18.622-27.344,18.622-45.708a60.944,60.944,0,1,0-121.888-.339q0,.17,0,.339c0,17.708,6.691,34.446,18.622,45.708,8.613,8.13,22.008,19.764,22.008,32.165v10.157" transform="translate(-298.905 -129.614)" fill="#607d8b"/><path d="M403.442,342.793a1.426,1.426,0,0,1-1.426-1.426V331.21c0-11.94,11.776-23.086,20.374-31.225.714-.676,1.407-1.332,2.074-1.97,11.895-11.371,18.181-26.82,18.181-44.678,0-33.375-26.143-59.518-59.518-59.518h-.168A59.417,59.417,0,0,0,323.609,253v.332c0,17.489,6.624,33.771,18.175,44.674.585.553,1.193,1.122,1.817,1.706,8.71,8.154,20.638,19.322,20.638,31.5v10.157a1.426,1.426,0,0,1-2.851,0V331.21c0-10.937-11.407-21.616-19.735-29.414-.627-.587-1.237-1.158-1.825-1.713-12.118-11.44-19.069-28.477-19.069-46.745V253a62.274,62.274,0,0,1,62.2-62.028h.176A62.044,62.044,0,0,1,445.5,253.337c0,18.655-6.592,34.817-19.062,46.739-.669.64-1.367,1.3-2.084,1.979-8.222,7.783-19.483,18.441-19.483,29.154v10.157a1.426,1.426,0,0,1-1.426,1.426Z" transform="translate(-297.331 -128.227)" fill="#3f3d56"/><path d="M447.964,543.7H420.878a2.376,2.376,0,0,1,0-4.752h27.086a2.376,2.376,0,0,1,0,4.752Z" transform="translate(-348.625 -310.837)" fill="#607d8b"/><path d="M294.243,179.434a2.367,2.367,0,0,1-1.562-.586l-20.406-17.812a2.376,2.376,0,1,1,3.125-3.58l20.406,17.812a2.376,2.376,0,0,1-1.564,4.166Z" transform="translate(-271.462 -110.333)" fill="#e6e6e6"/><path d="M574.853,179.434a2.376,2.376,0,0,1-1.563-4.166L593.7,157.456a2.376,2.376,0,0,1,3.125,3.58l-20.406,17.812A2.366,2.366,0,0,1,574.853,179.434Z" transform="translate(-429.427 -110.333)" fill="#e6e6e6"/><path d="M447.258,525.95H406.629a2.376,2.376,0,1,1,0-4.752h40.629a2.376,2.376,0,1,1,0,4.752Z" transform="translate(-341.148 -301.524)" fill="#607d8b"/><path d="M449.377,447.381A2.376,2.376,0,0,1,447,445.005V390.833a2.376,2.376,0,1,1,4.752,0v54.172a2.376,2.376,0,0,1-2.376,2.376Z" transform="translate(-363.581 -231.865)" fill="#fff"/><path d="M431.618,385.731c-7.677,0-17.1-6.945-17.5-7.241a2.376,2.376,0,0,1,2.836-3.813c2.362,1.752,9.6,6.3,14.664,6.3s12.3-4.55,14.665-6.3a2.376,2.376,0,0,1,2.835,3.814C448.721,378.785,439.295,385.731,431.618,385.731Z" transform="translate(-345.821 -224.387)" fill="#fff"/><path d="M449.376,104.326A2.376,2.376,0,0,1,447,101.95V61.321a2.376,2.376,0,0,1,4.752,0V101.95a2.376,2.376,0,0,1-2.376,2.376Z" transform="translate(-363.58 -58.945)" fill="#e6e6e6"/></g></g></svg>