<svg xmlns="http://www.w3.org/2000/svg" xmlns:xlink="http://www.w3.org/1999/xlink" width="873.014" height="659.699" viewBox="0 0 873.014 659.699"><defs><linearGradient id="a" x1="0.5" y1="1" x2="0.5" gradientUnits="objectBoundingBox"><stop offset="0" stop-color="gray" stop-opacity="0.251"/><stop offset="0.54" stop-color="gray" stop-opacity="0.122"/><stop offset="1" stop-color="gray" stop-opacity="0.102"/></linearGradient><linearGradient id="b" x1="0.5" x2="0.5" y2="0" xlink:href="#a"/><linearGradient id="c" x1="0.5" x2="0.5" y2="0" xlink:href="#a"/><linearGradient id="d" x1="1.096" x2="1.096" y2="0" xlink:href="#a"/><linearGradient id="e" x1="0.5" x2="0.5" y2="0" xlink:href="#a"/></defs><g transform="translate(0.013 -0.004)"><path d="M43.44,426.65C57.252,480.48,86.5,527.012,132.714,549.565c96.088,46.878,312.659,22.7,474.317-5.049,83.642-14.357,157.108-53.945,210.508-109.732Z" transform="translate(-34.02 -114.712)" fill="#607d8b" opacity="0.1"/><path d="M897.96,78.705h-88.7c-4.22,0-7.674-3.146-7.674-6.991s3.445-6.991,7.674-6.991h15.347c-4.22,0-7.674-3.146-7.674-6.991s3.445-6.983,7.674-6.983h-10.95c-4.22,0-7.674-3.146-7.674-6.991s3.445-6.991,7.674-6.991h46.294a131.159,131.159,0,0,0-36.112-9.07C697.6,12.912,652.53,22.689,636.607,32.749a185.784,185.784,0,0,1-64.88,25.929C493.841,73.326,348.181,90.952,216.158,53.03,150.542,34.191,101.776,66.075,72.54,119.26H913.361C912.264,103.79,908.98,89.5,902.948,77A8.042,8.042,0,0,1,897.96,78.705Z" transform="translate(-40.79 -20.14)" fill="#607d8b" opacity="0.1"/><path d="M33.052,280.23A325.312,325.312,0,0,0,36.5,374.146l778.773,25.967a332.382,332.382,0,0,0,54.106-75.2Zm307.993,67H325.7c4.213,0,7.674,3.146,7.674,6.991s-3.453,6.983-7.674,6.983h-88.66c-4.213,0-7.674-3.138-7.674-6.983s3.453-6.991,7.674-6.991h15.347c-4.213,0-7.674-3.146-7.674-6.991s3.453-6.991,7.674-6.991H241.42c-4.213,0-7.674-3.138-7.674-6.983s3.453-6.991,7.674-6.991h88.7c4.22,0,7.674,3.146,7.674,6.991s-3.445,6.983-7.674,6.983h10.927c4.22,0,7.674,3.146,7.674,6.991S345.289,347.228,341.045,347.228Z" transform="translate(-31.16 -80.648)" fill="#607d8b" opacity="0.1"/><path d="M904.382,149.94,54.153,168.794c-10.359,24.241-17.212,51.643-20.373,80.05h855.7a306.167,306.167,0,0,0,12.354-51.021C904.382,181.125,905.4,164.98,904.382,149.94Zm-697.97,61.78H191.065c4.213,0,7.674,3.146,7.674,6.991s-3.453,6.991-7.674,6.991H102.374c-4.213,0-7.674-3.146-7.674-6.991s3.453-6.991,7.674-6.991h15.347c-4.213,0-7.674-3.138-7.674-6.983s3.453-6.991,7.674-6.991H106.755c-4.213,0-7.674-3.146-7.674-6.991s3.453-6.991,7.674-6.991h88.7c4.22,0,7.674,3.146,7.674,6.991s-3.445,6.991-7.674,6.991h10.958c4.213,0,7.674,3.146,7.674,6.991S210.625,211.72,206.412,211.72Z" transform="translate(-31.773 -50.336)" fill="#607d8b" opacity="0.1"/><ellipse cx="57.728" cy="12.961" rx="57.728" ry="12.961" transform="translate(452.053 562.51)" fill="#607d8b" opacity="0.1"/><ellipse cx="104.145" cy="8.548" rx="104.145" ry="8.548" transform="translate(539.777 608.083)" fill="#607d8b" opacity="0.1"/><ellipse cx="104.145" cy="12.961" rx="104.145" ry="12.961" transform="translate(121.623 590.71)" fill="#607d8b" opacity="0.1"/><ellipse cx="78.362" cy="12.961" rx="78.362" ry="12.961" transform="translate(306.194 525.831)" fill="#607d8b" opacity="0.1"/><ellipse cx="62.731" cy="12.961" rx="62.731" ry="12.961" transform="translate(343.703 633.782)" fill="#607d8b" opacity="0.1"/><path d="M562.773,278.325c-1.657-11.157-11.794-37.194-11.794-37.194h0q-.265-1.151-.6-2.3c-7.19-24.709-17.143-26.857-17.143-26.857L497.587,204.3a2.763,2.763,0,0,1,.767.714,4.952,4.952,0,0,0-.56.084,13.966,13.966,0,0,1-3.123-6.753c-.069-.368-.13-.767-.176-1.143a25.077,25.077,0,0,0-2.041-37.7c-.376-.292-.767-.576-1.143-.844,1.681-1.788,1.734-4.274.476-6.76-2.809-5.832-8.917-9.523-15.194-11.326-4.8-1.374-9.976-1.819-14.749-.315a53.28,53.28,0,0,0-7.72,3.584c-4.735,2.363-9.976,4.236-13.513,8.126a3.966,3.966,0,0,0-1.351,3.261A8.8,8.8,0,0,0,440.6,157.6a7.156,7.156,0,0,1,.069,5.939,57.552,57.552,0,0,0-2.2,5.709c-.483,1.98-.3,4.313,1.189,5.732a25.258,25.258,0,0,0,2.225,1.535,11.672,11.672,0,0,1,2.126,2.386q2.118,2.839,4.22,5.7a58.732,58.732,0,0,1,5.287,8.034,39.153,39.153,0,0,0,3.269,6.139,9.1,9.1,0,0,0,1.4,1.473l-.414-.161A6.392,6.392,0,0,0,462.465,202h.215a1.289,1.289,0,0,0,.859-.353c0,.261,0,.522,0,.767.084,2.739.069,5.655-.123,8.395l-.33-.169a2.878,2.878,0,0,0-3.069.322L427.2,237.295s-7.136,9.761-6.139,26.612L415.3,289.175s-7.19,21.44-1.658,36.749,8.74,24.064,8.74,24.064,2.21,17.4,5.533,18.816,4.758,2.187,4.758,2.187l.66,4.159h0s.223.407.614,1.09c2.417,4.205,11.372,19.046,16.575,17.457a66.526,66.526,0,0,1,.844,12.193l5.149,34.569s3.591,9.4,3.369,14.327,4.19,11.948,4.19,11.948a22.829,22.829,0,0,0-2.21,16.076c2.1,9.208,4.758,51.628,4.758,51.628l3.837,10.283-.107,12.055a11.51,11.51,0,0,1-2.379,5.371c-2.486,2.7-2.3,5.824-8.3,9.515s-9.791,5.088-9.791,9.976a12.828,12.828,0,0,1-.184,2.034c-.552,3.591-1.627,5.54,9.392,6.584a29.053,29.053,0,0,0,21.578-7.213s1.9-3.453,10.866-4.85c0,0,3.069-.161,3.231-2.87.061-.936.046-2.724,0-4.7-.146-3.752-.506-8.134-.982-8.349-.6-.269-1.642-4.044-2-5.41h2.494s2.3-17.4,0-28.661-.223-19.253-.223-19.253l-.445-29.75s-3.069-3.284-.66-9.086,0-34.454,0-34.454.89-10.283,3.43-12.692.123-15.063,0-15.723l4.527,15.186s1.987,30.188,6.2,35.651l1.212,13.674s8.625,12.585,6.968,19.36,1.773,31.285,1.773,31.285v25.054s-3.875,10.06,1.535,13.674l2.3-.092c-.767.714-1.358,1.788-2.256,2.716-1.036,1.067-1.627,5.126-1.957,8.617-.276,2.954-.368,5.494-.368,5.494a9.047,9.047,0,0,0,6.638,3.937c4.336.253,18.624,11.119,18.624,11.119s14.112,0,17.764-.767l.215-.054a4.8,4.8,0,0,0,2.755-2.248,5.755,5.755,0,0,0,.66-4.136c-.453-2.156-2.164-4.52-5.955-6.53-9.431-4.972-10.835-9.63-10.835-9.63l-6.193-9.293h.883s-.545-9.845,6.193-20.9l-.437-48.673s2.762-16.736-1.987-25.822c0,0-.391-9.623,2.785-12.577s-4.228-32.812-4.228-32.812-1.535-16.03-3.338-30.656h0c7.466,7.083,15.209-18.417,16.513-22.952h.192l-.084-.33c.054-.215.084-.322.084-.322h0s-1.657-5.893-.445-4.7,4.205-3.284,4.205-3.284-.445-24.394,4.758-36.687S562.773,278.325,562.773,278.325ZM540.52,293.849l.038-.069c.767,14.894-.146,46.678-.146,46.678s-1.028,4.075-2.126,8.871l-.767-30.2h0l-.767-28.446Zm-95.236-10.267s3.76,47.031,0,53.815c-1.067,1.934-1.964,5.371-2.709,9.293-1.243-3.261-3.875-10.919-2.931-14.979,1.22-5.249-2.433-19.038-2.433-19.36s-.33-7.674,2.3-13.291.905-8.05.905-8.05S442.629,281.8,445.284,283.581Z" transform="translate(-119.66 -47.865)" fill="url(#a)"/><path d="M461.424,458.274c-3.277,14.4-16.306-7.374-19.276-12.6-.384-.683-.6-1.082-.6-1.082l1.412-6.622,7.466-3.069a20.855,20.855,0,0,1,3.346,2.179C457.864,440.294,463.949,447.116,461.424,458.274Z" transform="translate(-126.638 -116.631)" fill="#d38884"/><path d="M592.67,433.531a1.006,1.006,0,0,1-.084.322,1.631,1.631,0,0,1-.1.345c-1.281,4.5-8.878,29.812-16.214,22.783-8.027-7.674-4.128-25.415-4.128-25.415h.054l16.882-1.727,3.346,3.438h0Z" transform="translate(-156.8 -115.454)" fill="#d38884"/><path d="M555.143,558.7l.43,48.343c-6.622,10.973-6.077,20.719-6.077,20.719l-21.824.859c-5.325-3.584-1.535-13.567-1.535-13.567V590.163s-3.369-24.318-1.742-31.055-6.837-19.184-6.837-19.184l-1.2-13.575c-4.128-5.425-6.085-35.39-6.085-35.39l-4.428-15.132c.123.652,2.425,13.283,0,15.608s-3.369,12.592-3.369,12.592,2.386,28.454,0,34.2.645,9.016.645,9.016l.437,29.535s-2.064,7.927.215,19.107,0,28.453,0,28.453H480.364l.107-12.055-3.791-10.206s-2.609-42.128-4.673-51.252a22.9,22.9,0,0,1,2.164-15.961s-4.336-6.945-4.121-11.833-3.346-14.211-3.346-14.211l-5.049-34.308a66.652,66.652,0,0,0-2.5-19.545c-2.931-9.776-7.275-22.591-7.275-22.591l4.9.437,24.74,2.2s60.153-4.044,62.846-.683a11.288,11.288,0,0,1,1.136,3.507c2.7,12.132,6.269,50.139,6.269,50.139s7.274,29.643,4.151,32.574-2.74,12.477-2.74,12.477C557.867,542.05,555.143,558.7,555.143,558.7Z" transform="translate(-129.042 -116.045)" fill="#444053"/><path d="M506.678,699.458c-.169,2.693-3.169,2.854-3.169,2.854-8.794,1.381-10.666,4.8-10.666,4.8a28.245,28.245,0,0,1-21.171,7.167c-10.82-1.044-9.768-2.97-9.208-6.538a13.523,13.523,0,0,0,.176-2.01c0-4.888,3.745-6.277,9.607-9.976s5.7-6.76,8.142-9.446,2.693-7.9,2.693-7.9c2.762-4.811,9.768.767,9.768.767.33,1.7,10.743,1.466,10.743,1.466s1.381,5.54,2.095,5.863c.468.215.821,4.558.959,8.287C506.724,696.757,506.74,698.529,506.678,699.458Z" transform="translate(-131.429 -172.829)" fill="#b07473"/><path d="M506.678,705.023c-.169,2.693-3.169,2.854-3.169,2.854-8.794,1.381-10.666,4.8-10.666,4.8a28.245,28.245,0,0,1-21.171,7.167c-10.82-1.044-9.768-2.97-9.208-6.538,4.834,1.2,14.073,2.87,19.468-.061,7.5-4.067,12.876-6.906,12.876-6.906l11.848-5.962C506.724,702.321,506.74,704.094,506.678,705.023Z" transform="translate(-131.429 -178.394)" opacity="0.1"/><path d="M592.877,714.9a4.68,4.68,0,0,1-2.7,2.233l-.207.054c-3.584.767-17.434.767-17.434.767s-14-10.827-18.24-11.073a8.908,8.908,0,0,1-6.515-3.913s.084-2.517.353-5.448c.33-3.468.905-7.5,1.926-8.556,1.872-1.957,2.3-4.6,6.515-2.931,0,0,6.016-10.6,13.106-2.409l7.336,11.127s1.381,4.6,10.674,9.6c3.714,2,5.371,4.343,5.84,6.484A5.717,5.717,0,0,1,592.877,714.9Z" transform="translate(-151.352 -173.771)" fill="#b07473"/><path d="M592.877,720.051c-.829.7-1.742,1.45-2.7,2.233l-.207.054c-3.584.767-17.434.767-17.434.767s-14-10.827-18.24-11.073a8.908,8.908,0,0,1-6.515-3.913s.084-2.517.353-5.448c4.313,1.289,10.843,3.568,12.592,6.024,2.686,3.737,10.843,8.955,10.843,8.955s15.209-1.466,21.962-1.665A5.717,5.717,0,0,1,592.877,720.051Z" transform="translate(-151.352 -178.927)" opacity="0.1"/><path d="M517.123,223.808,497.1,244.98s-24.271-1.788-20.036-8.955c2.156-3.653,2.494-11.3,2.3-17.941-.177-6.407-.836-11.863-.836-11.863s34.04-16.943,31.462-1.143a26,26,0,0,0-.092,9.016C511.345,222.074,517.123,223.808,517.123,223.808Z" transform="translate(-134.784 -61.596)" fill="#d38884"/><path d="M510.551,205.077a26.005,26.005,0,0,0-.092,9.016,24.985,24.985,0,0,1-17.818,7.436c-4.6,0-9.584-3.783-13.306-5.97-.176-6.415-.215-9.339-.215-9.339S513.16,189.277,510.551,205.077Z" transform="translate(-135.379 -61.596)" opacity="0.1"/><path d="M514.209,186.568a25.085,25.085,0,1,1-9.438-19.6A25.085,25.085,0,0,1,514.209,186.568Z" transform="translate(-131.87 -53.024)" fill="#d38884"/><path d="M546.656,437.972c-6.246,14.864-46.425,15.171-46.425,15.171V436.936l-2.432-.161c1.051,4.642-1.473,15.961-1.473,15.961-31.753,4.481-39.5-13.613-39.5-13.613l1.1-6.193,24.74,2.2s60.153-4.044,62.846-.683a11.287,11.287,0,0,1,1.136,3.522Z" transform="translate(-130.193 -116.173)" opacity="0.1"/><path d="M500.232,403.412V387.205l-2.432-.153c1.051,4.6-1.473,15.961-1.473,15.961-23.9,3.369-34.193-6.039-37.823-10.9a14.845,14.845,0,0,1-1.673-2.7l9.7-54.559,2.3-80.3,3.476-14.089.806-6.76v-.077h.084l2.471,1.059,14.787,6.392,16.8-12.684.246-.176.836-.637,1.389,1.113,3.453,2.77,11.073,71.51s19.184,55.058,22.775,77.28c.146.89.261,1.719.353,2.494C549.749,403.036,500.232,403.412,500.232,403.412Z" transform="translate(-130.193 -68.399)" fill="#607d8b"/><circle cx="1.427" cy="1.427" r="1.427" transform="translate(360.631 172.832)" fill="#67647e"/><circle cx="1.427" cy="1.427" r="1.427" transform="translate(361.291 185.862)" fill="#67647e"/><circle cx="1.427" cy="1.427" r="1.427" transform="translate(362.718 206.956)" fill="#67647e"/><circle cx="1.427" cy="1.427" r="1.427" transform="translate(365.074 229.678)" fill="#67647e"/><circle cx="1.427" cy="1.427" r="1.427" transform="translate(366.501 251.01)" fill="#67647e"/><circle cx="1.427" cy="1.427" r="1.427" transform="translate(367.928 273.732)" fill="#67647e"/><circle cx="1.427" cy="1.427" r="1.427" transform="translate(367.36 296.207)" fill="#67647e"/><path d="M474.062,344.548s-1.6,20.9-4.527,26.973-4.236,23.128-4.236,23.128l-6.806-.767a14.849,14.849,0,0,1-1.673-2.7l9.7-54.559,2.3-80.3,3.484-14.1.806-6.76.092-.038a2.747,2.747,0,0,1,2.425.038l.322.169q-.146.414-.276.852c-2.655,8.31-3.645,23.627-3.645,23.627s3.837,28.016,4.236,41.046S474.062,344.548,474.062,344.548Z" transform="translate(-130.191 -70.164)" opacity="0.1"/><path d="M453.774,437.1a3.929,3.929,0,0,1-.261.506c-2.64,4.458-9.331,7.29-11.365,8.065-.384-.683-.6-1.082-.6-1.082l1.412-6.622,7.466-3.069a20.863,20.863,0,0,1,3.346,2.2Z" transform="translate(-126.638 -116.631)" opacity="0.1"/><path d="M429.206,298.81l-6.193,3.691-5.64,25.085s-7.06,21.279-1.634,36.48,8.579,23.9,8.579,23.9,2.172,17.266,5.433,18.677,4.665,2.172,4.665,2.172l.652,4.128s8.84-3,11.963-8.287-2.3-18.417-2.3-18.417-4.666-11.188-3.468-16.4-2.394-18.892-2.394-19.184-.322-7.6,2.3-13.2.875-7.981.875-7.981l-1.634-15.961Z" transform="translate(-120.157 -84.97)" fill="#67647e"/><path d="M562.337,385.667s-16.4,6.185-21.609.767-4.673-30.84-4.673-30.84-4.988-46.908-8.142-54.613-1.535-63.307-1.535-63.307-2.118-7.19-3.967-9.07a2.012,2.012,0,0,0-.391-.315l.637.138,2.225.476,3.453,2.77,11.073,71.51s19.184,55.058,22.775,77.28Z" transform="translate(-145.359 -68.564)" opacity="0.1"/><path d="M592.952,434.179h-.184c-2.064.269-20.281,2.471-20.358-1.32a11.113,11.113,0,0,1,.069-1.312l16.882-1.727,3.346,3.438h0c.061.223.107.414.154.568Z" transform="translate(-157.082 -115.449)" opacity="0.1"/><path d="M575.471,266.07l11.971,6.246s9.976,25.829,11.572,36.9c0,0,7.39,29.666,2.3,41.867S596.65,387.5,596.65,387.5s-2.931,4.451-4.128,3.261.437,4.665.437,4.665-20.465,2.716-20.55-1.3,4.7-23.236,4.7-23.236,1.3-45.711-.545-52.878S575.471,266.07,575.471,266.07Z" transform="translate(-157.082 -77.354)" fill="#67647e"/><path d="M526.887,329.52s-6.737,16.5-8.909,17.588.437,5.425.437,5.425S530.686,335.383,526.887,329.52Z" transform="translate(-144.218 -92.115)" opacity="0.1"/><path d="M521.424,254.1c.077-.315-8.034,7.957-10.206,9.208S519.145,263.229,521.424,254.1Z" transform="translate(-142.776 -74.566)" opacity="0.1"/><path d="M491.878,327.82s-12.377,8-10.743,11.173S491.878,327.82,491.878,327.82Z" transform="translate(-135.813 -91.719)" opacity="0.1"/><path d="M524.47,480.07s10.536,6.776,26.927,8.441Z" transform="translate(-145.929 -127.14)" opacity="0.1"/><path d="M491.5,501.3s9.768,12.278,14.227,12.592S491.5,501.3,491.5,501.3Z" transform="translate(-138.259 -132.079)" opacity="0.1"/><path d="M505.757,564c-.437.215-5.54,11.073-10.743,11.4S505.757,564,505.757,564Z" transform="translate(-138.834 -146.666)" opacity="0.1"/><path d="M568.33,594.9s9.684-2.172,11.84,4.773C580.17,599.652,579.518,597.481,568.33,594.9Z" transform="translate(-156.133 -153.78)" opacity="0.1"/><path d="M559.84,646.5s11.733-2.394,14.227.867S559.84,646.5,559.84,646.5Z" transform="translate(-154.158 -165.663)" opacity="0.1"/><path d="M513.1,654c0,.107-11.94,2.394-11.51,3.913s12.738,1.3,13.175-1.09A2.3,2.3,0,0,0,513.1,654Z" transform="translate(-140.603 -167.604)" opacity="0.1"/><path d="M554.75,667.211s19.621-2.394,18.417,1.734S554.75,667.211,554.75,667.211Z" transform="translate(-152.974 -170.516)" opacity="0.1"/><path d="M420.89,352.44c.107.322,12.922,2.064,14.656,6.193,0,0-12.592-5.87-14.58-5.87" transform="translate(-121.832 -97.447)" opacity="0.1"/><path d="M441.372,396.16s-10.643,3.369-9.884,8.441S430.406,402.253,441.372,396.16Z" transform="translate(-124.289 -107.618)" opacity="0.1"/><path d="M437.92,428.487s3.875-5.318,7.566-4.343S437.92,428.487,437.92,428.487Z" transform="translate(-125.794 -114.101)" opacity="0.1"/><path d="M504.782,166.968a6.04,6.04,0,0,1-1.243.929c-3.069,1.788-3.914,4.543-5.371,7.72-1.358,2.908-2.855,5.985-5.594,7.635-3.538,2.133-8.2,1.351-11.871,3.208a9.208,9.208,0,0,0-4.911,9.078,26.187,26.187,0,0,0,1.044,4.159,29.658,29.658,0,0,1,1.12,9.032,1.536,1.536,0,0,1,0,.269,25.077,25.077,0,1,1,26.857-42.028Z" transform="translate(-131.881 -53.022)" opacity="0.1"/><path d="M500.333,155.005c-2.755-5.786-8.748-9.454-14.91-11.242-4.7-1.358-9.814-1.8-14.48-.307a53.113,53.113,0,0,0-7.574,3.553c-4.65,2.348-9.761,4.205-13.26,8.065a4.041,4.041,0,0,0-1.328,3.238,9.044,9.044,0,0,0,1.312,2.348,7.126,7.126,0,0,1,.069,5.9A54.125,54.125,0,0,0,448,172.232c-.476,1.972-.292,4.282,1.166,5.686a21.263,21.263,0,0,0,2.195,1.535,11.549,11.549,0,0,1,2.08,2.363l4.144,5.663a57.444,57.444,0,0,1,5.187,7.973,37.991,37.991,0,0,0,3.208,6.085c1.381,1.834,3.53,3.307,5.817,3.108a1.128,1.128,0,0,0,.921-.437,1.212,1.212,0,0,0,.115-.576,29.451,29.451,0,0,0-1.1-9,25.976,25.976,0,0,1-1.044-4.159,9.247,9.247,0,0,1,4.911-9.078c3.683-1.857,8.341-1.074,11.871-3.2,2.747-1.657,4.243-4.735,5.594-7.674,1.481-3.177,2.3-5.932,5.372-7.72S501.86,158.052,500.333,155.005Z" transform="translate(-128.084 -48.611)" fill="#585268"/><path d="M501.63,693.06s3.837,4.888,2.839,7.674S501.63,693.06,501.63,693.06Z" transform="translate(-140.616 -176.691)" opacity="0.1"/><path d="M569.28,706.968s.852-6.553,4.266-6.615,3.583-.353,6.193.652,5.057,2.563,4.274,2.793-4.489-3.745-8.3-1.711A27.406,27.406,0,0,0,569.28,706.968Z" transform="translate(-156.354 -178.368)" opacity="0.1"/><path d="M483.676,251.14l10.743-7.528s-15.715-9.285-17.588-7.98-3.161,13.045-3.161,13.045Z" transform="translate(-134.111 -70.243)" opacity="0.1"/><path d="M483.616,250.466l10.743-7.674s-15.715-9.285-17.588-7.98-3.161,13.69-3.161,13.69Z" transform="translate(-134.097 -70.052)" fill="#e1e7ef"/><path d="M483.616,250.466l10.743-7.674s-15.715-9.285-17.588-7.98-3.161,13.69-3.161,13.69Z" transform="translate(-134.097 -70.052)" fill="#607d8b"/><path d="M467.41,234.789l-.322-.161a2.785,2.785,0,0,0-3.016.315l-32.229,26.144s-7.006,9.692-6.031,26.412l19.007,26.926s2.172-9.116,4.773-7.382c0,0,3.691,46.694,0,53.423s-5.318,31.922-5.318,31.922l12.485,1.412s1.3-17.051,4.236-23.128,4.527-26.973,4.527-26.973,2.64-30.357,2.2-43.386-4.236-41.046-4.236-41.046S464.556,242.846,467.41,234.789Z" transform="translate(-122.955 -69.968)" fill="#67647e"/><path d="M517.83,244.706l-13.39-4.957s17.051-18.677,19.184-8.318Z" transform="translate(-141.269 -68.567)" opacity="0.1"/><path d="M517.83,243.856,504.44,238.9s17.051-18.677,19.184-8.318Z" transform="translate(-141.269 -68.369)" fill="#e1e7ef"/><path d="M517.83,243.856,504.44,238.9s17.051-18.677,19.184-8.318Z" transform="translate(-141.269 -68.369)" fill="#607d8b"/><path d="M521.32,228.117a.767.767,0,0,1,.552.123Z" transform="translate(-145.196 -68.522)" opacity="0.1"/><path d="M523,226.426l35.529,7.674s9.776,2.172,16.836,26.712-9.669,54.6-9.669,54.6L562,312.278l1.849,71.663s-16.4,6.185-21.609.767-4.666-30.863-4.666-30.863-5-46.9-8.149-54.613-1.535-63.3-1.535-63.3S525,226,523,226.426Z" transform="translate(-145.587 -68.127)" fill="#67647e"/><path d="M565.219,285.842c-.5.46-1.082,22.146,1.09,38.652a210.638,210.638,0,0,0,6.139,29.75l-3.223-66.123S566.738,284.43,565.219,285.842Z" transform="translate(-155.301 -81.879)" opacity="0.1"/><path d="M559.7,261.6c.867.545,4.673,9.554,2.931,13.245S559.7,261.6,559.7,261.6Z" transform="translate(-154.125 -76.314)" opacity="0.1"/><path d="M505.947,156.31a19.613,19.613,0,0,0-7.812-8.18,18.578,18.578,0,0,1,5.855,6.906c1.535,3.069,1.082,6.139-1.9,7.819s-3.914,4.543-5.371,7.72c-1.358,2.908-2.855,5.985-5.6,7.674-3.53,2.133-8.188,1.343-11.871,3.2a9.27,9.27,0,0,0-4.911,9.085,26.1,26.1,0,0,0,1.051,4.151,29.682,29.682,0,0,1,1.12,9.032,1.212,1.212,0,0,1-.123.576,1.1,1.1,0,0,1-.913.437,5.287,5.287,0,0,1-2.678-.5,6.231,6.231,0,0,0,4.6,1.8.905.905,0,0,0,1.028-1.013,29.442,29.442,0,0,0-1.113-9.032,25.211,25.211,0,0,1-1.051-4.159,9.247,9.247,0,0,1,4.911-9.078c3.683-1.857,8.341-1.074,11.871-3.2,2.747-1.657,4.243-4.735,5.594-7.674,1.481-3.177,2.3-5.932,5.371-7.72S507.482,159.356,505.947,156.31Z" transform="translate(-133.906 -49.915)" opacity="0.1"/><path d="M755.52,258.023c-10.574-.207-19.905-7.674-25.192-16.8a16.883,16.883,0,0,1-2.548-7.19,8.305,8.305,0,0,1,.292-1.719,17.842,17.842,0,0,0,.767-2.632,4.6,4.6,0,0,0,0-1.074s0,0,0-.061a6.348,6.348,0,0,0-2.3-5.164c-1.412-1.328-3.185-2.3-4.658-3.622-4.543-3.99-5.924-10.39-6.008-16.483v-.322c.054-2.609.261-5.226.238-7.835a32.943,32.943,0,0,0-.192-4.435c-.437-3.691-1.842-7.451-4.742-9.807-7.566-6.139-20.289.253-28.124-5.548-1.9-1.42-3.445-3.514-5.755-4.067a9.7,9.7,0,0,0-5.256.714c-5.771,1.9-12.209,4.4-14.465,9.976-1.289,3.2-.929,6.852-2.11,10.091-.767,2.172-2.233,4.036-3.3,6.093a9.539,9.539,0,0,0-1.228,5.088,5.74,5.74,0,0,0,.376,2.709,6.9,6.9,0,0,0,1.88,2.693,8.947,8.947,0,0,1-1.12,1.8c-1.473,1.8-3.737,3.069-5.272,4.865-2.839,3.292-2.732,7.766-1.335,11.633s3.921,7.39,5.663,11.157c.767,1.634,1.351,3.461.576,5.088a14.59,14.59,0,0,1-2.548,2.962,9.308,9.308,0,0,0-2.3,5.141c-17.273,3.944-17.289,17.826-17.289,17.826h0l-9.331,23.466s-1.5,3.952-3.254,9.17l-11.042-1.98,7.674,12.846c-1.45,5.233-2.479,10.083-2.141,12.523,0,0-3.43,16.114,2.67,18.931l13.459,6.054a7.975,7.975,0,0,0,1.865.836l.545.246a1.443,1.443,0,0,0,1.258,0h.184a1.812,1.812,0,0,0,.767-.115,1.535,1.535,0,0,0,.675-.729.233.233,0,0,1,0-.077l4.029-1.166,3.415,4.044c1.535,1.082,3.069,2.018,4.52,2.862l-5.287,52.5s-.852,69.829-3.43,85.744a44.57,44.57,0,0,0-.6,12.646l-.1.169c.637,4.489,2.3,5.371,2.3,5.371v-.061a.5.5,0,0,0,.1.061,45.209,45.209,0,0,1,2.762-5.924v1.151c-.054,5.924-.238,14.219-.852,19.614-1.044,9.208,2.67,39.557,2.67,39.557l1.281,27.625a25.538,25.538,0,0,1-3.146,13.459c-3.069,5.517-6.99,13.283-7.274,16.728a3.433,3.433,0,0,0,0,.56h0l-6.584,7.919s-2.571,3.975,3.238,5.579c3.123.867,8.51,0,12.838-1.021a8.579,8.579,0,0,0,6.653-8.349,29.544,29.544,0,0,1,5.433-10.428l1.082,6.361,7.244,1.8.928-17.434a7.674,7.674,0,0,0,.5-3.069h0c1.427-12.4-3.361-11.288-3.361-11.288a.667.667,0,0,1,.23.43l-.23-.422h0c-2.939-5.8-1.535-15.347-1.535-15.347s3.837-27.625,5.149-34.922c.944-5.157.552-22.038.238-31.462a11.242,11.242,0,0,0-.038-1.143c11.234-.146,25-.522,34.661-1.458v1.136l-1.78,65.264a35.831,35.831,0,0,1-2.5,12.14.661.661,0,0,1-.084.222,52.949,52.949,0,0,0-3.537,17.1L691,627.535v.576h0c-1.443.552-3.722,2.156-3.783,6.806-.1,6.814,11.909,4.543,11.909,4.543,12,0,12.1-12.493,12.1-12.493s.376-11.457.952-19.122-1.811-5.978-1.811-5.978l-.184,21.808V604.729l.184-2.77v-.077h0v-.591l1.512-22.491s11.057-37.478,12.769-44.668c1.22-5.111.714-20.5.315-29.014a6.764,6.764,0,0,0-.061-1.128c3.43-.307,6.461-.338,7.674-.338h.56s-.568-60.191-2-82.874-3.714-43.44-9.431-49.686c-3.453-3.775-8.264-15.431-11.51-24.064a120.383,120.383,0,0,0,21.156,6.906c18.1,3.791,15.623-11.925,15.623-11.925l-1.834-29.72h.123a151.521,151.521,0,0,0-2-23.236,68.361,68.361,0,0,0-4.666-16.882c1.964-.767,3.906-1.588,5.809-2.433,4.919-2.172,10.459-5.249,11.165-10.551h-.238a6.826,6.826,0,0,0,.184-1.166ZM643.31,300.995h0c.038,3.069-.077,8.395-.261,14.28L637.3,307.6l5.763-9.346ZM720.322,316.579Zm2.394,11.61-9.577-3.069a42.971,42.971,0,0,1,5.916-7.321l.829-.767-.3.061.46-.422.276-.061-.437.422.522-.107a16.336,16.336,0,0,0,3.261,6.561c3.438,3.752-.944,4.7-.944,4.7Z" transform="translate(-164.883 -55.264)" fill="url(#b)"/><path d="M648.188,715.66l-1.12,21.24-7.144-1.788-1.5-8.832Z" transform="translate(-148.528 -166.494)" fill="#a27772"/><path d="M648.188,715.66l-1.12,21.24-7.144-1.788-1.5-8.832Z" transform="translate(-148.528 -166.494)" opacity="0.1"/><path d="M716.48,726.065l10.9,2.256,8.08-7.136V701.072l.184-2.747v-.084h0v-.583l1.5-22.353s10.9-37.209,12.6-44.353c1.2-5.065.7-20.35.3-28.8-.161-3.461-.3-5.778-.3-5.778l-24.057-5.824-.506,18.493-1.757,64.8a35.9,35.9,0,0,1-2.463,12.055l-.084.223a52.732,52.732,0,0,0-3.491,16.974l-.813,20.6v.568Z" transform="translate(-190.6 -152.842)" fill="#cc818c"/><path d="M741.45,730.145v.568h0v-.583Z" transform="translate(-196.409 -185.315)" opacity="0.1"/><path d="M716.48,765.152l10.9,2.256,8.08-7.136V758.56A2.3,2.3,0,0,1,734.3,760.4l-.115.069a21.716,21.716,0,0,1-12.232,2.417l-4.251-.361a3.982,3.982,0,0,0-1.128.276v.568Z" transform="translate(-190.6 -191.929)" opacity="0.1"/><path d="M733.071,754.546l.115-.061a2.3,2.3,0,0,0,1.174-2l.177-21.647s2.348-1.68,1.78,5.932-.936,18.984-.936,18.984-.092,12.4-11.932,12.4c0,0-11.84,2.256-11.748-4.512s4.888-7.044,4.888-7.044l4.251.368A21.662,21.662,0,0,0,733.071,754.546Z" transform="translate(-189.487 -185.444)" fill="#b07473"/><path d="M642.52,723.61c.276,4.888,14.656,2.064,14.656,2.064l9.676-18.785s8.08-6.208,4.036-11.656a8.693,8.693,0,0,1-.591-.929l-.038-.046h0c-.084-.138-.161-.284-.238-.437h0c-2.9-5.755-1.473-15.194-1.473-15.194s3.752-27.441,5.072-34.677c.928-5.111.545-21.877.238-31.254-.123-3.9-.238-6.515-.238-6.515l-23.872-6.392v7.121c-.054,5.886-.238,14.119-.844,19.475-1.028,9.109,2.632,39.273,2.632,39.273l1.266,27.448a25.422,25.422,0,0,1-3.069,13.36c-2.993,5.479-6.906,13.2-7.175,16.613a3.371,3.371,0,0,0-.038.529Z" transform="translate(-173.393 -154.992)" fill="#cc818c"/><path d="M642.518,752.265c.276,4.888,14.656,2.064,14.656,2.064l9.676-18.785s8.08-6.208,4.036-11.656a8.693,8.693,0,0,1-.591-.929c-.13,2.847-3.254,9.976-3.254,9.976s-7.988,15.984-10.528,19.644-13.574-.683-13.989-.836a3.355,3.355,0,0,0-.008.522Z" transform="translate(-173.391 -183.647)" opacity="0.1"/><path d="M667.858,722.292s4.727-1.1,3.315,11.211h0a7.927,7.927,0,0,1-3.737,7.037c-3.384,2.126-8.6,6.7-11.242,15.593h0a8.5,8.5,0,0,1-6.561,8.287c-4.266,1-9.584,1.872-12.661,1.013-5.732-1.6-3.192-5.54-3.192-5.54l6.576-7.8s11.464,4.512,14,.844S664.881,733.3,664.881,733.3,669.263,723.328,667.858,722.292Z" transform="translate(-171.229 -183.486)" fill="#b07473"/><path d="M728.326,593.52l-.506,18.493c6.407-.622,11-1.489,11.779-2.709,1.7-2.624,7.85-3.729,13.083-4.182-.161-3.461-.3-5.778-.3-5.778Z" transform="translate(-193.238 -153.533)" opacity="0.1"/><path d="M651.94,609.841a8.778,8.778,0,0,1,2.632-3.177c2.532-1.4,2.256,9.024,2.256,9.024s8.441.077,19.222-.061c-.123-3.9-.238-6.523-.238-6.523L651.94,602.72S651.986,605.682,651.94,609.841Z" transform="translate(-175.585 -155.674)" opacity="0.1"/><path d="M647.636,562.4s2.824-7.674,5.371-9.039,2.256,9.016,2.256,9.016,62.018.568,65.118-4.228,21.141-4.512,21.141-4.512-.56-59.762-1.972-82.306-3.66-43.133-9.3-49.333c-3.645-4.013-8.832-17-12.04-25.653-1.742-4.727-2.9-8.172-2.9-8.172l-59.194,3.376-.483,4.8L649.347,459.2s-.844,69.346-3.384,85.13S647.636,562.4,647.636,562.4Z" transform="translate(-174.005 -105.76)" fill="#444053"/><g transform="translate(471.214 282.41)" opacity="0.1"><path d="M719.68,558.147c3.069-4.788,21.141-4.512,21.141-4.512s-.56-59.762-1.972-82.306-3.66-43.133-9.3-49.333c-3.66-4.029-8.832-17-12.04-25.653-1.466-3.975-2.517-7.037-2.808-7.911l4.6-.261s1.159,3.445,2.908,8.172c3.208,8.656,8.387,21.639,12.032,25.653,5.64,6.2,7.9,26.781,9.3,49.333s1.98,82.306,1.98,82.306-18.041-.276-21.148,4.512c-2.647,4.09-48.282,4.282-61.526,4.243C679.847,562.352,717.286,561.845,719.68,558.147Z" transform="translate(-649.337 -388.17)"/><path d="M648.21,603.4c1.143-.637,1.711,1.128,2,3.269a44.267,44.267,0,0,0-2.663,5.771s-1.634-.882-2.3-5.371C646.176,605.464,647.212,603.953,648.21,603.4Z" transform="translate(-645.24 -438.212)"/></g><path d="M668.651,197.169c-4.1,5.586.046,13.528-4.351,18.961-1.45,1.8-3.683,3.069-5.2,4.834-2.8,3.269-2.693,7.712-1.32,11.549s3.837,7.336,5.586,11.081c.767,1.619,1.335,3.438.568,5.049a14.3,14.3,0,0,1-2.517,2.939c-2.824,3.154-2.9,7.535-1.381,11.249s4.42,6.906,7.282,10.052c1.128,1.235,2.555,2.6,4.435,2.563a6.139,6.139,0,0,0,2.786-.913,28.392,28.392,0,0,0,12.922-37.056c-2.379-5.7-6.346-11.165-6.384-17.189,0-4.781,2.456-9.346,2.893-14.1.529-5.786-2.893-14.971-9.876-17.5C674.56,192.4,670.731,194.3,668.651,197.169Z" transform="translate(-176.726 -59.351)" fill="#585268"/><path d="M668.651,197.169c-4.1,5.586.046,13.528-4.351,18.961-1.45,1.8-3.683,3.069-5.2,4.834-2.8,3.269-2.693,7.712-1.32,11.549s3.837,7.336,5.586,11.081c.767,1.619,1.335,3.438.568,5.049a14.3,14.3,0,0,1-2.517,2.939c-2.824,3.154-2.9,7.535-1.381,11.249s4.42,6.906,7.282,10.052c1.128,1.235,2.555,2.6,4.435,2.563a6.139,6.139,0,0,0,2.786-.913,28.392,28.392,0,0,0,12.922-37.056c-2.379-5.7-6.346-11.165-6.384-17.189,0-4.781,2.456-9.346,2.893-14.1.529-5.786-2.893-14.971-9.876-17.5C674.56,192.4,670.731,194.3,668.651,197.169Z" transform="translate(-176.726 -59.351)" opacity="0.1"/><path d="M717.817,464.55c-8.2.43-15.923,3.96-23.105,7.95s-14.135,8.51-21.862,11.342" transform="translate(-180.449 -123.529)" opacity="0.1"/><path d="M713.136,489.74A33.817,33.817,0,0,0,691.842,500.1c-2,2.11-3.714,4.474-5.794,6.5a25.737,25.737,0,0,1-11.418,6.469" transform="translate(-180.863 -129.389)" opacity="0.1"/><path d="M712.923,508.91A37.232,37.232,0,0,0,695.8,519.239c-1.258,1.358-2.4,2.809-3.66,4.167-6.791,7.29-16.383,11.157-25.645,14.818" transform="translate(-178.97 -133.849)" opacity="0.1"/><path d="M716.219,242.94a168.381,168.381,0,0,0,1.688,19.583c.767,4.6,1.842,8.748,3.384,10.582,4.512,5.371-21.985,12.546-21.985,12.546L683.66,273.527s12.4-11.418,6.622-22.553S716.219,242.94,716.219,242.94Z" transform="translate(-182.964 -71.88)" fill="#cc818c"/><path d="M658.79,396.342h62.578c-1.742-4.727-2.9-8.172-2.9-8.172l-59.194,3.376Z" transform="translate(-177.178 -105.76)" opacity="0.1"/><path d="M649.836,368.244h66.906c-1.88-6.73,0-12.953,2.678-17.741a39.21,39.21,0,0,1,7.006-9.085l.46-.422,23.358-5.172,1.258-.276s.192-42.473-14.848-48.3A87.931,87.931,0,0,1,712.6,273.529l-20.665,6.384-15.224-7.674c-4.888,5.256-17.856,3.192-17.856,3.192-21.233,2.44-21.233,18.417-21.233,18.417s12.4,28.937,13.344,28.937S649.836,368.244,649.836,368.244Z" transform="translate(-172.253 -78.789)" fill="#607d8b"/><path d="M678.1,359.64s-13.644-3.023-18.286-8.31" transform="translate(-177.416 -97.189)" opacity="0.1"/><path d="M768.493,341.51,752.67,354.478a26.979,26.979,0,0,0,.522,3.069l.46-.422,23.358-5.172Z" transform="translate(-199.019 -94.904)" opacity="0.1"/><path d="M717.46,385.887s3.461,1.949,8.763,4.512h9.093c-1.88-6.73,0-12.953,2.678-17.741l-16.03-5.187C727.42,372.542,717.46,385.887,717.46,385.887Z" transform="translate(-190.828 -100.944)" opacity="0.1"/><path d="M641.312,293.76l-9.392,5.072-9.208,23.3s-9.584,25.553-8.648,32.321c0,0-3.376,15.976,2.632,18.793l15.654,7.09a1.458,1.458,0,0,0,1.88-2.01c-2.233-4.228-4.689-10.843-.767-14.48l-4.512-9.392,16.306-26.689,5.448-9.208Z" transform="translate(-166.553 -83.796)" fill="#607d8b"/><path d="M677.053,353.247c.813,3.315,3.561,8.441,12.654,10.352l9.976,8.172,10.613,4.811,4.328,1.957,1.834-13.252-4.167-2.3-4.857-2.655s-10.958-19.851-28.308-11.51A3.837,3.837,0,0,0,677.053,353.247Z" transform="translate(-181.398 -96.129)" opacity="0.1"/><path d="M677.8,351.791c.813,3.323,3.553,8.441,12.646,10.352l9.976,8.172,10.62,4.811,4.32,1.957,1.834-13.252-4.167-2.3-4.819-2.632s-10.965-19.851-28.315-11.472a3.837,3.837,0,0,0-2.095,4.366Z" transform="translate(-181.576 -95.8)" fill="#cc818c"/><circle cx="24.241" cy="24.241" r="24.241" transform="translate(491.534 139.767)" opacity="0.1"/><circle cx="24.241" cy="24.241" r="24.241" transform="translate(491.534 139.207)" fill="#cc818c"/><path d="M720.67,293.132l-7.29-14.165s10.666-4.313,11.441-9.308,10.221,5.855,8.18,9.454S720.67,293.132,720.67,293.132Z" transform="translate(-189.878 -77.888)" opacity="0.1"/><path d="M720.67,291.662,713.38,277.5s10.666-4.313,11.441-9.308,10.221,5.863,8.18,9.454S720.67,291.662,720.67,291.662Z" transform="translate(-189.878 -77.546)" fill="#607d8b"/><path d="M636.317,345.264,676.6,399.416s-14.848,8.08-35.3-6.384L632.465,382.5,607.25,340Z" transform="translate(-165.188 -94.553)" fill="#f6f8fb"/><path d="M634.514,381l3.668-.1s22.407-21.747,27.909-10.743-13.958,21.286-13.958,21.286l-5.916,3.192-7.712,2.3-4.934-6.622Z" transform="translate(-171.311 -100.846)" fill="#cc818c"/><path d="M638.385,396.279a5.475,5.475,0,0,1,.092,3.791,1.535,1.535,0,0,1-.668.729,1.711,1.711,0,0,1-.767.107,7.712,7.712,0,0,1-5.057-2.5,23.094,23.094,0,0,1-3.277-4.742c-1-1.742-2.034-3.668-1.68-5.648.4-2.156,2.3-3.653,4.167-4.865,3.714-2.456,3.837.407,4.65,3.568S637.534,393.087,638.385,396.279Z" transform="translate(-169.773 -104.376)" opacity="0.1"/><path d="M637.655,396.279a5.519,5.519,0,0,1,.092,3.791,1.534,1.534,0,0,1-.668.729,1.727,1.727,0,0,1-.767.107,7.674,7.674,0,0,1-5.057-2.5,22.832,22.832,0,0,1-3.284-4.742c-1-1.742-2.034-3.668-1.673-5.648.391-2.156,2.3-3.653,4.159-4.865,3.722-2.456,3.837.407,4.658,3.568S636.8,393.087,637.655,396.279Z" transform="translate(-169.602 -104.376)" fill="#607d8b"/><path d="M623.85,316.979l1.872-3.169-1.634,5.886Z" transform="translate(-145.139 -73.006)" opacity="0.1"/><path d="M721.19,380.028l4.32,1.957,1.834-13.252-4.167-2.3C726.055,369.73,723.538,375.83,721.19,380.028Z" transform="translate(-191.695 -100.702)" opacity="0.1"/><path d="M737.764,363.2s-13.951.852-19.875-2.954" transform="translate(-190.928 -99.264)" opacity="0.1"/><g transform="translate(485.709 194.556)" opacity="0.1"><path d="M739.646,352.363a39.273,39.273,0,0,1,7.006-9.093,18.709,18.709,0,0,1,2.064-1.12l21.747-4.466,1.258-.276s.192-42.473-14.841-48.3A90.334,90.334,0,0,1,733.43,275.9l1.65-.506A87.7,87.7,0,0,0,759.136,289.1c15.04,5.824,14.841,48.3,14.841,48.3h-2.256l-22.253,4.259s-.959.928-1.251,1.2a43.124,43.124,0,0,0-7.113,9.408,23.589,23.589,0,0,0-1.865,17.833h-2.3C735.08,363.375,737,357.152,739.646,352.363Z" transform="translate(-680.252 -274.078)"/><path d="M664.13,277.956c.361-.054.706-.107,1.082-.146a38.9,38.9,0,0,0,4.6.376,41.849,41.849,0,0,1-5.686-.23Z" transform="translate(-664.13 -274.641)"/><path d="M701.526,281.377l-13.766-6.968a7.285,7.285,0,0,0,.767-.729l14.365,7.267Z" transform="translate(-669.627 -273.68)"/></g><path d="M761.016,340l9.208,11.28,1.88,30.633s2.44,15.593-15.409,11.833-38.506-15.378-38.506-15.378,9.976-13.344,4.512-18.417l25.561,8.272s4.32-.944.936-4.7S745.216,353,745.216,353Z" transform="translate(-190.997 -94.553)" fill="#607d8b"/><path d="M779.42,382.17l5.072,5.824a7.313,7.313,0,0,1-5.072-5.824Z" transform="translate(-205.242 -104.364)" opacity="0.1"/><path d="M736.99,360.8l7.9,10.144-3.944.944Z" transform="translate(-171.46 -83.938)" opacity="0.1"/><path d="M665.459,208.5c-.867-2.126-.2-4.6.844-6.607s2.479-3.9,3.261-6.054c1.159-3.208.806-6.837,2.072-9.976,2.233-5.563,8.579-8.05,14.265-9.976a9.591,9.591,0,0,1,5.187-.706c2.3.545,3.8,2.632,5.678,4.036,7.72,5.755,20.273-.583,27.74,5.51,2.854,2.3,4.244,6.07,4.673,9.73s0,7.374-.046,11.065c-.123,6.461,1.09,13.528,5.924,17.81,1.458,1.289,3.177,2.256,4.6,3.591a6.287,6.287,0,0,1,2.3,5.134,17.8,17.8,0,0,1-.767,2.609c-.959,3.369.476,6.906,2.225,9.976,5.218,9.032,14.419,16.475,24.847,16.682-.7,5.264-6.139,8.318-11.011,10.474-6.139,2.755-12.677,5.456-19.437,5.111s-13.812-4.673-14.994-11.334c-.407-2.3-.353-5.072-2.3-6.269-1.2-.729-2.747-.545-4.036-1.09-1.865-.767-2.786-2.862-3.4-4.788a43.094,43.094,0,0,1-2-12.278c-.084-4.942.568-10.336-2.233-14.4-2.594-3.768-7.2-5.678-10.191-9.139-2.762-3.208-5.763-7.075-10.29-7.674C682.111,209.048,669.158,217.558,665.459,208.5Z" transform="translate(-178.637 -56.174)" opacity="0.1"/><path d="M665.459,207.025c-.867-2.126-.2-4.6.844-6.607s2.479-3.9,3.261-6.054c1.159-3.208.806-6.837,2.072-9.976,2.233-5.571,8.579-8.057,14.265-9.976a9.591,9.591,0,0,1,5.187-.706c2.3.545,3.8,2.632,5.678,4.036,7.72,5.755,20.273-.583,27.74,5.51,2.854,2.3,4.244,6.07,4.673,9.738s0,7.367-.046,11.058c-.123,6.461,1.09,13.528,5.924,17.81,1.458,1.289,3.177,2.256,4.6,3.591a6.287,6.287,0,0,1,2.3,5.134,17.8,17.8,0,0,1-.767,2.609c-.959,3.369.476,6.906,2.225,9.976,5.233,9,14.4,16.467,24.824,16.675-.7,5.264-6.139,8.318-11.011,10.482-6.139,2.747-12.677,5.448-19.437,5.1s-13.812-4.673-14.994-11.334c-.407-2.3-.353-5.072-2.3-6.269-1.2-.729-2.747-.545-4.036-1.09-1.865-.767-2.786-2.862-3.4-4.788a43.05,43.05,0,0,1-2-12.278c-.084-4.942.568-10.336-2.233-14.4-2.594-3.768-7.2-5.678-10.19-9.139-2.762-3.208-5.763-7.075-10.29-7.674C682.111,207.578,669.158,216.1,665.459,207.025Z" transform="translate(-178.637 -55.832)" fill="#585268"/><path d="M686.55,291.588l13.9-11.28s-9.515-5.157-10.651-9.554-8.748,2.087-7.973,6.031S686.55,291.588,686.55,291.588Z" transform="translate(-182.524 -78.101)" opacity="0.1"/><path d="M687.274,289.38l13.9-11.272s-9.515-5.157-10.6-9.554-8.748,2.087-7.973,6.031S687.274,289.38,687.274,289.38Z" transform="translate(-182.703 -77.589)" fill="#607d8b"/><circle cx="1.105" cy="1.105" r="1.105" transform="translate(517.908 208.852)" opacity="0.1"/><circle cx="1.105" cy="1.105" r="1.105" transform="translate(517.908 214.991)" opacity="0.1"/><circle cx="1.105" cy="1.105" r="1.105" transform="translate(517.908 221.122)" opacity="0.1"/><g transform="translate(486.598 126.085)" opacity="0.1"><path d="M672.453,193.888c1.1-3.016.859-6.4,1.888-9.438a10.316,10.316,0,0,0-1.174,2.164c-1.274,3.169-.913,6.8-2.08,9.976l-.077.184A17.539,17.539,0,0,0,672.453,193.888Z" transform="translate(-666.619 -184.45)"/><path d="M758.792,274.969c-6.139,2.747-12.677,5.448-19.437,5.1s-13.812-4.673-14.994-11.326c-.407-2.3-.353-5.08-2.3-6.277-1.2-.729-2.747-.545-4.036-1.09-1.865-.767-2.786-2.862-3.4-4.788a43.052,43.052,0,0,1-2-12.278c-.084-4.934.575-10.329-2.225-14.4-2.6-3.768-7.206-5.671-10.2-9.139-2.762-3.2-5.763-7.075-10.29-7.674-6.208-.844-19.184,7.674-22.852-1.4a7.136,7.136,0,0,1,.238-5.241c-.268.453-.529.905-.767,1.366-1.044,2.041-1.7,4.489-.836,6.615,3.691,9.055,16.644.545,22.852,1.4,4.527.614,7.528,4.489,10.29,7.674,2.993,3.468,7.6,5.371,10.19,9.147,2.808,4.067,2.149,9.461,2.233,14.4a43.052,43.052,0,0,0,2,12.278c.614,1.934,1.535,4.006,3.4,4.788,1.289.545,2.839.368,4.036,1.09,1.98,1.2,1.926,4,2.3,6.277,1.2,6.653,8.241,10.981,14.994,11.326s13.26-2.348,19.437-5.1c4.451-1.98,9.408-4.719,10.743-9.208C766.035,271.417,762.26,273.427,758.792,274.969Z" transform="translate(-665.288 -189.571)"/></g><path d="M919.282,326.044C903.037,316.7,896.9,314.4,896.867,314.4l-.338-.238a13.513,13.513,0,0,1-4.09-5.172,10.791,10.791,0,0,1,0-1.113.472.472,0,0,0,0,.107c.253-4.949,3.775-9.454,7.113-13.383l8.541-10.045a9.9,9.9,0,0,0,2.2-3.484,8.036,8.036,0,0,0,.23-2.141v-.875c-.046-2.494-.115-5-.207-7.489-.077-2.179-.637-4.926-2.816-5.371-1.136-.23-2.64.176-3.238-.767a1.864,1.864,0,0,1-.146-1.3.44.44,0,0,0,0,.107v-.123a28.9,28.9,0,0,0,.806-5.134,7,7,0,0,0-.353-2.6c-1.258-3.614-5.609-5.1-9.454-5.786s-8.157-1.266-10.567-4.274a31.246,31.246,0,0,0-2.1-2.893,8.3,8.3,0,0,0-3.929-1.941,22.253,22.253,0,0,0-14.3,1.243c-1.857.829-3.722,1.949-5.763,1.826s-3.929-1.6-6.016-1.949c-3.376-.576-6.607,1.9-8.272,4.842a11.84,11.84,0,0,0-1.535,5.709v.338h0a8.349,8.349,0,0,0,2.195,5.832c1.458,1.535,3.622,2.548,4.228,4.535.246.806.184,1.681.407,2.5a2.239,2.239,0,0,0,.092.3l-.107.146a25.323,25.323,0,0,0-5.371,15.608,25.906,25.906,0,0,0,18.2,24.555c0,.253,0,.506,0,.767a11.04,11.04,0,0,1-3.53,8.594l-23.013,9.193s-13.874-1.65-18.877,18.624A34.57,34.57,0,0,0,816,353.431c.184,3.069-.238,8.441-3.837,15.4-5.686,11.142-4.389,36.718,7.244,39.25,10.981,2.394,15.278,1.4,15.731,1.281v.445c-.184,4.8-1.926,46.195-8.257,51.2-1.75,1.389-1.427,2.3,0,2.954,0,0,0,.269-.038.767-.192,3.069-1.166,14.58-5.371,21.118-4.919,7.6-4.4,51.413-4.4,51.413l-3.353,25.829s2.064,15.953,0,18.739c-1.849,2.479-4.3,61.5-4.819,74.3h-.215a6.231,6.231,0,0,0-4.972,3.069c-2.716,4.412-12.232,12.569-12.232,12.569-2.064,2.931-9.7,5.74-13.736,7.06a8.533,8.533,0,0,0-1.535.675,8.188,8.188,0,0,0-3.469,3.653,3.921,3.921,0,0,0-.368,3.069c1.028,2.525,22.491,4.3,27.924,1.765,4.266-1.987,21.179-4.6,28.2-5.632a5.786,5.786,0,0,0,5.018-5.018,3.307,3.307,0,0,0-.645-2.509h0c-1.343-1.665-2.026-6.216-2.3-9.208a6.223,6.223,0,0,0,1.581-.936,67.413,67.413,0,0,1,3.837-27.1c5.172-13.674,6.722-39,5.433-55.457,0,0,15.769-67.865,28.185-74.2h0c.192.246,6.216,7.973,6.983,31.907.767,24.31,9.561,40.263,9.561,40.263s-3.883,41.276,0,56.723l-5.072,24.363c-.376-.315-.614-.56-.614-.56s.154.675.361,1.757l-.107.522.222.046c.576,3.069,1.427,8.357,1.074,11.51-.2,1.773-.7,4.205-1.036,6.592-.537,3.752-.683,7.39,1.289,8.188,3.238,1.3,22.253,3.069,25.476-1.1a5.978,5.978,0,0,0,.936-6.254,6.331,6.331,0,0,0-.936-1.6s-5.049-8.249-3.622-14.066a4.282,4.282,0,0,0-.606-3.338,171.56,171.56,0,0,1,4.351-27.287c3.238-12.186,10.06-38.9,5.042-56.47h0q-.284-1.036-.645-2.026a75.844,75.844,0,0,1-2.847-29.628,60.385,60.385,0,0,1,0-25.829c3.108-14.181,5.279-28.108,5.279-28.108s1.711-18.739.215-30.226a7.531,7.531,0,0,0-.1-.767l.813-.184s-4.4-19.5-5.947-31.907c-.368-2.931-.844-6.638-1.366-10.6a27.049,27.049,0,0,0,4.213-1.051c13.958-4.811,18.355-48.343,18.355-48.343V356.646S935.573,335.414,919.282,326.044ZM815.259,662.33c-.43-.215-.683-.361-.683-.361h0Z" transform="translate(-203.565 -71.251)" fill="url(#c)"/><path d="M922.276,642.191c6.054,17.411-1.013,45.673-4.3,58.319s-4.289,27.763-4.289,27.763a58.468,58.468,0,0,1-22.207-.506l5.3-25.99c-3.791-15.393,0-56.531,0-56.531s-8.579-15.9-9.339-40.125c-.767-23.842-6.622-31.554-6.806-31.792h0c-12.109,6.308-27.5,73.942-27.5,73.942,1.258,16.4-.261,41.637-5.3,55.25a68.294,68.294,0,0,0-3.783,27c-1.765,1.535-4.22,1.75-6.906,1.32-7.205-1.166-15.846-7.374-15.846-7.374S824.07,649.8,826.1,647s0-18.677,0-18.677l3.277-25.737s-.506-43.663,4.29-51.229c4.144-6.538,5.1-18.033,5.279-21.049v-.767l7.305-8.748s70.658-5.3,75.968,0c1.3,1.3,2.1,4.259,2.578,7.98,1.458,11.449-.215,30.119-.215,30.119s-2.118,13.881-5.149,28.008a61.48,61.48,0,0,0,0,25.745A77.065,77.065,0,0,0,922.276,642.191Z" transform="translate(-214.985 -136.066)" fill="#65617d"/><path d="M939.052,814.449c-3.154,4.167-21.7,2.4-24.862,1.1-1.926-.767-1.78-4.428-1.258-8.165.33-2.371.813-4.8,1.013-6.561.5-4.543-1.535-13.759-1.535-13.759s4.159,4.42,5.164,0a4.813,4.813,0,0,1,3.607-3.422,9.423,9.423,0,0,1,6.553.407c3.277,1.427,8.74,4.458,7.766,8.556-1.389,5.793,3.53,14.02,3.53,14.02a6.383,6.383,0,0,1,.921,1.581,6.054,6.054,0,0,1-.9,6.239Z" transform="translate(-236.182 -197.672)" fill="#a27772"/><path d="M939.108,821.77c-3.154,4.167-21.7,2.4-24.862,1.1-1.926-.767-1.78-4.428-1.258-8.165,2,.936,5.371,1.711,11.027,1.189a31.1,31.1,0,0,1,3.967-.123,92.267,92.267,0,0,0,12.047-.246A6.054,6.054,0,0,1,939.108,821.77Z" transform="translate(-236.237 -204.992)" opacity="0.1"/><path d="M857.932,662.395c1.258,16.4-.261,41.637-5.3,55.25a68.294,68.294,0,0,0-3.783,27c-1.765,1.535-4.22,1.75-6.906,1.32,1.535-10.643,8.011-56.5,12.163-92.735,4.735-41.261,26.857-69.645,26.857-69.645l4.412,4.857C873.325,594.76,857.932,662.395,857.932,662.395Z" transform="translate(-219.787 -151.221)" opacity="0.1"/><path d="M921.668,331.47,918.6,346.61,903.5,371.971l-18.608-7.95s-25.323-26.5-9.4-30.28a14.088,14.088,0,0,0,5.279-2.348c3.123-2.356,4.105-5.778,4.121-9.132a27.993,27.993,0,0,0-2.563-10.85l32.551-10.221a52.249,52.249,0,0,0-2.3,13.183c-.253,8.871,3.069,13.237,5.747,15.347A9.777,9.777,0,0,0,921.668,331.47Z" transform="translate(-226.371 -85.524)" fill="#fbbebe"/><path d="M918.52,301.19a52.246,52.246,0,0,0-2.3,13.183,24.767,24.767,0,0,1-1.9,2.018,25.753,25.753,0,0,1-25.737,5.87A27.994,27.994,0,0,0,886,311.411Z" transform="translate(-230.038 -85.524)" opacity="0.1"/><path d="M917.639,287.957a25.622,25.622,0,1,1-7.506-18.235A25.745,25.745,0,0,1,917.639,287.957Z" transform="translate(-225.42 -76.458)" fill="#fbbebe"/><path d="M921.668,340.113l-3.069,15.14L903.5,380.614l-18.608-7.95s-25.323-26.5-9.4-30.28a14.088,14.088,0,0,0,5.279-2.348c-2.87,7.888,8.978,24.3,8.978,24.3,1.381,2.033,4.543.767,4.543.767,7.635-1.159,21.685-23.113,23.98-26.765A9.775,9.775,0,0,0,921.668,340.113Z" transform="translate(-226.371 -94.167)" opacity="0.1"/><path d="M930.212,528.787c-4.481,1.021-29.275,6.507-38.675,5.134-10.344-1.535-30.456-2.517-30.456-2.517s-12.807.691-16.751-1.113v-.767l7.305-8.748s70.658-5.3,75.968,0C928.931,522.1,929.737,525.065,930.212,528.787Z" transform="translate(-220.343 -136.061)" opacity="0.1"/><path d="M878.4,365.17s-13.314-18.417-8.3-25.63l-22.491,9.208s-13.536-1.642-18.417,18.562a35.155,35.155,0,0,0-.836,10.252c.184,3.069-.23,8.441-3.706,15.347-5.548,11.1-4.29,36.6,7.067,39.135S847.1,433.3,847.1,433.3s-1.535,46.179-8.073,51.482,16.728,4.036,16.728,4.036,20.112,1.013,30.464,2.525,39.365-5.3,39.365-5.3-4.29-19.429-5.809-31.791-5.057-38.7-5.057-38.7l25.737-34.869S945,359.614,929.1,350.275s-21.877-11.625-21.877-11.625-15.976,26.013-24.3,27.272C882.939,365.922,879.778,367.2,878.4,365.17Z" transform="translate(-215.021 -94.239)" fill="#607d8b"/><path d="M855.88,382.74s-.246,8.333,1.266,11.61,7.067,21.486,7.067,21.486H851.59s6.814-7.321,6.315-10.858S855.88,382.74,855.88,382.74Z" transform="translate(-222.032 -104.496)" opacity="0.1"/><path d="M893.667,453.907s-27.87-6.814-30.464-12.615S853.45,422.5,853.45,422.5l2.939-3.96,13.552,10.636s16.114,12.869,23.727,14.135S893.667,453.907,893.667,453.907Z" transform="translate(-222.465 -112.825)" fill="#fbbebe"/><path d="M893.667,453.907s-27.87-6.814-30.464-12.615S853.45,422.5,853.45,422.5l2.939-3.96,13.552,10.636s16.114,12.869,23.727,14.135S893.667,453.907,893.667,453.907Z" transform="translate(-222.465 -112.825)" opacity="0.05"/><path d="M922,421.829v15.117h-2.425a70.664,70.664,0,0,0-34.328,8.893l-4.546,2.518-1.22.683L871.65,431.39l7.321-6.561h.376c1.788.177,9.531.821,12.815-.284,3.115-1.059,6.983-4.412,16.161-2.072,4.52,1.159,8.387,6.223,12.769,4.642Z" transform="translate(-226.699 -113.551)" fill="#fbbebe"/><path d="M952.34,380.8l5.042,5.678v13.759s-4.29,43.4-17.91,48.2-37.953-2.778-37.953-2.778-6.285-16.652-3.346-17.649,25.975-7.09,25.975-7.09-.322-25.461,4.719-33.035c0,0-3.277-23.719,8.08-24.225S952.34,380.8,952.34,380.8Z" transform="translate(-232.687 -100.054)" opacity="0.1"/><path d="M953.342,380.8l5.049,5.678v13.759s-4.29,43.4-17.918,48.2-37.953-2.778-37.953-2.778-6.285-16.652-3.338-17.649,25.975-7.09,25.975-7.09-.33-25.461,4.719-33.035c0,0-3.284-23.719,8.073-24.225S953.342,380.8,953.342,380.8Z" transform="translate(-232.921 -100.054)" fill="#607d8b"/><path d="M912.176,298.856a10.145,10.145,0,0,0-.576-4.919,3.745,3.745,0,0,0-4.006-2.3c-2.156.506-3.069,3.315-5.2,3.99-1.788.568-3.737-.7-4.6-2.363a11.773,11.773,0,0,1-.875-5.494v-6.323c0-2.3-.077-4.773-1.489-6.576-1.757-2.241-5.893-3.223-8.656-3.131a7.344,7.344,0,0,0-4.942,1.987,6.36,6.36,0,0,1-5.2,1.849,4.474,4.474,0,0,1-3.622-3.131v-.077a25.737,25.737,0,1,1,38.26,34.163,69.391,69.391,0,0,0,.905-7.673Z" transform="translate(-227.016 -76.43)" opacity="0.1"/><path d="M874.609,270.1a4.512,4.512,0,0,1-3.63-3.138c-.207-.813-.154-1.681-.391-2.486-.591-1.987-2.709-3.016-4.128-4.527-2.839-3.016-2.655-7.973-.645-11.6,1.627-2.924,4.773-5.371,8.073-4.819,2.041.353,3.837,1.8,5.878,1.941s3.837-.99,5.625-1.819a21.194,21.194,0,0,1,13.981-1.243,8.057,8.057,0,0,1,3.837,1.941,33.56,33.56,0,0,1,2.049,2.878c2.348,2.993,6.561,3.584,10.313,4.259s8,2.164,9.208,5.771c.821,2.394,0,4.988-.445,7.474a2.256,2.256,0,0,0,.1,1.535c.591.967,2.056.56,3.161.767,2.126.453,2.67,3.192,2.755,5.372q.13,3.729.2,7.466a9.508,9.508,0,0,1-.223,2.762,9.754,9.754,0,0,1-2.141,3.476l-8.333,10.014c-3.7,4.435-7.62,9.607-6.906,15.347-1.75.767-3.837-.729-4.4-2.563s-.115-3.837.276-5.686a69.707,69.707,0,0,0,1.335-9.861,10.113,10.113,0,0,0-.576-4.911,3.745,3.745,0,0,0-4.006-2.3c-2.164.506-3.069,3.315-5.2,3.99-1.788.568-3.737-.7-4.6-2.363a11.741,11.741,0,0,1-.875-5.487v-6.331c0-2.3-.077-4.773-1.489-6.576-1.757-2.241-5.893-3.223-8.656-3.131a7.344,7.344,0,0,0-4.934,1.987A6.371,6.371,0,0,1,874.609,270.1Z" transform="translate(-224.993 -71.695)" fill="#7c5c5c"/><path d="M885.3,381.92l7.9,32.467S899.435,414.348,885.3,381.92Z" transform="translate(-229.875 -104.306)" opacity="0.1"/><path d="M918.294,374.85s-10.344,16.943-6.308,34.47l1.926.138S910.475,401.347,918.294,374.85Z" transform="translate(-235.866 -102.661)" opacity="0.1"/><path d="M929,499.547s12.707-4.205,13.628,5.548C942.659,505.095,940.265,498.411,929,499.547Z" transform="translate(-240.041 -131.461)" opacity="0.1"/><path d="M874.6,426.81s-2.525,17.649,2.018,24.732a55.346,55.346,0,0,1-22.207,3.031L852.88,426.81Z" transform="translate(-222.332 -114.749)" opacity="0.1"/><path d="M880.7,449.317l-1.22.683-7.827-17.649,7.321-6.561h.376C879.231,426.665,877.19,441.835,880.7,449.317Z" transform="translate(-226.699 -114.512)" opacity="0.1"/><path d="M872.391,425.83s-2.525,17.649,2.018,24.724a55.184,55.184,0,0,1-22.207,3.031L843.37,425.83Z" transform="translate(-220.12 -114.521)" fill="#607d8b"/><path d="M834.608,803.51a5.717,5.717,0,0,1-4.9,5c-6.852,1.021-23.358,3.63-27.525,5.617-5.3,2.525-26.244.767-27.256-1.765a4.006,4.006,0,0,1,.361-3.069,8.088,8.088,0,0,1,3.384-3.637,8.976,8.976,0,0,1,1.535-.675c3.944-1.312,11.4-4.105,13.406-7.037,0,0,9.293-8.126,11.94-12.516a6.062,6.062,0,0,1,4.85-3.023c2.21-.1,4.673,1.013,5.686,5.855,0,0,12.1,6.906,15.347.852,0,0,.506,9.3,2.517,11.848h0a3.377,3.377,0,0,1,.66,2.548Z" transform="translate(-204.16 -197.476)" fill="#a27772"/><path d="M834.608,809.138a5.717,5.717,0,0,1-4.9,5c-6.852,1.021-23.358,3.63-27.525,5.617-5.3,2.525-26.244.767-27.256-1.765a4.006,4.006,0,0,1,.361-3.069,8.088,8.088,0,0,1,3.384-3.637c3.415,2.3,11,4.481,27.671,1.88,15.907-2.486,23.788-4.919,27.625-6.576h0a3.377,3.377,0,0,1,.645,2.548Z" transform="translate(-204.16 -203.103)" opacity="0.1"/><g transform="translate(639.299 181.987)" opacity="0.1"><path d="M942.458,270.375v-.123a22.6,22.6,0,0,0,.767-5.732,37.823,37.823,0,0,1-.767,4.6A2.793,2.793,0,0,0,942.458,270.375Z" transform="translate(-882.455 -258.98)"/><path d="M909.563,292.314a7.3,7.3,0,0,1,.622,2.885,8.7,8.7,0,0,0-.622-4.021,3.73,3.73,0,0,0-4-2.3c-2.164.506-3.069,3.315-5.21,3.99-1.78.568-3.729-.7-4.6-2.363a11.676,11.676,0,0,1-.875-5.494v-6.323c0-2.3-.077-4.773-1.489-6.576-1.765-2.248-5.893-3.223-8.656-3.138a7.351,7.351,0,0,0-4.942,2,6.376,6.376,0,0,1-5.2,1.849,4.5,4.5,0,0,1-3.622-3.131c-.207-.813-.153-1.688-.391-2.494-.591-1.98-2.709-3.016-4.128-4.52a8.264,8.264,0,0,1-2.126-5.371,8.6,8.6,0,0,0,2.125,6.469c1.42,1.535,3.538,2.54,4.128,4.52.238.767.184,1.681.391,2.494a4.5,4.5,0,0,0,3.622,3.131,6.376,6.376,0,0,0,5.2-1.849,7.351,7.351,0,0,1,4.942-2c2.762-.084,6.906.89,8.656,3.139,1.412,1.8,1.481,4.282,1.489,6.576v6.323a11.614,11.614,0,0,0,.875,5.487c.875,1.65,2.8,2.939,4.6,2.371,2.118-.675,3.069-3.484,5.21-3.99A3.876,3.876,0,0,1,909.563,292.314Z" transform="translate(-864.285 -257.3)"/><path d="M945.043,293.384a9.7,9.7,0,0,1-2.148,3.468l-8.334,10.014c-3.507,4.213-7.213,9.093-6.906,14.472.253-4.934,3.691-9.423,6.906-13.337l8.333-10.014a9.7,9.7,0,0,0,2.149-3.468,9.576,9.576,0,0,0,.223-2.77,7.287,7.287,0,0,1-.223,1.634Z" transform="translate(-879.024 -265.315)"/><path d="M921.916,327.7a5.9,5.9,0,0,1-.253-1.351,6.805,6.805,0,0,0,.253,2.486c.568,1.826,2.647,3.338,4.4,2.555a10.764,10.764,0,0,1-.092-1.1C924.479,330.985,922.453,329.5,921.916,327.7Z" transform="translate(-877.628 -273.364)"/></g><path d="M812.69,789.36s2.64,4.6,12.2.552" transform="translate(-212.982 -199.095)" opacity="0.1"/><path d="M918,790.82s8.241,9.707,18.631,3.185" transform="translate(-237.482 -199.434)" opacity="0.1"/><path d="M947.436,641.23s-5.824,3.637-6.008,5.717,3.008-1.535,3.008-1.535Z" transform="translate(-242.931 -164.633)" opacity="0.1"/><path d="M949.09,677.59a12.178,12.178,0,0,1-7.175,2.8c-4.359.192-3.99,5.87-1.143,4.167S949.09,677.59,949.09,677.59Z" transform="translate(-242.283 -173.092)" opacity="0.1"/><path d="M952.165,682.34s-2.793,13.728-5.065,11.081" transform="translate(-244.252 -174.197)" opacity="0.1"/><path d="M247.931,679.968s17.534,4.811,25.975-1.588,12.1-4.343,12.1-4.343,20.128-1.113,21.785-5.87-7.72-22.038-7.72-22.038c-.668-1.535-1.642-3.484-2.08-3.484l.092-7.29h0l2.916-30.5c6.73-17.258.123-39.557.123-39.557l-1.2-5.533a14,14,0,0,1,1.143-9.208L313.287,526a36.745,36.745,0,0,1,2.3-4.712c.767-1.4,1.788-3.138,3.069-5.218.376-.6.767-1.22,1.2-1.872,1.481-2.3,3.277-4.911,5.448-7.919,5.41-7.5,8.257-16.882,9.73-23.788l.652,2.164h.146l.177.038h.292l.315.054h.115l3.76,47.852c.23,18.662,7.083,28.991,7.083,28.991l-.944,41.2c1.289,9.922-1.535,23.151-2.832,28.43l-2.962,6.684a8.034,8.034,0,0,0-4.366,6.077c-.583,4.934-5.778,15.57-5.778,15.57-2.01,2.548-6.377,9.431-6.377,9.431s-2.056,6.645-.783,9.132,11.925,2.233,11.925,2.233c12.163,2.693,21.486-3.837,20.9-8.333s1.9-5.64,1.9-5.64c4.834-1.535,4.366-4.811,4.366-4.811a30.111,30.111,0,0,0-3.66-19.6l-.767,1.773a26.987,26.987,0,0,1,1.458-10.459l-.445.307-.138.084h-.046c.767-6.73,7.835-19.184,7.835-19.184,12.984-22.775,8.264-53.638,8.264-53.638l-2.01-9.623-.115-3.63a121.143,121.143,0,0,1,1.957-25.86c.7-3.775,1.42-8.333,1.972-13.36,1.166-10.62,4.926-21.578,6.661-26.22l.514-.092h.061c.706-.123,1.42-.246,2.141-.384h.138s.414-2.241.767-6.054c.207-2.432.376-5.517.376-9.062a101.959,101.959,0,0,0-4.842-31.546l.391-.56s.928-1.258,2.624-3.438h0c3.115-3.96,7.965-9.976,13.943-16.759,10.7-12.209,7.558-24.555,7.558-24.555s-7.75-28.4-11.2-45.45a51.687,51.687,0,0,0-8.5-20.22,40.242,40.242,0,0,0,1.074-8.2c.23-5.049.054-10.313-2.218-14.848s-7.106-8.119-12.155-7.512a4.65,4.65,0,0,1-2.179,0,3.314,3.314,0,0,1-1.435-1.251c-2.954-4.075-3.146-9.554-2.225-14.5s2.809-9.669,3.653-14.626.46-10.459-2.693-14.388c-3.706-4.6-10.167-5.9-14.986-9.362-3.384-2.433-5.924-5.924-9.492-8.08s-6.906-1.335-10.781-.522c-6.515,1.374-12.707,2-18.869,4.8a50.254,50.254,0,0,0-16.444,11.963,15.608,15.608,0,0,0-3.668,5.786c-1.535,5.072,1.466,10.474.836,15.723-.445,3.722-2.64,6.96-4.382,10.283s-3.069,7.267-1.7,10.743c2.149,5.433,9.155,6.584,14.25,9.477a4.351,4.351,0,0,1,1.688,1.466c1.258,2.195-1.312,4.474-2.931,6.423a9.677,9.677,0,0,0-1.918,3.9,13.9,13.9,0,0,0-8.341,10.068c-1.727,7.727.928,17.48,3.269,23.926-2.555,14.357.767,20.02,3.215,22.192a12.316,12.316,0,0,1,4.266,8.395v.269c.161,2.609.437,5.21.806,7.8h0c-.084-.606-.169-1.251-.215-1.535-2,3.706-5.817,13.176-7.965,29.106a87.483,87.483,0,0,1-1.941,10.137A55.434,55.434,0,0,0,292.43,439.8l.384,5.164a1.627,1.627,0,0,1-1.044-.345l2.693,4.934v8.326a30.7,30.7,0,0,1-2.041,10.981c-.192.506-.4,1.013-.622,1.535a8.932,8.932,0,0,0-.905,4.52c-5.794,8.878-19.076,58.634-19.076,58.634-7.205,16.314.591,26.857.591,26.857s3.775,45.42,4.481,47.768,2.271,30.034,2.271,30.034h0v2.2a5.165,5.165,0,0,0-1.312-.376c-6.315-.353-8.027,9.623-8.027,9.623L256.9,662s-5.9-1-14.58,5.517S247.931,679.968,247.931,679.968Zm129.031-262.5-.038-.138-.353.207h0l-.146.084-.069.046h0L370.4,396.645a34.9,34.9,0,0,1-.437-17.289l4.6-20.166h0v-4.85l14.633,39C390.137,398.594,381.443,411.324,376.962,417.463Z" transform="translate(-79.638 -68.938)" fill="url(#d)"/><path d="M412.727,557s-5.909,14.373-7.413,28.162c-.545,4.972-1.251,9.469-1.941,13.2a120.612,120.612,0,0,0-1.888,25.53l.115,3.584,1.918,9.492s4.6,30.487-8.111,52.947c0,0-7.535,13.452-7.766,19.821l-5.1,1.972-10.313-2.893s4.98-17.856,3.361-30.372l.929-40.67s-6.7-10.175-6.929-28.592l-3.937-50.538Z" transform="translate(-108.981 -145.037)" fill="#fdc2cc"/><path d="M345.48,547.62s-1.266,19.706-11.012,33.288-11.817,19.475-11.817,19.475l-12,24.264a13.9,13.9,0,0,0-1.128,9.078l1.182,5.464s6.492,22.023-.115,39.066l-3.131,32.92H289.148s-1.535-27.356-2.2-29.674-4.4-47.177-4.4-47.177-7.674-10.436-.583-26.543c0,0,16-60.276,20.281-59.232S345.48,547.62,345.48,547.62Z" transform="translate(-88.811 -142.855)" fill="#fdc2cc"/><g transform="translate(216.79 404.765)" opacity="0.1"><path d="M316.926,639.227l-1.174-5.464a13.813,13.813,0,0,1,1.12-9.116l12-24.287s2.08-5.909,11.817-19.475c9.354-13.045,10.9-31.738,11-33.173l1.865-.092s-1.266,19.706-11.012,33.288-11.817,19.475-11.817,19.475l-12,24.264a13.9,13.9,0,0,0-1.128,9.078l1.182,5.464s6.492,22.023-.115,39.066l-3.131,32.92H313.68l3.131-32.92C323.418,661.211,316.926,639.227,316.926,639.227Z" transform="translate(-313.68 -547.62)"/></g><path d="M390.611,709.757c.23-6.369,7.766-19.821,7.766-19.821,12.753-22.483,8.111-52.948,8.111-52.948l-1.964-9.5-.115-3.584a120.612,120.612,0,0,1,1.888-25.53c.683-3.729,1.389-8.226,1.934-13.2,1.45-13.275,6.983-27.088,7.39-28.1l1.9-.077s-5.909,14.373-7.413,28.162c-.545,4.972-1.251,9.469-1.941,13.2a120.614,120.614,0,0,0-1.888,25.53l.115,3.584,1.918,9.492s4.6,30.487-8.111,52.947c0,0-7.535,13.452-7.766,19.821l-5.1,1.972-1.074-.3Z" transform="translate(-113.775 -145.037)" opacity="0.1"/><path d="M380.675,754.865a8.87,8.87,0,0,0,8.441-1.043,27.24,27.24,0,0,0-.691,15.3c2.087,8.349-19.475-6.722-19.475-6.722l4.6-10.521S375.342,755.21,380.675,754.865Z" transform="translate(-109.748 -190.375)" fill="#d39999"/><path d="M382.284,755.326a8.617,8.617,0,0,0,6.853-1.535,27.241,27.241,0,0,0-.691,15.3c2.087,8.349-19.475-6.722-19.475-6.722l4.6-10.52a6.578,6.578,0,0,0,5.256,2.962C380.02,754.95,381.156,755.111,382.284,755.326Z" transform="translate(-109.753 -190.368)" opacity="0.1"/><path d="M289.32,465.636h9.009V414.522l-6.76-1.212Z" transform="translate(-67.312 -96.154)" fill="#fdc2cc"/><path d="M289.32,465.636h9.009V414.522l-6.76-1.212Z" transform="translate(-67.312 -96.154)" opacity="0.05"/><path d="M370.806,760.632s5.678-.353,8.226,4.75l3.131,2.432,1.535-3.591a29.927,29.927,0,0,1,3.545,19.36s.46,3.238-4.29,4.75c0,0-2.433,1.159-1.857,5.563s-8.571,10.9-20.511,8.226c0,0-10.436.238-11.71-2.2s.813-8.924.813-8.924,4.29-6.8,6.254-9.308c0,0,5.1-10.513,5.686-15.347S367.79,757.962,370.806,760.632Z" transform="translate(-104.982 -192.198)" fill="#7e5659"/><path d="M310.477,764.2l.092-7.205s-10.367,2.985-18.762-.391c0,0,.706,7.244-.46,8.234s3.883,10.313,3.883,10.313l5.64,5.909,9.7-3.53,2.632-8.287S311.168,764.2,310.477,764.2Z" transform="translate(-91.654 -191.473)" fill="#d39999"/><path d="M310.477,764.2l.092-7.205s-10.367,2.985-18.762-.391c0,0,.706,7.244-.46,8.234s3.883,10.313,3.883,10.313l5.64,5.909,9.7-3.53,2.632-8.287S311.168,764.2,310.477,764.2Z" transform="translate(-91.654 -191.473)" opacity="0.1"/><path d="M279.161,763.1s5.51.637,4.811,7.674.292,0,.292,0,5.855,2.371,7.942,5.678,5.855-2.954,6.139-4.75,2.632-2.54,2.632-2.54,9.208,17.074,7.581,21.77-21.394,5.778-21.394,5.778-3.6-2.026-11.886,4.289-25.5,1.535-25.5,1.535-14.027-5.855-5.5-12.278,14.311-5.448,14.311-5.448l12.692-12.232S272.96,762.744,279.161,763.1Z" transform="translate(-80.104 -192.982)" fill="#7e5659"/><path d="M359.779,236.672c3.507,2.126,6,5.579,9.323,7.98,4.727,3.415,11.073,4.689,14.71,9.247,3.069,3.883,3.468,9.308,2.64,14.2s-2.686,9.569-3.584,14.449-.714,10.29,2.187,14.311a3.246,3.246,0,0,0,1.4,1.235,4.6,4.6,0,0,0,2.141,0c4.957-.6,9.715,2.947,11.94,7.42s2.4,9.676,2.172,14.664c-.192,4.09-.652,8.264-2.448,11.948-3.069,6.262-9.454,10.129-15.754,13.091a122.017,122.017,0,0,1-12.577,5.08c-2.947,1-6.054,1.9-9.116,1.374-5.241-.905-8.955-5.671-13.927-7.535-4.075-1.535-8.594-.982-12.93-.6-3.7.322-7.927.315-10.474-2.386-3.269-3.468-1.8-9.062-.123-13.528a9.63,9.63,0,0,1-6.814-15.746c1.581-1.926,4.105-4.174,2.87-6.346a4.205,4.205,0,0,0-1.658-1.443c-5-2.855-11.879-4-13.981-9.354-1.351-3.445-.046-7.344,1.665-10.62s3.837-6.484,4.3-10.152c.614-5.187-2.3-10.52-.821-15.524a15.562,15.562,0,0,1,3.6-5.724,49.387,49.387,0,0,1,16.114-11.81c6.054-2.77,12.124-3.392,18.524-4.742C353,235.352,356.18,234.493,359.779,236.672Z" transform="translate(-94.922 -70.193)" fill="#865a61"/><path d="M326.753,337.757s-14.68-.767-17.457,11.748,6.024,30.441,6.024,30.441Z" transform="translate(-95.744 -94.029)" fill="#fdc2cc"/><path d="M326.753,337.757s-14.68-.767-17.457,11.748,6.024,30.441,6.024,30.441Z" transform="translate(-95.744 -94.029)" opacity="0.05"/><path d="M320,365.805l5.563,4.4,25.96,1.159,16.207-11.127,16.483-28.285c-10.075-2.571-14.15-9.531-15.669-16.038a35.114,35.114,0,0,1-.322-13.4s-26.428-13.682-23.182,7.674a29.007,29.007,0,0,1,.246,7.934c-1.535,12.508-13.674,10.152-13.674,10.152l-4.658,7.182-5.333,17.649Z" transform="translate(-98.36 -84.83)" fill="#fdc2cc"/><path d="M352.576,310.163a29.005,29.005,0,0,1,.246,7.934,23.427,23.427,0,0,0,23.259-2.179,35.114,35.114,0,0,1-.322-13.4S349.33,288.838,352.576,310.163Z" transform="translate(-105.875 -84.828)" opacity="0.1"/><circle cx="23.412" cy="23.412" r="23.412" transform="translate(233.273 187.634)" fill="#fdc2cc"/><path d="M336.742,370.327c.568,0,1.128.084,1.688.138,3.069.307,15.892,1,23.2-7.727,8.172-9.761,19.053-21.816,19.5-22.307l11.073,3.346s-8.763-3.115-14.58,13.183a16.882,16.882,0,0,0,5.7,19.422,17.542,17.542,0,0,0,7.244,3.069.038.038,0,0,1,0,.038v7.152h0l-4.527,19.951a34.584,34.584,0,0,0,.43,17.074l6.906,24.41c-1.044.721-43.893,29.865-72.515,9.738h0c.107-.875,3.645-29.52,1.189-43.54a96.818,96.818,0,0,1-1.281-10.835c0-.092,0-.177,0-.269a12.216,12.216,0,0,0-4.2-8.287c-2.578-2.3-6.07-8.441-2.617-24.663a59.592,59.592,0,0,1,3.837-11.687l9.6-21.693h0l8.848.176v.061c-.767.952-11.027,13.766-12.14,22.023C323.007,366.951,321.664,369.36,336.742,370.327Z" transform="translate(-96.617 -93.818)" fill="#607d8b"/><path d="M413.046,349.586s8.656,7.42,12.055,24.264,10.973,44.821,10.973,44.821,3.069,12.209-7.42,24.264-17.465,21.486-17.465,21.486L404.283,474.6a8.663,8.663,0,0,1-4.972,3.514c-3.146.829-7.98,1.427-12.17-.867a7.09,7.09,0,0,1-3.069-8.955l1.535-3.553s-14.219,8.963-15.455,4.013,16.536-9.891,16.536-9.891,14.679-2.471,17.649-9.423c0,0,15.761-20.25,14.526-27.2l-15.224-40.8s-19.038-2.517-12.546-23.9S413.046,349.586,413.046,349.586Z" transform="translate(-110.013 -95.813)" fill="#fdc2cc"/><path d="M307.4,534.02s34.777,6.952,42.972,6.024l.882,2.939s13.2,2.954,43.041-1.78q2.924-.46,6.07-1.036l.7-.123s.407-2.21.729-5.978c.714-8.556.967-25.123-5.057-42.082l-5.018-15.454s-31.016,18.593-51.551,16.882c-1.834-.153-3.653-.3-5.487-.361-4.213-.161-10.743,0-14.986-3.4l-8.9,1.535v25.323a30.341,30.341,0,0,1-2.01,10.835c-.192.506-.391,1.005-.614,1.535A8.058,8.058,0,0,0,307.4,534.02Z" transform="translate(-95.399 -126.316)" fill="#65617d"/><path d="M364.58,552.546v7.881s15.194,3.4,49.809-2.939c0,0,.407-2.21.729-5.978C404.5,553.214,375.208,557.311,364.58,552.546Z" transform="translate(-108.732 -143.76)" opacity="0.1"/><path d="M307.4,549.435s34.777,6.952,42.972,6.024l.882,2.939v-7.881c-3.96,1.642-32.229-5.172-42.473-7.727-.192.506-.391,1.005-.614,1.535a8.057,8.057,0,0,0-.767,5.111Z" transform="translate(-95.4 -141.731)" opacity="0.1"/><path d="M417.31,538.5l2.578,15.992q2.924-.46,6.07-1.036c-.806-4.673-2.563-15.347-2.08-17.12l-3.246-2.778Z" transform="translate(-120.999 -139.584)" fill="#65617d"/><path d="M417.78,538.052l2.578,16q2.924-.468,6.07-1.036c-.806-4.673-2.563-15.347-2.08-17.12L421.1,533.11Z" transform="translate(-121.108 -139.479)" opacity="0.1"/><g transform="translate(222.798 350.191)" opacity="0.05"><path d="M341.615,497.38c-1.826-.153-3.653-.3-5.487-.361-4.1-.153-10.352,0-14.618-3.138L323,493.62c4.267,3.384,10.743,3.238,14.986,3.4,1.834.061,3.653.207,5.487.361.6.054,1.212.084,1.834.1a34.427,34.427,0,0,1-3.691-.1Z" transform="translate(-321.51 -480.483)"/><path d="M409.323,541.2q2.924-.46,6.07-1.028l.706-.13s.407-2.21.721-5.978c.721-8.556.974-25.123-5.057-42.082l-4.727-14.58c1.005-.568,1.535-.9,1.535-.9l5.018,15.455c6.024,16.959,5.771,33.526,5.057,42.082-.322,3.768-.729,5.978-.729,5.978l-.7.13q-3.138.568-6.07,1.028a191.143,191.143,0,0,1-31.27,2.686A197.212,197.212,0,0,0,409.323,541.2Z" transform="translate(-335.09 -476.5)"/><path d="M360.7,559.3v.084h-1Q360.268,559.346,360.7,559.3Z" transform="translate(-330.395 -495.763)"/></g><ellipse cx="1.312" cy="2.701" rx="1.312" ry="2.701" transform="translate(299.319 396.501)" fill="#d39999"/><path d="M312.692,460.377c2.118-15.731,5.855-25.077,7.827-28.737.077.5.276,2.118.368,2.617.4,2.3.046,5.2.169,8.126l-1.964,35.575,2.632,11.127c2.471,8.809-6.684,1.849-6.684,1.849-1.9,4.174-5.371,3.714-5.371,3.714l-.476-6.384a55.143,55.143,0,0,1,1.6-17.9A85.3,85.3,0,0,0,312.692,460.377Z" transform="translate(-95.81 -115.873)" fill="#fdc2cc"/><path d="M312.692,460.377c2.118-15.731,5.855-25.077,7.827-28.737.077.5.276,2.118.368,2.617.4,2.3.046,5.2.169,8.126l-1.964,35.575,2.632,11.127c2.471,8.809-6.684,1.849-6.684,1.849-1.9,4.174-5.371,3.714-5.371,3.714l-.476-6.384a55.143,55.143,0,0,1,1.6-17.9A85.3,85.3,0,0,0,312.692,460.377Z" transform="translate(-95.81 -115.873)" opacity="0.05"/><path d="M415.338,489.321c-1.665,2.156-2.578,3.392-2.578,3.392l-6.906,10.167a8.625,8.625,0,0,1-4.972,3.514c-3.146.829-7.98,1.435-12.17-.867a7.075,7.075,0,0,1-3.069-8.947l1.535-3.561s-14.219,8.963-15.455,4.021,16.536-9.891,16.536-9.891,14.68-2.471,17.649-9.431c0,0,1.281-1.642,3.069-4.159" transform="translate(-110.379 -125.625)" fill="#fdc2cc"/><path d="M409.858,512.9s-16.813-1.634-22.138-11.249l-2.44,7.942s17.649,12.186,21.678,10.6Z" transform="translate(-113.547 -132.16)" fill="#65617d"/><path d="M409.081,512.8s-16.805-1.634-22.138-11.257l-2.433,7.919s17.649,12.186,21.67,10.6Z" transform="translate(-113.368 -132.135)" opacity="0.1"/><path d="M315.444,510.46s-5.886,2.087-7.044.928l2.647,4.873,5-3.837Z" transform="translate(-95.662 -134.21)" fill="#65617d"/><path d="M315.444,510.46s-5.886,2.087-7.044.928l2.647,4.873,5-3.837Z" transform="translate(-95.662 -134.21)" opacity="0.1"/><path d="M332.687,529.637V519.47l-2.417,10.413Z" transform="translate(-76.839 -120.851)" opacity="0.1"/><path d="M379.548,272.385a9.03,9.03,0,0,1-6.308,3.323,49.71,49.71,0,0,1-7.328,0c-3.837-.061-7.919.529-11.058,2.785a28.116,28.116,0,0,0-5.072,5.371c-4.742,5.794-11.326,11.219-18.8,10.612A4.873,4.873,0,0,1,327.49,293a5.6,5.6,0,0,1-.89-3.177,72.622,72.622,0,0,1,.453-14.319,30.188,30.188,0,0,1,2.164-8.541,29.158,29.158,0,0,1,5.2-7.428,31.821,31.821,0,0,1,9.078-7.275,16.283,16.283,0,0,1,11.357-1.466c4.474,1.22,7.957,4.719,12.224,6.522C371.951,259.37,384.889,264.842,379.548,272.385Z" transform="translate(-99.858 -73.7)" opacity="0.1"/><path d="M379.548,271.172a9.03,9.03,0,0,1-6.308,3.323,49.71,49.71,0,0,1-7.328,0c-3.837-.069-7.919.522-11.058,2.778a28.115,28.115,0,0,0-5.072,5.371c-4.742,5.794-11.326,11.219-18.8,10.613a4.842,4.842,0,0,1-3.491-1.473,5.579,5.579,0,0,1-.89-3.177,72.625,72.625,0,0,1,.453-14.319,30.189,30.189,0,0,1,2.164-8.541,28.961,28.961,0,0,1,5.2-7.42,31.714,31.714,0,0,1,9.078-7.282,16.283,16.283,0,0,1,11.357-1.466c4.474,1.22,7.957,4.719,12.224,6.522C371.951,258.158,384.889,263.614,379.548,271.172Z" transform="translate(-99.858 -73.416)" fill="#865a61"/><path d="M292.091,473.47l-.061,2.8-.629-2.678Z" transform="translate(-67.796 -110.15)" fill="#fdc2cc"/><path d="M292.091,473.47l-.061,2.8-.629-2.678Z" transform="translate(-67.796 -110.15)" opacity="0.05"/><g transform="translate(279.332 250.258)" opacity="0.05"><path d="M399.325,356.261c-6.5,21.386,12.447,23.9,12.447,23.9L427,420.957c1.235,6.952-14.534,27.2-14.534,27.2-1.1,2.594-3.837,4.566-6.829,6.024a10.7,10.7,0,0,0,4.052-4.451s15.761-20.243,14.526-27.2l-15.224-40.808s-18.938-2.509-12.446-23.9c2.172-7.144,5.371-10.4,8.61-11.564C402.916,348.066,400.867,351.173,399.325,356.261Z" transform="translate(-395.184 -346.27)"/></g><g transform="translate(215.944 243.014)" opacity="0.1"><path d="M401,384.61a15.992,15.992,0,0,0,3.069,2.908,17.443,17.443,0,0,0,7.244,3.069v.806a17.388,17.388,0,0,1-6.569-2.908A15.924,15.924,0,0,1,401,384.61Z" transform="translate(-333.149 -347.946)"/><path d="M323.449,422.44v.269a99.106,99.106,0,0,0,1.32,10.873c2.3,13.229-.714,39.5-1.143,43.125-.246-.161-.491-.315-.767-.491.115-.875,3.653-29.52,1.2-43.532a97.242,97.242,0,0,1-1.281-10.835v-.269a11.84,11.84,0,0,0-2.064-5.87,11.932,11.932,0,0,1,2.739,6.73Z" transform="translate(-314.469 -355.181)"/><path d="M335.684,337.881l-7.5-.146a.038.038,0,0,0-.038,0l-9.592,21.685a59.786,59.786,0,0,0-3.837,11.687c-2.793,13.122-1.036,19.66,1.1,22.89-2.4-2.832-4.88-9.285-1.788-23.788a59.154,59.154,0,0,1,3.8-11.694l9.661-21.685h0l8.848.176v.054C336.26,337.152,336.022,337.444,335.684,337.881Z" transform="translate(-312.577 -336.83)"/><path d="M416.39,345.87l.13.038Z" transform="translate(-336.729 -338.933)"/><path d="M393.176,344.742l-7.52-2.264h-.038c-.445.491-11.318,12.546-19.491,22.307-7.305,8.725-20.112,8.042-23.2,7.735-.56-.061-1.128-.107-1.688-.146-8.387-.537-11.687-1.535-12.792-3.653,1.573,1.535,5.034,2.3,12.094,2.732.568,0,1.128.084,1.688.138,3.069.307,15.892.99,23.2-7.727,8.172-9.768,19.053-21.824,19.5-22.315h0l10.943,3.315A6.837,6.837,0,0,0,393.176,344.742Z" transform="translate(-316.27 -337.928)"/></g><path d="M292.938,777.13s-10.589,2.893-12.638-1.65" transform="translate(-89.124 -195.865)" opacity="0.1"/><path d="M379.8,774.274s-12.278,3.169-15.117-1.734" transform="translate(-108.755 -195.181)" opacity="0.1"/><path d="M589.937,759.322c.176-1.535.43-3.069.706-4.6,1.212-6.63-.637-12.953-1.535-15.562h0c-.284-.806-.491-1.258-.491-1.258-4.888-1.335-24.156,13.613-31.178,19.245-2.432,0-5.072.107-7.957.3-1.258.092-2.517.123-3.775.1h-4.6c-6.515-5.249-26.681-21.033-31.7-19.667,0,0-.207.453-.491,1.258h0a31.533,31.533,0,0,0-1.573,15.562c.276,1.535.529,3.069.706,4.6.376,3.369,1.788,9.837,6.906,14.2,1.1,7.981,5.2,18.47,8.364,24.839a17.786,17.786,0,0,0,1.074,3.507c-1.3,5.034-2.809,11.6-2.379,13.812,0,0-6.814-1.65-7.5,6.553v.253c-2.463,1.128-5.54,3.714-2.08,9.132a3.553,3.553,0,0,0,1.78,1.45c.614.215,1.212.215,1.151-.645l4.259,4.8s7.72.89,7.812-3.591l.453.069c1.036.154,2.118.284,3.231.4l.537,1.773s-5.794-.123-4.213,3.445c0,0,1.458,1.351,1.957.859,0,0-.767,2.34,2.256,2.34,0,0,3.246,1.719,4.512.491s3.891-3.069,4.136-3.837c.069-.207.1-2.026.115-4.543h.5c6.469.154,13.337-.054,19.583-.391H561c0,2.724.038,4.735.107,4.949.253.767,2.885,2.586,4.144,3.837s4.5-.491,4.5-.491c3.008,0,2.256-2.34,2.256-2.34.506.491,1.964-.859,1.964-.859,1.581-3.568-4.22-3.445-4.22-3.445l.691-2.3,3.2-.269.506-.046c-.307,4.873,7.8,3.937,7.8,3.937l4.266-4.8c-.069.859.529.859,1.143.645a3.522,3.522,0,0,0,1.727-1.466c5.226-8.172-4.428-9.907-4.428-9.907a4.732,4.732,0,0,0-.913-.146,1.575,1.575,0,0,1,.038-.422h0a16.841,16.841,0,0,0,.061-3.238c-.361-1.481-2.739-3.837-5.747-4.182-1.964-.246-2-9.27-1.8-15.524a17.853,17.853,0,0,0,.307-3.561,18.783,18.783,0,0,0-.767-5.7c3.837-6.507,6.906-13.329,7.251-15.347C588.149,769.137,589.561,762.691,589.937,759.322Z" transform="translate(-141.851 -187.097)" fill="url(#e)"/><path d="M585.148,838.364h0c-.307,4.251-1.128,11.073-1.128,11.073s-3.415.414-8.694.89l-3.584.307c-2.747.223-5.832.437-9.093.622-6.024.33-12.638.537-18.877.384-3.115-.069-6.139-.23-8.94-.506-1.251-.123-2.463-.269-3.614-.437-7.152-1.067-12.278-3.108-12.715-6.691a20.717,20.717,0,0,1-.161-4.6c.668-8.057,7.228-6.43,7.228-6.43-.422-2.225,1.166-9.139,2.456-14.142.813-3.154,1.535-5.548,1.535-5.548l46.133-3.069h.154a2.256,2.256,0,0,1,2.256,2.371c-.276,5.533-.668,18.2,1.6,18.486,2.9.361,5.2,2.655,5.548,4.105A17.221,17.221,0,0,1,585.148,838.364Z" transform="translate(-144.49 -203.945)" fill="#607d8b"/><path d="M543.773,761.386s-17.4,20.941-25.775,15.14c-.2-.138-.391-.276-.576-.422-5.632-4.267-7.113-11.142-7.5-14.633-.169-1.535-.414-3.016-.683-4.512a31.332,31.332,0,0,1,1.535-15.278h0c.276-.767.468-1.235.468-1.235C517.031,738.834,543.773,761.386,543.773,761.386Z" transform="translate(-142.296 -187.696)" fill="#607d8b"/><path d="M534.415,763.719s-5.479,3.837-13.206,10.144a27.91,27.91,0,0,1-3.837,2.64c-5.632-4.266-7.113-11.142-7.5-14.633-.169-1.535-.414-3.016-.683-4.512a31.332,31.332,0,0,1,1.535-15.278h0C521.554,742.832,534.415,763.719,534.415,763.719Z" transform="translate(-142.285 -188.095)" fill="#607d8b"/><path d="M534.415,763.719s-5.479,3.837-13.206,10.144a27.91,27.91,0,0,1-3.837,2.64c-5.632-4.266-7.113-11.142-7.5-14.633-.169-1.535-.414-3.016-.683-4.512a31.332,31.332,0,0,1,1.535-15.278h0C521.554,742.832,534.415,763.719,534.415,763.719Z" transform="translate(-142.285 -188.095)" fill="#fff" opacity="0.5"/><path d="M530.282,764.089s-2.924,2.064-7.052,5.418a14.854,14.854,0,0,1-2.026,1.4,11.3,11.3,0,0,1-4.006-7.8c-.084-.813-.215-1.611-.361-2.417a16.774,16.774,0,0,1,.852-8.149h0C523.422,752.939,530.282,764.089,530.282,764.089Z" transform="translate(-144.114 -190.529)" opacity="0.1"/><path d="M569.05,761.386s17.4,20.941,25.775,15.14c.192-.138.391-.276.576-.422,5.632-4.267,7.113-11.142,7.5-14.633.169-1.535.414-3.016.675-4.512a31.239,31.239,0,0,0-1.535-15.278h0c-.276-.767-.476-1.235-.476-1.235C595.792,738.834,569.05,761.386,569.05,761.386Z" transform="translate(-156.301 -187.696)" fill="#607d8b"/><path d="M581.22,763.719s5.487,3.837,13.214,10.144a27.905,27.905,0,0,0,3.8,2.64c5.632-4.266,7.113-11.142,7.5-14.633.169-1.535.414-3.016.675-4.512a31.239,31.239,0,0,0-1.535-15.278h0C594.1,742.832,581.22,763.719,581.22,763.719Z" transform="translate(-159.132 -188.095)" fill="#607d8b"/><path d="M581.22,763.719s5.487,3.837,13.214,10.144a27.905,27.905,0,0,0,3.8,2.64c5.632-4.266,7.113-11.142,7.5-14.633.169-1.535.414-3.016.675-4.512a31.239,31.239,0,0,0-1.535-15.278h0C594.1,742.832,581.22,763.719,581.22,763.719Z" transform="translate(-159.132 -188.095)" fill="#fff" opacity="0.5"/><path d="M589.05,764.085s2.908,2.057,7.006,5.372a14.054,14.054,0,0,0,2.018,1.4c2.985-2.264,3.775-5.909,3.983-7.758.084-.767.215-1.6.361-2.4a16.806,16.806,0,0,0-.806-8.1h0C595.872,753,589.05,764.085,589.05,764.085Z" transform="translate(-160.954 -190.54)" opacity="0.1"/><path d="M578.622,810.23a41.671,41.671,0,0,1-6.661,8.487c-6.906,6.139-36.726,3.7-38.659,3.384-.407-.069-1.251-1.274-2.3-3.231.813-3.154,1.535-5.548,1.535-5.548Z" transform="translate(-147.448 -203.95)" opacity="0.1"/><path d="M552.127,765.378c-1.212.084-2.425.115-3.645.092-6.223-.108-27.187.169-29.513,8.633-2.739,9.976,9.508,36.687,11.434,37.01s31.738,2.739,38.667-3.384,15.946-25.323,15.462-27.065C584.532,780.664,593.127,762.539,552.127,765.378Z" transform="translate(-144.557 -193.445)" fill="#607d8b"/><path d="M554.033,786.509s-15.347-2.364-22.545,12.738a18.417,18.417,0,0,0,1.358,18.562c2.394,3.369,5.909,5.878,10.8,3.837C554.508,817.173,554.033,786.509,554.033,786.509Z" transform="translate(-147.123 -198.4)" opacity="0.1"/><path d="M553.4,785.249s-15.347-2.363-22.545,12.738a18.417,18.417,0,0,0,1.358,18.562c2.394,3.369,5.909,5.878,10.8,3.837C553.878,815.913,553.4,785.249,553.4,785.249Z" transform="translate(-146.976 -198.107)" opacity="0.1"/><path d="M553.4,785.879s-15.347-2.363-22.545,12.738a18.417,18.417,0,0,0,1.358,18.562c2.394,3.369,5.909,5.878,10.8,3.837C553.878,816.543,553.4,785.879,553.4,785.879Z" transform="translate(-146.976 -198.254)" fill="#607d8b"/><path d="M553.4,785.879s-15.347-2.363-22.545,12.738a18.417,18.417,0,0,0,1.358,18.562c2.394,3.369,5.909,5.878,10.8,3.837C553.878,816.543,553.4,785.879,553.4,785.879Z" transform="translate(-146.976 -198.254)" fill="#fff" opacity="0.5"/><path d="M538.793,803.13s-2.095,1.934-1.289,2.417S538.793,803.13,538.793,803.13Z" transform="translate(-148.919 -202.298)" fill="#3f2b3b"/><path d="M541.991,806.35s-1.143,2.525-.33,2.8,1.3-1.811,1.3-1.811Z" transform="translate(-149.861 -203.047)" fill="#3f2b3b"/><path d="M535.439,811.32s-1.12,2.977,0,2.977S535.439,811.32,535.439,811.32Z" transform="translate(-148.365 -204.203)" fill="#3f2b3b"/><path d="M533.78,821.71s2.241,5.724,8.073,5.318" transform="translate(-148.095 -206.621)" fill="none" stroke="#3f2b3b" stroke-miterlimit="10" stroke-width="1"/><path d="M540.61,823.91s2.3,2.256,4.827.645" transform="translate(-149.684 -207.133)" fill="none" stroke="#3f2b3b" stroke-miterlimit="10" stroke-width="1"/><path d="M564,786.509s15.347-2.364,22.545,12.738a18.417,18.417,0,0,1-1.358,18.562c-2.387,3.369-5.909,5.878-10.8,3.837C563.492,817.173,564,786.509,564,786.509Z" transform="translate(-155.125 -198.4)" opacity="0.1"/><path d="M564.589,785.249s15.347-2.363,22.545,12.738a18.416,18.416,0,0,1-1.358,18.562c-2.386,3.369-5.909,5.878-10.8,3.837C564.136,815.913,564.589,785.249,564.589,785.249Z" transform="translate(-155.262 -198.107)" opacity="0.1"/><path d="M564.589,785.879s15.347-2.363,22.545,12.738a18.417,18.417,0,0,1-1.358,18.562c-2.386,3.369-5.909,5.878-10.8,3.837C564.136,816.543,564.589,785.879,564.589,785.879Z" transform="translate(-155.262 -198.254)" fill="#607d8b"/><path d="M564.589,785.879s15.347-2.363,22.545,12.738a18.417,18.417,0,0,1-1.358,18.562c-2.386,3.369-5.909,5.878-10.8,3.837C564.136,816.543,564.589,785.879,564.589,785.879Z" transform="translate(-155.262 -198.254)" fill="#fff" opacity="0.5"/><path d="M586.16,803.13s2.095,1.934,1.289,2.417S586.16,803.13,586.16,803.13Z" transform="translate(-160.281 -202.298)" fill="#3f2b3b"/><path d="M582.927,806.35s1.143,2.525.33,2.8-1.3-1.811-1.3-1.811Z" transform="translate(-159.304 -203.047)" fill="#3f2b3b"/><path d="M589.67,811.32s1.113,2.977,0,2.977S589.67,811.32,589.67,811.32Z" transform="translate(-160.983 -204.203)" fill="#3f2b3b"/><path d="M589.173,821.71s-2.241,5.724-8.073,5.318" transform="translate(-159.104 -206.621)" fill="none" stroke="#3f2b3b" stroke-miterlimit="10" stroke-width="1"/><path d="M583.334,823.91s-2.3,2.256-4.834.645" transform="translate(-158.499 -207.133)" fill="none" stroke="#3f2b3b" stroke-miterlimit="10" stroke-width="1"/><path d="M553.2,842.449c.407-.077,8.057-3.384,15.946,0Z" transform="translate(-152.613 -211.092)" fill="#3f2b3b"/><path d="M531.218,859.225c-7.152-1.067-12.278-3.108-12.715-6.691a20.717,20.717,0,0,1-.161-4.6,10.326,10.326,0,0,1,2.732-1c1.3-.361,2.9-.115,6.285.852s3.138,4.949,3.837,10.144a4.291,4.291,0,0,1,.023,1.3Z" transform="translate(-144.49 -212.452)" opacity="0.1"/><path d="M519.543,847.584s-9.3,1.7-4.266,9.73a3.43,3.43,0,0,0,1.719,1.42c.591.207,1.159.207,1.1-.637l4.113,4.712s8.211.967,7.489-4.228-.483-9.208-3.837-10.144S520.856,847.223,519.543,847.584Z" transform="translate(-143.443 -212.605)" fill="#607d8b"/><path d="M524.18,854.67s1.972,4.5,4.712.721" transform="translate(-145.862 -214.289)" fill="none" stroke="#3f2b3b" stroke-miterlimit="10" stroke-width="1"/><path d="M518.28,857s1.021,4.266,4.888,1.09" transform="translate(-144.489 -214.831)" fill="none" stroke="#3f2b3b" stroke-miterlimit="10" stroke-width="1"/><path d="M602.435,846.877h0c-.307,4.251-1.128,11.073-1.128,11.073s-3.415.414-8.694.89a4.454,4.454,0,0,1,0-.89c.721-5.195.484-9.208,3.837-10.144C599.6,846.953,601.2,846.639,602.435,846.877Z" transform="translate(-161.777 -212.458)" opacity="0.1"/><path d="M603.431,847.584s9.308,1.7,4.274,9.73a3.461,3.461,0,0,1-1.719,1.42c-.591.207-1.166.207-1.1-.637l-4.105,4.712s-8.218.967-7.489-4.228.483-9.208,3.837-10.144S602.141,847.223,603.431,847.584Z" transform="translate(-161.928 -212.605)" fill="#607d8b"/><path d="M602.212,854.67s-1.98,4.5-4.712.721" transform="translate(-162.919 -214.289)" fill="none" stroke="#3f2b3b" stroke-miterlimit="10" stroke-width="1"/><path d="M608.056,857s-1.028,4.266-4.9,1.09" transform="translate(-164.236 -214.831)" fill="none" stroke="#3f2b3b" stroke-miterlimit="10" stroke-width="1"/><path d="M547.868,858.933c-3.115-.069-6.139-.23-8.94-.506l-2.786-9.377a6.087,6.087,0,0,1-.253-1.711,5.97,5.97,0,0,1,11.932-.038C547.853,850.953,547.884,855.58,547.868,858.933Z" transform="translate(-148.586 -211.239)" opacity="0.1"/><path d="M535.275,848.989l3.284,11.065s-5.586-.123-4.059,3.384c0,0,1.4,1.328,1.888.844,0,0-.729,2.3,2.172,2.3,0,0,3.131,1.7,4.343.483s3.752-3.023,4-3.745c.154-.476.107-9.73.054-16.114a5.955,5.955,0,0,0-5.962-5.909h0a5.962,5.962,0,0,0-5.717,7.689Z" transform="translate(-148.201 -211.178)" fill="#607d8b"/><path d="M540.907,869.47s-2.44,2.3-1.151,3.66" transform="translate(-149.398 -217.732)" fill="none" stroke="#3f2b3b" stroke-miterlimit="10" stroke-width="1"/><path d="M539.316,867.56s-2.256.767-2.256,2.832" transform="translate(-148.858 -217.287)" fill="none" stroke="#3f2b3b" stroke-miterlimit="10" stroke-width="1"/><path d="M588.09,847.277a6.07,6.07,0,0,1-.246,1.711l-2.6,8.878c-2.747.223-5.832.437-9.093.621,0-3.315,0-7.727.054-11.249a5.962,5.962,0,0,1,11.925.038Z" transform="translate(-157.952 -211.177)" opacity="0.1"/><path d="M588.446,848.989l-3.284,11.065s5.594-.123,4.067,3.384c0,0-1.4,1.328-1.888.844,0,0,.721,2.3-2.179,2.3,0,0-3.131,1.7-4.343.483s-3.745-3.023-3.99-3.745c-.154-.476-.107-9.73-.054-16.114a5.955,5.955,0,0,1,5.962-5.909h0a5.962,5.962,0,0,1,5.709,7.689Z" transform="translate(-158.086 -211.178)" fill="#607d8b"/><path d="M586.23,869.47s2.44,2.3,1.151,3.66" transform="translate(-160.297 -217.732)" fill="none" stroke="#3f2b3b" stroke-miterlimit="10" stroke-width="1"/><path d="M587.63,867.56s2.256.767,2.256,2.832" transform="translate(-160.623 -217.287)" fill="none" stroke="#3f2b3b" stroke-miterlimit="10" stroke-width="1"/><path d="M557.264,782.769s-11.365-.361-11.725,8.441,17.757,5.072,17.757,5.072,7.612-1.021,6.285-6.369S565.482,783.253,557.264,782.769Z" transform="translate(-150.83 -197.561)" opacity="0.1"/><path d="M557.264,781.509s-11.365-.361-11.725,8.441,17.757,5.072,17.757,5.072,7.612-1.021,6.285-6.369S565.482,781.993,557.264,781.509Z" transform="translate(-150.83 -197.268)" opacity="0.1"/><path d="M557.264,782.139s-11.365-.361-11.725,8.441,17.757,5.072,17.757,5.072,7.612-1.021,6.285-6.369S565.482,782.623,557.264,782.139Z" transform="translate(-150.83 -197.414)" fill="#3f2b3b"/><path d="M527.78,839.92s3.837,1.366,4.6,3.983" transform="translate(-146.699 -210.857)" opacity="0.1"/><path d="M597.509,837.4s-2.724,1.143-2.532,5.916" transform="translate(-162.33 -210.271)" opacity="0.1"/><ellipse cx="1.779" cy="2.949" rx="1.779" ry="2.949" transform="translate(379.683 647.341) rotate(-29.887)" fill="#607d8b"/><ellipse cx="2.939" cy="1.773" rx="2.939" ry="1.773" transform="translate(433.692 648.034) rotate(-60)" fill="#607d8b"/><ellipse cx="1.779" cy="2.949" rx="1.779" ry="2.949" transform="translate(379.683 647.341) rotate(-29.887)" fill="#fff" opacity="0.5"/><ellipse cx="2.939" cy="1.773" rx="2.939" ry="1.773" transform="translate(433.692 648.034) rotate(-60)" fill="#fff" opacity="0.5"/><ellipse cx="20.665" cy="3.491" rx="20.665" ry="3.491" transform="translate(127.125 545.981)" fill="#607d8b" opacity="0.1"/><ellipse cx="20.665" cy="3.491" rx="20.665" ry="3.491" transform="translate(45.716 595.499)" fill="#607d8b" opacity="0.1"/><ellipse cx="30.855" cy="5.218" rx="30.855" ry="5.218" transform="translate(14.009 549.473)" fill="#607d8b"/><path d="M72.078,727.569a8.925,8.925,0,0,1-2.947-4.435c-.376-1.765.376-3.875,2.057-4.52,1.888-.721,3.906.583,5.433,1.9s3.284,2.832,5.287,2.555a8.049,8.049,0,0,1-2.486-7.535A3.069,3.069,0,0,1,80.112,714c1.044-1.12,2.947-.637,4.205.245,3.983,2.809,5.1,8.226,5.118,13.106.407-1.765.069-3.591.077-5.371s.506-3.837,2.026-4.773a6.139,6.139,0,0,1,3.069-.767c1.8-.061,3.791.115,5.019,1.427,1.535,1.627,1.128,4.366-.2,6.139s-3.338,2.916-5.187,4.159a11.448,11.448,0,0,0-3.714,3.537,3.622,3.622,0,0,0-.276.629H79.038a31.031,31.031,0,0,1-6.96-4.765Z" transform="translate(-39.975 -181.411)" fill="#607d8b"/><ellipse cx="20.665" cy="3.491" rx="20.665" ry="3.491" transform="translate(769.577 575.187)" fill="#607d8b" opacity="0.1"/><path d="M1042.91,751.179s11.786-.361,15.347-2.893,18.125-5.548,19.007-1.489,17.718,20.174,4.4,20.281-30.917-2.072-34.462-4.236S1042.91,751.179,1042.91,751.179Z" transform="translate(-266.542 -188.731)" fill="#a8a8a8"/><path d="M1081.9,767.6c-13.306.107-30.917-2.072-34.462-4.236-2.7-1.642-3.776-7.543-4.136-10.267h-.391s.767,9.508,4.29,11.664,21.156,4.343,34.462,4.236c3.837,0,5.172-1.4,5.1-3.422C1086.227,766.836,1084.761,767.6,1081.9,767.6Z" transform="translate(-266.542 -190.659)" opacity="0.2"/></g></svg>