<svg version="1.1" xmlns="http://www.w3.org/2000/svg" xmlns:xlink="http://www.w3.org/1999/xlink" width="48" height="48"><defs><linearGradient x1="14.22989" y1="14.22989" x2="51.80133" y2="51.80133" gradientUnits="userSpaceOnUse" id="color-1"><stop offset="0.41" stop-color="#000000" stop-opacity="0.25"/><stop offset="1" stop-color="#000000" stop-opacity="0"/></linearGradient><filter id="dropshadow-base"><feColorMatrix type="matrix" values="0 0 0 0 0  0 0 0 0 0  0 0 0 0 0  0 0 0 .8 0"/> <feOffset dx="0" dy="1"/> <feGaussianBlur stdDeviation="1"/> <feComposite in="SourceGraphic"/></filter><filter id="dropshadow-banner" x="-10%" y="-10%" width="120%" height="130%"><feColorMatrix type="matrix" values="0 0 0 0 0  0 0 0 0 0  0 0 0 0 0  0 0 0 .4 0"/> <feOffset dx="0" dy="1"/> <feGaussianBlur stdDeviation="0.5"/> <feComposite in="SourceGraphic"/></filter></defs><g fill="none" fill-rule="nonzero" stroke="none" stroke-width="none" stroke-linecap="butt" stroke-linejoin="miter" stroke-miterlimit="10" stroke-dasharray="" stroke-dashoffset="0" font-family="none" font-weight="none" font-size="none" text-anchor="none" style="mix-blend-mode: normal"><path d="M2,24c0,-12.15026 9.84974,-22 22,-22c12.15026,0 22,9.84974 22,22c0,12.15026 -9.84974,22 -22,22c-12.15026,0 -22,-9.84974 -22,-22z" id="base 1 5" fill="#2b8d90" stroke-width="1"/><path d="M14.86562,33.13438c-0.39284,-0.39284 -0.63573,-0.93562 -0.63573,-1.5354v-15.19795c0,-1.19955 0.97158,-2.17113 2.17113,-2.17113h15.19795c0.59978,0 1.14256,0.24289 1.5354,0.63573l12.595,12.595c-1.48186,9.37878 -8.88997,16.78689 -18.26875,18.26875z" fill="url(#color-1)" stroke-width="1"/><path d="M31.59897,14.22989h-15.19795c-1.19955,0 -2.17114,0.97158 -2.17114,2.17114v15.19795c0,1.19955 0.97158,2.17114 2.17114,2.17114h15.19795c1.19955,0 2.17114,-0.97158 2.17114,-2.17114v-15.19795c0,-1.19955 -0.97158,-2.17114 -2.17114,-2.17114zM20.7433,29.42784h-2.17114v-7.59897h2.17114zM25.08557,29.42784h-2.17114v-10.85568h2.17114zM29.42784,29.42784h-2.17114v-4.34227h2.17114z" fill="none" stroke-width="0"/><path d="M33.77011,16.40103v15.19795c0,1.19955 -0.97158,2.17114 -2.17114,2.17114h-15.19795c-1.19955,0 -2.17114,-0.97158 -2.17114,-2.17114v-15.19795c0,-1.19955 0.97158,-2.17114 2.17114,-2.17114h15.19795c1.19955,0 2.17114,0.97158 2.17114,2.17114zM20.7433,21.82886h-2.17114v7.59897h2.17114zM25.08557,18.57216h-2.17114v10.85568h2.17114zM29.42784,25.08557h-2.17114v4.34227h2.17114z" fill="#ffffff" stroke-width="0"/><path d="M2,24c0,-12.15026 9.84974,-22 22,-22c12.15026,0 22,9.84974 22,22c0,12.15026 -9.84974,22 -22,22c-12.15026,0 -22,-9.84974 -22,-22z" id="base 1 1 1" fill="none" stroke-width="1"/><g fill="#000000" stroke-width="1" font-family="Roboto, sans-serif" font-weight="400" font-size="14" text-anchor="start"/><rect x="2" y="2" width="44" height="22" fill="none" stroke-width="1"/><path d="M2,24v-22h44v22z" fill="none" stroke-width="1"/><path d="M2,24v-22h44v22z" fill="none" stroke-width="1"/><path d="M2,24v-22h44v22z" fill="none" stroke-width="1"/><path d="M2,24v-22h44v22z" fill="none" stroke-width="1"/></g></svg>