<?xml version="1.0" encoding="utf-8"?>
<!-- Generator: Adobe Illustrator 23.0.1, SVG Export Plug-In . SVG Version: 6.00 Build 0)  -->
<svg version="1.1" xmlns="http://www.w3.org/2000/svg" xmlns:xlink="http://www.w3.org/1999/xlink" x="0px" y="0px"
	 viewBox="0 0 1000 1000" style="enable-background:new 0 0 1000 1000;" xml:space="preserve">
<style type="text/css">
	.st0{fill:#607D8B;}
</style>
<g id="Layer_2">
</g>
<g id="Layer_1">
	<path d="M477.02-0.06c-70.44,0-127.55,57.1-127.55,127.55v109.92c-144.72,0-262.03,117.32-262.03,262.03
		s117.32,262.03,262.03,262.03c55.85,0,107.6-17.48,150.12-47.26V594.97V284.67V-0.06H477.02z"/>
	<g>
		<path d="M-731,526.46h-119.45V154.49C-850.45,98.44-805.01,53-748.96,53H-731V526.46z"/>
	</g>
	<path d="M-731,279.55c-33.83-23.69-75.01-37.6-119.45-37.6c-115.15,0-208.5,93.35-208.5,208.5s93.35,208.5,208.5,208.5
		c44.44,0,85.62-13.91,119.45-37.6V279.55z"/>
	<g>
		<path class="st0" d="M-731,354.88h119.45v368.09c0,55.79-45.23,101.02-101.02,101.02H-731V354.88z"/>
	</g>
	<path class="st0" d="M-731,621.34c33.83,23.69,75.01,37.6,119.45,37.6c115.15,0,208.5-93.35,208.5-208.5s-93.35-208.5-208.5-208.5
		c-44.44,0-85.62,13.91-119.45,37.6V621.34z"/>
	<path class="st0" d="M649.78,237.47c-55.85,0-107.6,17.48-150.12,47.26v119.24v310.31V999h22.58c70.44,0,127.55-57.1,127.55-127.55
		V761.53c144.72,0,262.03-117.32,262.03-262.03S794.5,237.47,649.78,237.47z"/>
</g>
</svg>
