<svg xmlns="http://www.w3.org/2000/svg" viewBox="0 0 1500 1500" width="100" height="100">
	<style>
		tspan { white-space:pre }
		.shp0 { fill: #ffffff } 
		.shp1 { fill: #222222 } 
		.shp2 { fill: #607d8b } 
	</style>
	<path id="Shape 1" class="shp0" d="M750 1500C335.25 1500 0 1164.75 0 750C0 335.25 335.25 0 750 0C1164.75 0 1500 335.25 1500 750C1500 1164.75 1164.75 1500 750 1500Z" />
	<g id="Ebene 1">
		<g id="&lt;Group&gt;">
			<g id="&lt;Group&gt;">
				<path id="&lt;Path&gt;" class="shp1" d="M795.6 648.46L704.4 648.46L704.4 757L704.4 946.91L704.4 946.93C704.4 1031.04 636.21 1099.24 552.09 1099.24C467.98 1099.24 399.78 1031.04 399.78 946.93C399.78 862.81 467.98 794.62 552.09 794.62L552.09 794.62L609.01 794.62L609.01 703.4L552.09 703.4L552.09 703.42C417.61 703.42 308.59 812.44 308.59 946.93C308.59 1081.41 417.61 1190.43 552.09 1190.43C686.58 1190.43 795.6 1081.41 795.6 946.93C795.6 946.92 795.6 946.92 795.6 946.91L795.6 946.91L795.6 648.46Z" />
			</g>
			<g id="&lt;Group&gt;">
				<path id="&lt;Path&gt;" class="shp2" d="M947.91 309.57C813.42 309.57 704.4 418.59 704.4 553.07C704.4 553.08 704.4 553.08 704.4 553.09L704.4 553.09L704.4 749.36L795.6 749.36L795.6 743L795.6 553.09L795.6 553.07C795.6 468.96 863.79 400.76 947.91 400.76C1032.02 400.76 1100.22 468.96 1100.22 553.07C1100.22 637.19 1032.02 705.38 947.91 705.38L947.91 705.38L890.99 705.38L890.99 796.6L947.91 796.6L947.91 796.58C1082.39 796.58 1191.41 687.56 1191.41 553.07C1191.41 418.59 1082.39 309.57 947.91 309.57Z" />
			</g>
		</g>
	</g>
</svg>